<svg id="Layer_1" data-name="Layer 1" xmlns="http://www.w3.org/2000/svg" viewBox="0 0 659.43 573.98"><defs><style>.cls-1{fill:#fff;}.cls-2{fill:#f8f8f8;stroke:#020202;stroke-miterlimit:10;stroke-width:2.31px;}.cls-3{fill:#020202;}</style></defs><title>ferretnav</title><path d="M169.23,307.7c-2.1,10.91-5,23.88-1,33.24,6.44,15.35,9.21,32.56,21.63,45.85,5,5.33,3.68,16.54,5.19,25.08q4.33,24.45,8.56,48.92c.29,1.7.55,3.84-.21,5.22-4.45,8.13-4.61,16.58-4,25.06a34.59,34.59,0,0,1,12.36,9.67,152.55,152.55,0,0,0,19,18.92L228.29,500l-7.57,4.63-2.64-1.08,9.43-44-6.5,3.81,2.83-21c10-3.91,2.33-14.71,3.36-24.62,2.63-.37,5.87-1.78,8.54-1.06,24.78,6.7,51.11,6.42,74.51,20,16.65,9.68,36.75,7.39,55.28,5.62,20.66-2,41.29-6,58-20.4,8-6.88,16.15-13.74,25-19.46,3.84-2.48,9.55-2.07,13.69-2.84,2.09,6.39,5.16,11.81,6.93,17.23.55-.15,3-.3,3-.45V401c0,16.71,15.6,35.11,21.57,52.56-.83.36-2.32.73-3.15,1.09-3-6.85-6.34-13.7-9.34-20.56-1,.36-2.2.71-3.22,1.07,3.39,10.67,6.06,21.56,10.14,32,4.67,11.88-10.51,19.18-6.52,30.87l-9-15.54-1,.51c2.22,9,4.24,18,6.81,26.86a296.58,296.58,0,0,0,20-23.12c.06-1.29.11-2.59.17-3.88.29-6,2.1-12.06,1.46-17.9-1.46-13.38-4.12-26.62-6.05-40-3.25-22.48-2.7-44.28,10.08-64.43,4-6.35,8.74-13.87,8.72-20.84-.05-16.19-2.25-32.46-4.71-48.52-1-6.6-.23-11.23,3.91-16.51,7-8.89,11.84-18.27,10.64-30.94C518.52,200.49,498,165,472.28,131.8c-8.13-10.47-22-10.84-31.86-1.59a114.8,114.8,0,0,0-14.32,17c-9.79,13.68-23.64,15.25-38.72,14-7.49-.61-15-1.34-22.51-1.11-7.22.22-14.38,2-21.61,2.37-6.89.3-13.84-.91-20.72-.55-5.55.29-11,2-16.53,3-6,1.12-11.9,2.81-17.91,3.16-7.4.44-15.76,1.84-22.12-.89-12.6-5.41-24.09-13.41-36.07-20.28-24.56-14.07-34.32-7-46.36,13.87a15.47,15.47,0,0,0-1.31,2.91c-8.55,26.24-16.45,52.72-25.85,78.66-5.76,15.88-1.53,29.34,8.49,40.39C172.52,291.18,171,298.28,169.23,307.7Zm253.1-139.14,3.43.84c-.42,4.54.51,9.84-1.54,13.44-3.88,6.83-.47,11.35,2.13,17s3.77,12,5.5,18.14c-2.35-1.62-5.33-2.89-6.58-5.12-4.18-7.45-9.94-15.1-10.65-23.07C414,183,419.52,175.66,422.33,168.55ZM366.6,182c5.48,18.85,1.16,31.56-12.68,36.64l2-11.55-2.08-.6-5.11,6.29-.71-2.3-22.13,5.37-6.09-46.8C340.07,164.2,363.33,170.8,366.6,182ZM319,267.62c2.26-3,6.8-4.21,10.52-4.56,10.11-.94,20.35.15,30.54,0,8.65-.1,16.18,1.48,19.31,11.61,1.37,4.42,4.92,8.35,7.25,12-2.53-1-6.34-2.53-12.59-5.1,2.26,4.84,4.14,7.92,5.14,11.22,2.1,7,5,14,5.28,21.12.4,11.2-7.17,15.37-17.6,11-2.57-1.07-5.29-1.77-9.83-3.27,5.74,20.48-11.63,28.32-18.78,41.67L334.77,362l5.49-14.76-1.34-.84L331.58,353l-11-5.83c3.93-5.93,5.52-14.56-4.29-19.06-4.37-2-6.94,14-10.27-15.08h0C303,284,308.31,281.89,319,267.62Zm61.43,84.22-4.25,1.25L363,343.46c6.2-1.36,11.21-4,13.42-2.53C379,342.69,379.2,348,380.42,351.84ZM237.21,178.56,232,175.27,250.25,166l11.59,13.65L246.16,197.7l.83.9,10.61-8.52,1.46,1.47-6,8.52,9.37-5.79c-2.83,25-4.39,48.39-22.34,66.73-6.3,6.44-11.51,14-16.62,21.53-4.78,7-4.43,7.24-12.95,4.25-.18,3.75.16,7.27-.66,10.5-.66,2.61-2.44,6.67-4.22,7-8.38,1.32-7.82,6-5,11.48,4.78,9.4,9.92,18.62,16.18,30.28l-14-11.5c3,12.46,55.94,56.09,68.77,57.29,10.35-26.72-2.28-61,29-82.09,3.08,0-3.49,11.68,5,9.3-1.79,2.84-3.57,5.69-5.27,8.43,6.11-1.5,11.24,2.6,10.45,8.89-.43,3.46-1.81,6.79-2.41,10.24-2.27,13.18.53,17.32,12.56,23.22a44.14,44.14,0,0,1,14.44,11.58c8.36,10.36,25.62,10.3,33.66-.13,4.09-5.3,9.29-10.41,15.1-13.57,10.07-5.48,15.7-12.08,10.67-22-6.24-12.27-1.53-21.22,3.41-31.26,19.06,16.44,24.53,38,23.57,62.8l8.5-1.67-2.72,6.63,1.48,1.3c8.7-7,17.92-13.42,26-21.09,9.65-9.2,18.3-19.44,27.53-29.39l-13.83,3.58,23.37-34-10.52-21.39L467,285c1.94-4,4.5-7.11,4.5-10.22,0-1.48-4.91-2.94-7.55-4.39l-18.08-27.14-2.47,1.71,1.84-11.14c-12.87-.4-15.73-4-13-15.21,2.44.07,5.44-.64,7.09.54,7.5,5.37,18.42,5.65,24.86-2.06l5.89.09c1.17-8.45-5.49-13.6-12.18-18-4.71-3.09-10.86-4.85-10.18-12.88.13-1.53-5.21-3.52-9.4-6.18L450,140.53c1.89.65,3.78-2.71,5.67-2.07-1.43,3.83-2.85,7.29-4.2,7.29h18c-.12,0-.22,8.59-.36,11.48,3.29-1.14,5.8,0,7.81-.71a3.35,3.35,0,0,1,1.61,1.72c-.65,12.42,11.24,17.5,17.09,25.27,13.45,17.88,20.12,37.17,20.36,59,.07,5.94-1.13,12-1.75,18-1.27-.22-2.55-.38-3.82-.6-.17-3-.35-6-.47-8l-20.39-1c-3.7-5.13-7.37-10.42-11.27-15.55-1.95-2.56-4.4-4.69-6.19-7.23v17.09c.67,4.29,1.47,8.51,3.34,12.28,3.36,6.77,9.14,12.19,15.23,19.68,3-3.31,6.9-7.9,10.79-12.26-.34,12-.42,12-6,11,.53,6.08,1.15,11.89,1.45,17.72a53.23,53.23,0,0,1-.32,11.5c-1.6,9.44-4.28,18.74-5.1,28.22-.22,2.6,4.59,5.63,7.17,8.55-1,4.31-2,9.68-3.6,14.86-.8,2.63-2.44,6.91-4,7.08-14.73,1.53-18.53,15.64-27.82,23.3-1.54,1.27-4.35,3.57-4.82,3.2-8.47-6.78-11.3,1.86-15,5.79-30.44,32-68.65,41.1-110.93,37.82-6.33-.49-12.41-3.82-18.69-5.51-21.88-5.86-43.83-11.44-65.66-17.49-3.16-.87-5.64-5-8.67-5.3-4.61-.48-9.8-8.84-14.22.23-5-2.68-10.3-4.88-14.82-8.18a44.86,44.86,0,0,1-10.64-10.92c-1.73-2.57-2.92-7.25-1.72-9.7,3.39-6.9,1.84-11.62-4-15.78-1-.73-2.66-2-2.52-2.74,2.94-15.18-9.29-24.31-14.32-36.27-2.81-6.7-3.35-13.5,2.3-18.57,6.78-6.09,6-18.67,17.86-20.42.68-.1,1.59-4.11,1.07-5.91-4.48-15.44,3.73-26.93,11.43-38.72,3.15-4.83,5.73-10,8.57-15.05l3.32,1.65-1.32,3.49c12.49-2.8,14-3.55,16.57-19.71C238.45,199.61,237.21,189.8,237.21,178.56Zm-76.58,62.19c5.62-15.28,10.19-31,16.4-46,2.95-7.14,8.59-13.18,13-19.69,2.55-3.72,4.61-8,7.91-10.9,3.47-3,8.7-7.07,12.23-6.31,7.1,1.52,9.73,8.18,11.54,15.47,5.7,22.93-13.23,37-18.07,57.92l-9.17-9.67c-1.43,5-1.59,9.1-3.57,11.88-5.07,7.1-11,13.61-17.61,21.69L170,244.92c-10.63,15.57-3.08,26.91,6.6,38.5C163.24,278,155.35,255.11,160.63,240.75Z"/><path class="cls-1" d="M220.72,504.61l7.57-4.63,2.43,19.69C269,552,325.91,570.61,373.66,560.22c33.54-7.29,74.15-21.14,99.33-45,1.86-1.76,3.58-3.64,5.36-5.47-2.57-8.86-4.58-17.89-6.8-26.86l1-.51q4.52,7.77,9.07,15.55c-4-11.69,11.22-19,6.56-30.87-4.08-10.4-6.84-21.28-10.22-32,1-.36,2.2-.71,3.22-1.07,3,6.85,6.34,13.7,9.34,20.56.83-.36,2.32-.73,3.15-1.09-6-17.44-21.57-35.85-21.57-52.56v15.44c0,.15-2.4.3-3,.45-1.77-5.42-4.84-10.83-6.93-17.23-4.14.77-9.85.35-13.69,2.84-8.83,5.72-17,12.57-25,19.46-16.73,14.39-37.35,18.43-58,20.4-18.53,1.77-38.62,4.06-55.28-5.62-23.39-13.6-49.72-13.33-74.51-20-2.67-.72-5.91.69-8.54,1.06-1,9.9,6.62,20.7-3.36,24.62l-2.83,21,6.5-3.81-9.43,44Z"/><path class="cls-1" d="M432,218.56c2.47.13,5.6-.66,7.29.55,7.81,5.59,15,5.76,21.29-3,.82.34-16.28.68,2.72,1v28.4s2.13-.06,3.34-.09c.17-3.3.21-6.61.38-9.91l2.23-.37c1.77,7.45,2.3,15.5,5.62,22.19s9.42,12.19,15.5,19.68l10.93-12.26c-.34,12-.35,12-6,11,.53,6.08,1.18,11.89,1.48,17.72a53.2,53.2,0,0,1-.3,11.5c-1.6,9.44-4.28,18.74-5.1,28.22-.22,2.6,4.59,5.63,7.17,8.55-1,4.31-2,9.68-3.59,14.86-.8,2.63-2.44,6.91-4,7.08-14.73,1.53-18.53,15.64-27.82,23.29-1.54,1.27-4.35,3.57-4.82,3.2-8.47-6.78-11.3,1.86-15,5.79-30.44,32-68.65,41.1-110.93,37.82-6.33-.49-12.41-3.82-18.69-5.51-21.88-5.86-43.83-11.45-65.66-17.49-3.16-.87-5.64-5-8.67-5.3-4.61-.48-9.8-8.84-14.22.23-5-2.68-10.3-4.88-14.82-8.18a44.85,44.85,0,0,1-10.64-10.92c-1.73-2.57-2.92-7.25-1.72-9.69,3.39-6.9,1.83-11.62-4-15.78-1-.73-2.66-2-2.52-2.73,2.94-15.18-9.29-24.31-14.32-36.27-2.81-6.7-3.35-13.5,2.3-18.57,6.78-6.09,6-18.67,17.86-20.42.68-.1,1.59-4.11,1.07-5.91-4.48-15.44,3.73-26.93,11.43-38.72,3.15-4.83,5.73-10,8.57-15.05l3.32,1.65-1.32,3.49c12.49-2.8,14-3.55,16.57-19.71,1.51-9.36.28-19.16.28-30.41L232,175.27,250.25,166l11.59,13.65L246.16,197.7l.83.9,10.61-8.52,1.46,1.47-6,8.52,9.37-5.79c-2.83,25-4.39,48.39-22.34,66.73-6.3,6.44-11.51,14-16.62,21.53-4.78,7-4.43,7.24-12.95,4.25-.18,3.75.16,7.27-.66,10.5-.66,2.61-2.44,6.67-4.22,7-8.38,1.32-7.82,6-5,11.48,4.78,9.4,9.92,18.62,16.18,30.28l-14-11.5c3,12.46,55.94,56.09,68.77,57.29,10.35-26.72-2.28-61,29-82.09,3.14,0-3.79,12.19,5.5,9.17l-.26-.29-5.5,8.84c6.11-1.5,11.24,2.6,10.45,8.89-.43,3.46-1.81,6.79-2.41,10.24-2.27,13.18.53,17.32,12.56,23.22a44.15,44.15,0,0,1,14.44,11.58c8.36,10.36,25.62,10.3,33.66-.13,4.09-5.3,9.29-10.41,15.1-13.57,10.07-5.48,15.7-12.08,10.67-22-6.24-12.27-1.53-21.22,3.41-31.26,19.06,16.44,24.53,38,23.57,62.8l8.5-1.67-2.72,6.63,1.48,1.3c8.7-7,17.92-13.42,26-21.09,9.65-9.2,18.3-19.44,27.53-29.39l-13.83,3.58,23.37-34-10.52-21.39L467,285c1.94-4,4.5-7.11,4.5-10.22,0-1.48-4.91-2.94-7.55-4.39l-18.08-27.14-2.47,1.71,1.84-11.14c-13-.4-15.79-4.05-12.94-15.52ZM414.27,399.89c-16.81,8.25-32.67,3.14-48.47-2.37-9.38-3.27-17.86-2.11-26.2,3.62-10.27,7.05-21.32,9.75-33.65,3,1.56,3.11,3.45,5.71,6,6.8,10.43,4.49,19.68.73,29.36-3.75A42.56,42.56,0,0,1,362,403.24c10.09.9,20,4.13,29.89,6.68S409.1,409.42,414.27,399.89Z"/><path class="cls-1" d="M306,318.87c-3.06-18.09,2.29-34.08,13-48.35a16.63,16.63,0,0,1,10.52-6c10.11-.94,20.35-.58,30.54-.7,8.65-.1,16.18,1.12,19.31,11.24,1.37,4.42,4.92,8.17,7.25,11.86L374,281.73c2.26,4.84,4.14,7.87,5.14,11.18,2.1,7,5,14,5.28,21.1.4,11.2-7.17,15.36-17.6,11-2.57-1.07-5.29-1.78-9.83-3.27,5.74,20.48-11.63,28.32-18.78,41.67L334.77,362l5.49-14.76-1.34-.84L331.58,353l-11-5.83c3.93-5.93,5.52-11.66-4.29-16.16-4.46-2-7-8.18-10.49-12.47Zm20.54,16.7c5.37,2.94.75,4.8,14.75,7.37V325.49c0-.44-2.48-.87-3.39-1.31C334.6,327.72,330.61,331.26,326.56,335.57Z"/><path class="cls-1" d="M510.41,259.89l-.47-8.05-20.39-1c-3.7-5.13-7.37-10.43-11.27-15.56s-10-8.58-8.29-17.31c1.74-8.94-5.22-14.25-12.12-18.77-4.71-3.09-10.86-4.85-10.18-12.88.13-1.53-5.21-3.52-9.4-6.18L450,140.53c1.89.64,3.78,1,5.67,1.65-1.43,3.83-2.85,11-4.2,11h18c-.12,0-.22,4.87-.36,7.76,3.29-1.14,5.8-1.88,7.81-2.57,1,.44,1.62.67,1.61.79-.65,12.42,11.24,17,17.09,24.8,13.45,17.88,20.12,36.94,20.36,58.72.07,5.94-1.13,11.9-1.75,17.85Z"/><path class="cls-1" d="M203.68,231.24l-9.17-9.67c-1.43,5-1.59,9.1-3.57,11.88-5.07,7.1-11,13.61-17.61,21.69L170,244.92c-10.63,15.57-3.08,26.91,6.6,38.5-13.39-5.46-21.28-28.3-16-42.66,5.62-15.28,10.19-31,16.4-46,2.95-7.14,8.59-13.18,13.05-19.69,2.55-3.72,4.61-8,7.91-10.9,3.47-3,8.7-7.07,12.23-6.31,7.1,1.52,9.73,8.18,11.54,15.47C227.46,196.26,208.52,210.34,203.68,231.24Z"/><path class="cls-1" d="M353.92,218.68l2-11.55-2.08-.6-5.11,6.29-.71-2.3-22.13,5.37-6.09-46.8c20.23-4.89,43.49,1.71,46.76,13C372.09,200.89,367.77,213.6,353.92,218.68Z"/><path class="cls-1" d="M432.27,218.27c-2.39-1.77-5.68-3-7-5.4-4.18-7.45-9.94-15.1-10.65-23.07-.61-6.79,4.91-14.14,7.72-21.24l3.43.84c-.42,4.54.51,9.84-1.54,13.44-3.88,6.83-.47,11.35,2.13,17,2.7,5.87,3.84,12.46,5.66,18.72Z"/><path class="cls-1" d="M376.17,353.09,363,343.46c6.2-1.36,11.21-4,13.42-2.53,2.6,1.75,2.76,7.11,4,10.91Z"/><path d="M414.27,399.89c-5.17,9.53-12.54,12.54-22.35,10s-19.81-5.77-29.89-6.68a42.56,42.56,0,0,0-20.74,3.92c-9.68,4.48-18.93,8.24-29.36,3.75-2.54-1.09-4.43-3.69-6-6.8,12.32,6.79,23.38,4.09,33.65-3,8.34-5.73,16.82-6.89,26.2-3.62C381.6,403,397.46,408.14,414.27,399.89Z"/><path d="M326.56,335.57c4.05-4.31,8-7.85,11.37-11.39.91.44,3.39.87,3.39,1.31v17.45C327.32,340.37,331.93,338.51,326.56,335.57Z"/><ellipse class="cls-2" cx="263.74" cy="288.78" rx="11.78" ry="16.93" transform="translate(-39.99 42.41) rotate(-8.55)"/><ellipse class="cls-3" cx="400.73" cy="266.41" rx="7.66" ry="9.33" transform="translate(-40.95 75.43) rotate(-10.23)"/><ellipse class="cls-2" cx="424.61" cy="283.28" rx="11.78" ry="16.93" transform="translate(-44.99 83.23) rotate(-10.64)"/><ellipse class="cls-3" cx="397.93" cy="258.79" rx="3.03" ry="4.37" transform="translate(-39.77 75.11) rotate(-10.27)"/><path class="cls-3" d="M400.84,258.24c.2,1.46.1,3.29-1.16,4.31-2.25,1.82-4.27-1.28-4.63-3.21-.28-1.54-.07-3.63,1.45-4.48,2.31-1.28,3.91,1.54,4.33,3.4,0,.09.17.1.15,0-.38-1.69-1.57-4.06-3.66-3.85-2.26.22-2.77,3.13-2.44,4.93s1.51,3.89,3.48,3.88c2.44,0,2.88-3.12,2.63-4.94C401,258.19,400.82,258.13,400.84,258.24Z"/><path d="M457.66,116.32c2.29,6.41,2.55,13.49,3.22,20.3.23,2.3-1.18,4.72-1.88,7.23a52.55,52.55,0,0,0-6.65-2.12c-3.47-.6-6.59,1.33-6.82,3.88a3.91,3.91,0,0,0,.36,2,24.87,24.87,0,0,1,6.88.49,56.82,56.82,0,0,1,5.55,1.5c.64-.14,1.28-.28,2-.4l.48,1.24c1.54.55,3.07,1.14,4.58,1.77a4.86,4.86,0,0,0-.88-2.2c-3-3.65-2-6.66,1-10l2.3,13.27c2.39,1,4.77,2.14,7.14,3.21l5.67-1.89.75,4.66q1.46.59,2.93,1.13c-.24-1.49-.46-3-.7-4.47-7.22-43.22-23.87-82.48-57-114.84-11.72-11.46-24.37-21.56-40.89-26.19-22.08-6.19-44.21-9.09-67.36-4.76C287.21,15.88,258.15,25.16,233,43.47,219.11,53.54,205.85,64,198.57,79.38c-16.07,33.85-21.71,68.91-16.1,105.19l.3-.22a42.24,42.24,0,0,1,9.67-4.65,13.79,13.79,0,0,1,2.14-1.63,21.47,21.47,0,0,1,3.08-6.25,14.35,14.35,0,0,1-2.93-8.48,159.11,159.11,0,0,1,6.86-46.25c6.11-20.33,17.08-37.3,35.84-49.91A191.18,191.18,0,0,1,305,38.4c19.14-4.07,38.33-7,58.28-3.62,17.43,2.94,33.91,7.31,47.52,18.57C431.89,70.83,448.7,91.17,457.66,116.32Z"/><path d="M83.64,201.56c1.54.68,2.6.86,3.22,1.48a15.94,15.94,0,0,1,1.94,3c-1.19.51-2.47,1.58-3.57,1.42-3.88-.57-7.71-1.54-11.55-2.38-20.13-4.41-40.27-8.76-60.36-13.36-1.64-.37-2.88-2.44-4.31-3.72,1.92-.56,4-1.93,5.73-1.55,13.07,2.83,26,6.13,39.08,9C63.94,197.74,74.16,199.65,83.64,201.56Z"/><path d="M583.58,153.26c-1-.49-3-.93-3.27-1.82a4.31,4.31,0,0,1,1.78-3.69,39.28,39.28,0,0,1,7.48-2.84q24.55-7.75,49.12-15.43c1.05-.33,2.15-1,3.14-.91a29,29,0,0,1,4.92,1.46c-1,1.32-1.84,3.4-3.18,3.85C623.84,140.39,604,146.69,583.58,153.26Z"/><path d="M96,252.39a39,39,0,0,1-3.23,2.18C74.28,264.48,54.64,270.09,33.56,270c-1.77,0-3.54-1.54-5.31-2.36,1.82-1,3.65-3,5.44-3,15.58.33,30.27-3.57,44.65-8.92,4.41-1.64,8.52-4.07,12.88-5.87,1.08-.45,2.64,0,3.87.33C95.54,250.33,95.66,251.5,96,252.39Z"/><path d="M53.48,133c12.2,7.46,24.15,14.76,36.08,22.08a27.88,27.88,0,0,1,5,3.47c.94.92,1.21,2.51,1.78,3.8-1.42.33-2.9,1.06-4.24.86s-2.44-1.35-3.67-2.06L52.19,140c-.41-.24-1-.3-1.25-.64-1.11-1.44-2.12-3-3.17-4.44Z"/><path d="M562.31,97.8c-.73-.37-2-.62-2.47-1.37a3.32,3.32,0,0,1,.3-2.93,15,15,0,0,1,3.16-2.79q17.64-13.84,35.31-27.64c1-.77,2-1.83,3.14-2s2.51.62,3.78,1c-.33,1.11-.3,2.66-1,3.25C591,76,577.47,86.47,563.93,97A11,11,0,0,1,562.31,97.8Z"/><path d="M620.12,290.09c-1.8,1.06-3.45,2.79-4.54,2.5-2.17-.58-4.11-2.18-6-3.55-9.78-7.08-19.57-14.17-29.21-21.44-1-.78-1.18-2.74-1.74-4.16,1.52-.23,3.44-1.17,4.5-.57a150.06,150.06,0,0,1,15.15,9.5c6.59,4.83,12.86,10.1,19.25,15.2C618.12,288,618.63,288.63,620.12,290.09Z"/><path d="M612,210.49c8-.9,15.93-2,23.93-2.55,1.83-.12,5.33,1.67,5.4,2.76.21,3.27-2.85,2.61-5.19,2.94-9.81,1.38-19.58,3.11-29.4,4.47-1.7.24-3.56-.67-5.34-1,1.25-1.51,2.22-3.55,3.82-4.39,2-1.07,4.54-1.16,6.85-1.68Z"/><path d="M121.71,300.84c-1,1.5-1.66,2.42-2.32,3.31-6.19,8.37-12.35,16.75-18.6,25.07A26,26,0,0,1,96.25,334c-.76.6-2.23.3-3.37.41,0-1.26-.65-2.94-.06-3.73q11.6-15.53,23.57-30.78c.78-1,2.57-1.44,3.94-1.58C120.75,298.29,121.35,300.15,121.71,300.84Z"/><path d="M502.6,125.9a134,134,0,0,1-15.45-3.36,6.75,6.75,0,0,1-3.62-2.42l-1.34-2c-.69.21-1.38.38-2.08.55l1.55,2.26c-3.9-.65-7.05.79-10-1-2.73.21-5.5.26-8.29.27,3,.23,5.62,1.14,7.49,4.2,3.54,5.77,7,11.6,10.18,17.6,2.46,4.68,4.37,9.67,6.53,14.53l.38-.13c11,28.41,22.09,56.8,33,85.25a64.06,64.06,0,0,1,3.4,13.08,10.92,10.92,0,0,1-1.36,6.71c-5.74,9.54-14.68,14.45-23.79,19-3.28,1.65-6.21-.23-8.79-3.35a132.71,132.71,0,0,1-20.24-33.09c-7.92-18.71-15.57-37.54-23.15-56.38-4.12-10.26-8.55-20.51-11.62-31-4.89-16.77-1.94-25.08,9.89-31,4.71-2.36,9.41-5,14.9-5.4-4.66,0-9.33-.05-13.95.35a11.83,11.83,0,0,1-1.11.64c-6.8,3.35-14,6.83-14.63,16.93-.36,5.64-.34,11.77,1.12,17.39,2.3,8.84,5.79,17.5,9.1,26.12,5,12.89,10,25.77,15.37,38.47s11,25.71,17.44,38c4.09,7.83,9.69,14.86,15,21.93,3.74,5,8.49,6.35,13.12,3.92,8.8-4.61,17.45-9.47,23.48-18.35.89-1.31,2.41-2,3.7-2.92,2.21-1.54,5.16-2.37,6.59-4.6,10.11-15.85,15.69-33.68,8.28-55.65q-9.8-29.07-20.92-57.75C518.94,134.89,512.78,127.21,502.6,125.9Z"/><path class="cls-1" d="M480.41,144.5c-3.15-6-6.65-13.58-10.18-19.35-1.88-3.06-4.46-6-7.49-6h-3.19c-5.5,0-10.19,4.79-14.9,7.15-11.83,5.94-14.78,15.12-9.89,31.89,3.07,10.52,7.5,21.21,11.62,31.47,7.58,18.85,15.22,37.89,23.15,56.6a133.36,133.36,0,0,0,20.24,33.2c2.59,3.12,5.51,5.05,8.79,3.4,9.11-4.58,18.06-9.46,23.79-19a10.88,10.88,0,0,0,1.36-6.69,64,64,0,0,0-3.4-13.08c-10.9-28.45-22-56.84-33-85.25l-.38.13C484.79,154.17,482.87,149.18,480.41,144.5Zm-1.6,82.29c4.76,11.42,8.32,23.34,12.1,35.12.94,2.91.85,6.17.86,9.2,0,.82-1.4,1.41-2.15,2.1-.44-1-1.23-2-1.27-2.86a71.73,71.73,0,0,0-5.81-24.85c-6-14.44-11.38-29.13-17.85-43.35-8.79-19.32-18.35-38.28-27.57-57.4-.59-1.23-1.12-2.5-1.67-3.75l1.51-1c1.78,2.62,3.86,5.09,5.29,7.9,4.66,9.19,9.23,18.45,13.55,27.81C463.62,192.69,471.64,209.57,478.81,226.78Z"/><path class="cls-1" d="M471.69,120c2.93,1.75,6.07.31,10,1l-1.55-2.26A52.58,52.58,0,0,1,471.69,120Z"/><path d="M144.75,363.07c7.55-8.73,11.07-19.16,9.68-30a9,9,0,0,1,1.52-6,13.61,13.61,0,0,0,1.71-3.29c2.25-7.06,4.13-14.22,6.18-21.33l.66-2.29a9.1,9.1,0,0,1,12.84-5.61c5.13,2.58,10.68,4,16.32,5.27,13.89,3.14,17.91.61,23.79-14.12,5.7-14.27,8.75-29,11-43.73,2.75-17.91,5.1-35.86,7.27-53.8a102,102,0,0,0,.76-20.45c-.87-10.34-4.69-18.85-15.39-20.86-5.33-1-10.77-1.61-16.19-2.25l-.3-.06c-3.79.61-5.28,1.13-9.08,2-.63.17-.1.34,0,.52-.18.11-3.12.26-3.54.38s-2.12.51-2.6.71c-1.25,5.25-4.52,8.17-10.27,10.36a13.75,13.75,0,0,1-3.5,1.68c-.1.07-4.45.15-4.55.22s-4.57.11-4.57.18v.78c0,1.29-.56,2.46-2.84,3.74-4.33,2.42-7.64,8.07-9.88,12.51a101.83,101.83,0,0,0-9.24,28.36c-2.53,14-5.28,28-7.51,42.1a24.14,24.14,0,0,0,5.31,19.35,44.91,44.91,0,0,0,9.55,9.43,9.08,9.08,0,0,1,3.87,10.05c-.5,1.69-.95,3.34-1.4,5-2.9,10.64-5.71,21.29-8.6,31.94-.43,1.6-.3,2.71.55,3.56,2.47,2.46,5.22,6.83,5.27,10.34.1,7.38-3.13,14.33-7.31,20.8-7.25,11.23-18.2,18-28.57,25.35-4.46,3.16-9,6.22-13.3,9.59,6.14-3.28,14.8-6.06,19.35-9.81C129.71,377.11,138,370.82,144.75,363.07Zm25.79-90.93c.84-10.95,2.51-21.92,3.77-32.88,1.42-12.32,2.57-24.66,4.25-37,1.31-9.57,3.11-19.14,5-28.68a114.1,114.1,0,0,1,3.73-13.7c3.49-10.62,5.25-10.16,15.07-11.42,5.77-.74,11.6,1,17.33,2,9.59,1.55,12.89,9.24,13.34,18.26.4,8-.58,16.37-1.53,24.57-1.58,13.69-3.63,27.37-5.45,41.06-2.34,17.58-5.55,35-12.48,51.88-.16.39-.34.77-.52,1.16-4.63,10.06-6.53,11.27-16.24,9.08-6.73-1.52-13.29-3.58-19.93-5.4l.58-1.05C168.88,287.25,170,279.26,170.55,272.14Z"/><path d="M96.28,403.55a5,5,0,0,1-.53-3.85,9,9,0,0,0,1,11.68l12.34,11.71A151.19,151.19,0,0,1,96.28,403.55Z"/><path d="M177.22,490.58c.73-.28,1.48-.48,2.23-.71l-70.36-66.78C128.52,448.63,157.13,473.9,177.22,490.58Z"/><path class="cls-1" d="M178.85,277.36c-8.42-2.61-7.2-10.6-6.57-17.72,1-10.94,2.76-21.91,4.14-32.87,1.56-12.32,2.85-24.65,4.66-37,1.41-9.58,3.31-19.15,5.27-28.7a117.45,117.45,0,0,1,3.85-13.73c3.58-10.64,5.3-10.21,15-11.6,5.69-.82,11.41.88,17,1.72,9.43,1.42,12.57,9.06,12.89,18.06.29,8-.79,16.35-1.83,24.55-1.73,13.69-3.93,27.37-5.9,41.06-2.53,17.58-5.92,35-13,52-.16.39-.34.78-.52,1.16-4.69,10.1-6.57,11.34-16.11,9.28-6.6-1.43-13-3.4-19.55-5.14ZM210.74,273c-.52-4-1.59-7.58-1.37-11.3a286.77,286.77,0,0,1,2.74-29.46c2.58-15.85,5.83-31.68,9.09-47.5,2.58-12.52,5.63-25,8.42-37.51a10.49,10.49,0,0,0-.1-2.73l-1.27-.18c-1,2.34-2.41,4.64-3,7-4.18,18.08-8.57,36.15-12.14,54.28-2.82,14.31-5,28.72-6.65,43.08-.84,7.27,0,14.55.28,21.78C206.85,272.55,207.7,274.49,210.74,273Z"/><path class="cls-1" d="M186.05,140.94l-.32.59c-.28.53-.62,1-.93,1.47a17,17,0,0,1-5.55,7.09c5.59-2.08,8.2-4.9,9.39-10A19.17,19.17,0,0,1,186.05,140.94Z"/><ellipse cx="264.85" cy="294.26" rx="4.31" ry="6.79" transform="matrix(0.97, -0.25, 0.25, 0.97, -65.79, 76.53)"/><ellipse cx="425.32" cy="289.89" rx="4.06" ry="6.15" transform="translate(-48.45 88.72) rotate(-11.27)"/></svg>