<svg id="Layer_1" data-name="Layer 1" xmlns="http://www.w3.org/2000/svg" viewBox="0 0 443.98 577.47"><defs><style>.cls-1{fill:#fff;}.cls-2{fill:#f8f8f8;stroke:#020202;stroke-width:0.64px;}.cls-10,.cls-12,.cls-2,.cls-6,.cls-7,.cls-9{stroke-miterlimit:10;}.cls-3{fill:#020202;}.cls-4{fill:#fafafa;}.cls-5{fill:none;}.cls-6,.cls-8{fill:#f6f6f6;}.cls-6{stroke:#fcfbfa;stroke-width:1.1px;}.cls-12,.cls-7{stroke:#fcfcfc;}.cls-7{stroke-width:0.1px;}.cls-9{stroke:#f7f7f7;stroke-width:0.47px;}.cls-10{fill:#e5e1e1;stroke:#000;stroke-width:0.91px;}.cls-11{fill:#393939;}.cls-12{stroke-width:0.1px;}</style></defs><title>justferret</title><path class="cls-1" d="M176.79,310.55l-4.39,4.15,1.76-3.83-4.41,1.36,3.68-9.87-.87-.62L169,305.35l-.44-.21,4.32-10.95-6.17,7.09-1.12-.83c2.28-3.16,4.45-6.41,6.92-9.42.49-.59,2.11-.25,3.28-.35.61-.87-1.36-3.85,2.07-2.66l-.09-.08,2.16,2.47-.39,2.34-.74-.47-2.35,4c2.2,1.57-.27,3.19.22,5l1.9-2.32.42.15-2,6.21,2.76-1.32-3.22,6.58Z"/><path class="cls-1" d="M176.79,310.55l-.23.06c2.74.88,2.79,1.09.93,5l2.48-.15A8.93,8.93,0,0,1,179,318c-2.22,2.7-4.55,5.3-6.84,7.94l-.76-.45Z"/><path class="cls-1" d="M170.58,256.06l-6.3,7.32C164.46,260.37,168,256.28,170.58,256.06Z"/><path class="cls-1" d="M171,264.69l-3.11,4.59-2.75.44-.72-.58,6.17-4.77Z"/><path class="cls-1" d="M180.88,337.81l-4.5,8.11C175.9,343.61,177.37,340.63,180.88,337.81Z"/><path d="M172.32,284.17l1.86-4.29-3.27-1c-.9-3.13,1.88-4.18,3.35-6.05l.66.42-2.45,3.42,7.12-3-6.93,10.64Z"/><path d="M305,317.69c-3.07,0-6.52.22-8.22-3.64-.12-.28-.64-.48-1-.55-3.35-.66-6.7-1.28-10.06-1.92l.35-.41c-1.34-.77-2.6-1.92-4-2.24-4.83-1.09-7-3.5-7.06-8.43a5.25,5.25,0,0,0-.41-2c-1.22-2.67.92-4.43,1.65-6.58a18.56,18.56,0,0,0,1.4-5.53,70.63,70.63,0,0,0-.85-8.51c-.47-4.11-.81-8.23-1.45-12.31-1.14-7.33-2.42-14.64-3.73-21.95-.7-3.94-1.47-7.87-2.41-11.75-1-4.28-2.3-8.5-3.45-12.76-.91-3.36-1.52-6.82-2.74-10.06-2.66-7-4.92-13.81-4-21.81,1.47-12.9,1.45-26,2.09-39,.08-1.67.59-3.37.41-5-.41-3.74-1.15-7.44-1.69-11.17-.91-6.28-.75-12.38,2.82-18,1.13-1.77,2.44-3.88,2.44-5.83a91.73,91.73,0,0,0-1.32-13.56,5.32,5.32,0,0,1,1.09-4.61c2-2.49,3.31-5.11,3-8.65-1.14-12.08-6.87-22-14.07-31.28-2.27-2.93-6.16-3-8.91-.44a32.1,32.1,0,0,0-4,4.75c-2.74,3.82-6.61,4.26-10.83,3.92a56.65,56.65,0,0,0-6.29-.31c-2,.06-4,.57-6,.66s-3.87-.26-5.79-.15a35.79,35.79,0,0,0-4.62.84,40.5,40.5,0,0,1-5,.88c-2.07.12-4.41.51-6.18-.25-3.52-1.51-6.73-3.75-10.09-5.67-6.87-3.93-9.59-2-13,3.88a4.33,4.33,0,0,0-.37.81c-2.39,7.34-4.6,14.74-7.23,22a10.52,10.52,0,0,0,2.37,11.29c2.14,2.36,1.72,4.34,1.21,7-.59,3.05-1.39,6.68-.29,9.29,1.8,4.29,2.57,9.1,6,12.82,1.39,1.49,1,4.62,1.45,7q1.21,6.84,2.39,13.68a2.46,2.46,0,0,1-.06,1.46c-2,3.67-.89,7.57-.85,11.38,0,1.34,1,2.81.68,4-1.55,5.82-3.39,11.57-5.14,17.34-.34,1.13-.68,2.27-1.12,3.36-1,2.46-1.76,5.07-3.17,7.27a3,3,0,0,1-2,1.38,30.76,30.76,0,0,1-4,3.78,8.61,8.61,0,0,1-.43.8,9.91,9.91,0,0,1-2.22,2.51l.87.36-5,5.67,1.63,1.85c-3.54,5.23-10.25,7.44-13.23,13.78l2.23-.6a14.63,14.63,0,0,1-.87,1.49c-1.43,1.83-4.36,3-2.61,6.23.16.29-.58,1.18-1,1.68-1,1.13-2.8,1.65-2,4,.21.61-2,2.05-3.22,3.19l2.22.17-4.47,6.49c3,1,1.93,2.48,1.14,4.42-1.74,4.31-3.12,8.78-4.55,13.21-.12.36.52.92.73,1.43.92,2.2,1.74,4.38-.4,6.44a18.7,18.7,0,0,0-1.89,2.6c4,1.26,4.39,2,3.66,6a5.68,5.68,0,0,0,1.46,5.25c1.75,1.92,3.18,4.29,1.76,7.17a2.61,2.61,0,0,0-.36,1.12c0,1.09.64,2.68.13,3.19l-.42.41c.28.45.55.91.8,1.38l2.54-2.79.85.27c-.37,1.31-.31,3.18-1.18,3.85l-1.22.93c.74,2,1.58,3.93,2.46,5.86l.13-.18,1.22,1.06L141,302l.5,1.11c1.35,3,2.1,6.19,4.52,8.55a4.73,4.73,0,0,1,1.45,2.68l.19,0c1,.3,1.42,2.16,2.3,3.66a9.44,9.44,0,0,1,1.87,1.09c.2.17-.09,1.41-.24,1.43a23.1,23.1,0,0,1-2.67-.06c-1.46,0-2.92,0-4.38,0-.47,0-.93.06-1.46.11a21.22,21.22,0,0,1,.4,2.89,3.73,3.73,0,0,1-.09,1l4.4-.95c-1.09-.39-1.56-.78-2.38-1.07,9.45-.11,9.45-.06,11,1.94h-13.1a4.76,4.76,0,0,1-1.15,2.27c2.6-.39,5.2-.66,7.8-1l.16,1-10.41,1.81a7.27,7.27,0,0,1-1.39,1.18c1.8,0,3.61,0,5.41,0l.07.17-9.66,1.22,0,.27,12.8,1.61-7.47,2.87a10.21,10.21,0,0,0,5.3.14c3.9-1.05,7.73-2.38,11.6-3.56a12.47,12.47,0,0,1,2-.28c.06.21.11.59.17.8-3.11,1.45-6.23,2.52-9.31,4.52h6.35c.72,3-2.41,1.39-3.7,2.55,7-.66,13.51-.55,19.51,3.81v-2.69a65.92,65.92,0,0,0,6.31,3.55,4.07,4.07,0,0,0,1.82.64c6,0,11.94-.1,17.92-.23a4.88,4.88,0,0,0,2.84-.64c1.87-1.56,3.45-.61,5.29-.06a22.06,22.06,0,0,0,4.91.35l-.64-1.09,3.5-2.22c.08.11.25.53.55.69.89.47,1.83.83,2.76,1.24a18.74,18.74,0,0,1,.83-2.28c.45-.89.86-2.06,1.63-2.46a4,4,0,0,1,3,0c.82.34,1.36,1.35,2,2.07l.89-.06c.1-1.54.69-3.27.2-4.59-.79-2.14-2.49-3.93-3.43-6-1.55-3.49-2.58-7.26-6.81-8.86l.31-.66,4.24-1.53L218,321.79l4.49-2.21.32.5-1.29,1.85,4-1.38.21,3.46,5.63,1.43c-2.91,2.68-2,5.13.19,7.9l2.68-3,.51.27-3.14,4.86.4.21,2.51-2c-.09,1.73-.5,3.21-.17,4.49.91,3.47,2.14,6.86,3.24,10.27l2.78-3.48,1.93,8.48c.83-1.22,1.22-1.77,1.58-2.34,2.23-3.64,3.68-4.08,7.79-2.64.56.2,1.91-.25,2-.63.83-3.15,3.21-4.26,6-5.12.74-.23,1.35-1.14,1.85-1.85,2.17-3,4.36-6.08,6.37-9.24,1.74-2.74,3.89-5.46,4.68-8.49,1.15-4.43,1.24-9.14,1.79-13.72a34.45,34.45,0,0,1,3.47.8c3.52,1.18,6.21,5,10.65,3.26a1.09,1.09,0,0,1,.86.13c2.48,1.64,6.64.17,7.82,4.23.05.19.49.33.77.37,1.83.24,3.66.44,5.49.67A4.34,4.34,0,0,1,305,317.69ZM247.46,52.56c.53.18,1.06.45,1.58.63-.4,1.07-.8,2.25-1.18,3.25h5s-.06,1.19-.1,2c.92-.32,1.62-.61,2.18-.8.28.12.45.14.45.18-.18,3.47,3.14,4.74,4.78,6.91a26.85,26.85,0,0,1,5.69,16.41,44,44,0,0,1-.49,5l-1.07-.19-.13-2.25-5.7-.29c-1-1.43-2.06-2.92-3.15-4.35s-2.79-2.4-2.32-4.84-1.46-4-3.39-5.25c-1.32-.86-3-1.36-2.85-3.6,0-.43-1.46-1-2.63-1.73Zm-7.73,7.83,1,.24c-.12,1.27.14,2.75-.43,3.76-1.09,1.91-.13,3.17.6,4.75a34.61,34.61,0,0,1,1.54,5.07c-.66-.45-1.49-.81-1.84-1.43-1.17-2.08-2.78-4.22-3-6.45C237.4,64.43,238.95,62.38,239.73,60.39Zm-15.58,3.77c1.53,5.27.33,8.82-3.55,10.24l.57-3.23L220.6,71l-1.43,1.76-.2-.64-6.19,1.5-1.7-13.09C216.73,59.18,223.24,61,224.15,64.16ZM210.84,88.9a4.65,4.65,0,0,1,2.94-1.68c2.83-.26,5.69-.16,8.54-.19,2.42,0,4.52.31,5.4,3.14a15,15,0,0,0,2,3.32L226.22,92a27.27,27.27,0,0,1,1.44,3.12,24.28,24.28,0,0,1,1.48,5.9c.11,3.13-2,4.29-4.92,3.08-.72-.3-1.48-.5-2.75-.91,1.6,5.73-3.25,7.92-5.25,11.65l-1-.4,1.53-4.13-.37-.23L214.36,112l-3.08-1.63c1.1-1.66,1.54-3.26-1.2-4.52-1.22-.56-1.94-2.21-2.87-3.4h0C206.36,97.36,207.85,92.89,210.84,88.9ZM228,111.64l-1.19.35-3.68-2.69c1.73-.38,3.13-1.12,3.75-.71S227.67,110.58,228,111.64ZM166.56,80.58c1.57-4.27,2.85-8.66,4.58-12.86.82-2,2.4-3.68,3.65-5.51a15.21,15.21,0,0,1,2.21-3c1-.84,2.43-2,3.42-1.76,2,.43,2.72,2.29,3.23,4.33,1.6,6.41-3.7,10.35-5.05,16.19L176,75.22c-.4,1.4-.44,2.54-1,3.32-1.42,2-3.06,3.81-4.92,6.06l-.92-2.86c-3,4.35-.86,7.52,1.85,10.76C167.29,91,165.09,84.59,166.56,80.58Zm10.91,40.8a3.3,3.3,0,0,1-.48-2.71,3.08,3.08,0,0,0-1.11-4.41c-.28-.2-.74-.56-.7-.76.82-4.24-2.6-6.8-4-10.14-.79-1.87-.94-3.77.64-5.19,1.9-1.7,1.69-5.22,5-5.71.19,0,.45-1.15.3-1.65-1.25-4.32,1-7.53,3.2-10.83.88-1.35,1.6-2.8,2.4-4.21l.93.46-.37,1c3.49-.78,3.9-1,4.63-5.51.42-2.62.08-5.36.08-8.5l-1.47-.92,5.11-2.6,3.24,3.82-4.38,5.06.23.25,3-2.38.41.41L192.4,69.2,195,67.59c-.79,7-1.23,13.53-6.24,18.66a43.73,43.73,0,0,0-4.65,6c-1.34,2-1.24,2-3.62,1.19a15.31,15.31,0,0,1-.18,2.94c-.19.73-.68,1.87-1.18,1.94-2.34.37-2.19,1.67-1.41,3.21,1.34,2.63,2.77,5.2,4.52,8.47l-3.92-3.21c.83,3.48,15.64,15.68,19.23,16,2.89-7.47-.64-17,8.11-23,.86,0-1,3.27,1.4,2.6l-1.47,2.36a2.23,2.23,0,0,1,2.92,2.49c-.12,1-.51,1.9-.67,2.86-.64,3.69.15,4.84,3.51,6.49a12.34,12.34,0,0,1,4,3.24,6.17,6.17,0,0,0,9.41,0,14.14,14.14,0,0,1,4.22-3.79c2.82-1.53,4.39-3.38,3-6.15-1.74-3.43-.43-5.93,1-8.74,5.33,4.6,6.86,10.64,6.59,17.56l2.38-.47-.76,1.85.41.36c2.43-2,5-3.75,7.26-5.9,2.7-2.57,5.12-5.44,7.7-8.22l-3.87,1,6.54-9.49-2.94-6-4.05,1c.54-1.12,1.26-2,1.26-2.86,0-.41-1.37-.82-2.11-1.23l-5.06-7.59-.69.48.51-3.11c-3.6-.11-4.4-1.12-3.64-4.25.68,0,1.52-.18,2,.15,2.18,1.56,4.3,1.61,6.06-.83.23.1-.13.19.87.29v7.94l.83,0c0-.92,0-1.85.05-2.77l.6-.1c.5,2.08.63,4.33,1.56,6.2s2.63,3.41,4.33,5.5l3.05-3.43c-.1,3.35-.1,3.35-1.67,3.09.15,1.7.33,3.33.41,5a14.87,14.87,0,0,1-.08,3.22c-.45,2.64-1.2,5.24-1.42,7.89-.06.73,1.28,1.57,2,2.39-.28,1.21-.56,2.71-1,4.16-.22.73-.68,1.93-1.13,2-4.12.43-5.18,4.37-7.78,6.51-.43.36-1.22,1-1.35.89-2.37-1.9-3.16.52-4.21,1.62-8.51,8.95-19.19,11.49-31,10.58-1.77-.14-3.47-1.07-5.23-1.54-6.12-1.64-12.26-3.2-18.36-4.89-.88-.24-1.58-1.39-2.42-1.48-1.29-.14-2.74-2.47-4,.06a35.17,35.17,0,0,1-4.14-2.29A12.54,12.54,0,0,1,177.48,121.38ZM167,230.69l-3.11,4.59-2.75.44-.72-.58,6.17-4.77Zm-.4-8.63-6.3,7.32C160.46,226.36,164,222.28,166.58,222.06Zm2,45.69L165,271.35l-.44-.21,4.32-10.95-6.17,7.09-1.12-.83c2.28-3.16,4.45-6.41,6.92-9.42.49-.59,2.11-.25,3.28-.35.6-.86-1.35-3.83,2-2.67l2.1,2.4-.39,2.34-.74-.47-2.35,4c2.2,1.57-.27,3.19.22,5l1.9-2.32.42.15-2,6.21,2.76-1.32-3.22,6.58.12,0-4.29,4,1.76-3.83-4.41,1.36,3.68-9.87Zm-.36,24.17-.76-.45,5.3-14.79c2.55.83,2.56,1.13.75,4.95l2.48-.15A8.93,8.93,0,0,1,175,284C172.82,286.67,170.49,289.28,168.2,291.92Zm4.18,20c-.48-2.3,1-5.29,4.5-8.11Zm2.73-8.67c-5.1-3.3-1.38-6.29-1.18-9.45-.74.79-1.47,1.63-2.21,2.42,1.66-4.76,2.5-10.08,6.73-13.51-.84,3.92-1.67,7.74-2.55,11.74h3.47A84.45,84.45,0,0,1,175.11,303.24Zm12.82,33c.24-4.16,1.63-5.94,4.78-5.49Zm6.54-15.71a19.63,19.63,0,0,0-1.44,3.78L189.36,323l1.46-4c-3.09,2.22-6.26,4.36-9.24,6.72-1.09.86-1.76,2.25-2.93,3.81.78-4.93,4.36-6.91,7.67-9.53l-1.56-.14c1.3-2.45,4.83-2.94,6.14-.89,3.13-1.11,5.64-4.14,9.4-3.29l.27,1c-1,.17-2.29,0-3.05.58A11.77,11.77,0,0,0,194.48,320.49ZM194,297.17a33.91,33.91,0,0,1,3.37-1.59c2.68-1,5.39-1.9,8.1-2.79,3.67-1.2,7.4-.84,11.18-.8,2.15,0,4.4-2,6.46-3.29,2.21-1.41,4.2-4.25,6.4-4.37,3.77-.2,5.75-2.86,8.69-4.27l4.88,18.83c-5.44,0-10.5-.22-15.52,0-9.76.52-18.61,4-27.47,8-3.7,1.67-8.67.93-13,.51-1.23-.12-2.2-3-3.57-5Zm-1.54-18.9-4.94,7.7C186.9,282.11,188.42,279.74,192.46,278.27Zm6.24,10.88c1.51-2.71,3.09-5.39,7-6.15Zm7.4,20.4L198.25,313C200.29,310.37,202.76,308.86,206.09,309.55ZM198.41,339v-4.58c2,1,3.24,1.85,4.65,2.71,0,.35-.06.71,0,1.06C201.53,338.45,200.41,338.71,198.41,339Zm46-33.66a24.71,24.71,0,0,1-3,3.59c-.67.64-1.83,1.52-2.46,1.32-3-.94-5.18.75-7.48,2.1l3.91-1.39.38,1-14,7.1-.36-.56,3.43-5.07L214.36,320c-2.27-6.46-8-5.73-13-6.55,2.26-.85,4.51-1.72,6.77-2.54.44-.16,1.15-.35,1.41-.14,1.81,1.53,2.93.69,4-.91.27-.39,1-.47,1.47-1.28l-8.82,1h0L203.06,308c2.83-1.39,5-2.7,7.43-3.59s5.14-1.34,7.64-2.19c8.26-2.8,16.67-1.37,25-.93a3,3,0,0,1,2,1.77C245.39,303.63,244.85,304.67,244.39,305.32Zm10.31-49,2,5.83C254.3,261.69,253.86,260.54,254.7,256.31Zm1.12-17.42,1.17-.14.57,6.41C255.34,243.36,255.34,241.17,255.82,238.89Zm1.4,51-2-.22,1.15-5.53,1.27.15Zm.9-146c1.3,3.32-2.94,5.36-1.82,8.63l-2.53-4.35-.28.14c.68,2.73,1.26,5.5,2.08,8.19.25.83-.07,2.26,2,2.13,1.14-.07.88,3.24-.43,4.18-1.1.79-2.08,1.75-3.54,3l-3.85-1.53c2.18,4.91,1.28,10.68,5.94,14.33l-3.77-11,.68-.31,3.59,6.72-.44-4.22,1-.14a49.63,49.63,0,0,1,1,6.57,57.37,57.37,0,0,1-.63,7.26c-1.1,10.16-2.38,20.3-3.22,30.48-.21,2.5,1.17,5.09,1.49,7.67.37,3,1.34,5.92.36,9a40.27,40.27,0,0,0-1,6.41l-1.1-.1.67-14.21-.89-.07c-.18,3.13-.37,6.26-.54,9.39-.19,3.56.62,7.61-.84,10.52a7.89,7.89,0,0,0-1,5.5c0,.26-1.34.77-2.18,1.22.57,3.34.67,6.8-2.32,10.53.3-1.9.36-3,.54-4.09-.75.21-1.61.41-2.61.71v7.92h-1v-4c-2,1.79-2.05,1.77-1.63,5.16.22,1.8-.41,3.71-.69,5.57l-1.29,0c-.22-2.46-.43-4.92-.65-7.38l-.45-.22a26.28,26.28,0,0,0-1,3.53,26.42,26.42,0,0,0,0,3.67l-1.08-.06,1.33-12.78c-1.32,4.34-2,8.71-3.94,12.34s-5.22,6.23-7.91,9.3l-1-.6,1.78-4.7-.76-2.91a44.07,44.07,0,0,1-2.77,4.66c-.16.22-1.67-.54-3.05-1-1.31,1.3-1.2,4.68-5,5-2.28.21-4.39,2.36-7.12,4,1.53-5.59,6.21-6.2,9.73-8.21l-.48-.76-14.62,7.37.62-2.13-2.64,1.85,2.42-5L195,281.29l-.49-.63,1.31-2.46-1.5-.51,1.73-2.81-6.73,3.4-.58-.82,4.6-7.19-.39-.4c-.43.24-.86.47-1.29.71a25,25,0,0,1-4.95,2.76c-.58.18-1.72-1.43-2.66-2.27L180.77,279l-.9,0c1.3-3.7-3.72-6.94,0-10.85a1.23,1.23,0,0,0,0-1.09c-2.36-1-.53-2.4-.13-3.18,1.18-2.26,3-3.48,5.52-2-1.51-2-2.64-1.77-6.56,1.1-1.23-1.61-1.18-1.54.87-3.32a8.55,8.55,0,0,0,2.57-3.86l-3,2.61-.33-.31,2.4-3.37-.24-.21-3.78,3.12-.5-.31,3.52-6.75c-2.4,1-3.22,4.62-6.3,3.34.67-1.27,1.43-2.51,2-3.84a8.94,8.94,0,0,0,.29-2.41l-2.94-.26c-3.39,4.82-6.75,9.51-13.16,12l8.37-11.59-.85-.76-4.33,5.8-1.1-1,3.76-4.76-.28-.34-2.81,2.43c-2-1.63-1.49-3.15,0-4.6,3.2-3.15,6-6.81,10.52-8.31a5.7,5.7,0,0,0,2.48-2.43l-3.69,2-.63-.77,7.19-9.23-.79-.73L167,236.08c-1.57-4.58,3.82-6.11,4.85-9.93s4-6.84,5.7-9.45c-1.59,1.49-3.79,3.67-6.14,5.68a11.82,11.82,0,0,1-2.93,1.36,11.56,11.56,0,0,1,.83-3c.91-1.53,2.15-2.85,3.15-4.32,1.5-2.21,2.91-4.48,4.35-6.73l-1-.64a28.3,28.3,0,0,1-2,3.67,48,48,0,0,1-3.41,3.74l-.73-.63,2.89-5.46-.62-.55L168.54,211l3.64-5.22c-1.32-.85-1.23-1,3.79-7l-2.62.75,2.49-8.3-2.17,2-.41-.23c2.78-4.9,5.2-10.06,8.45-14.62s7.32-8.53,11-12.76l-.64-.59-6.68,7.19-.7-.63L189,166.2l-1.54-.18,1.47-3-5.78,3.63-.24-.25,5.38-5.73-1.85.23-1-7.82-2.12,1.3-.74-.3,2.64-12.3-1.82,1.06.79-5.87c2.79-1.09.65-4.11.94-6.88a6.4,6.4,0,0,1,2.39-.3c6.93,1.87,14.29,1.8,20.83,5.6,4.66,2.71,10.27,2.07,15.45,1.57,5.78-.55,11.54-1.68,16.22-5.7a65.55,65.55,0,0,1,7-5.44c1.07-.69,2.67-.58,3.83-.79.58,1.79,1.32,3.3,1.82,4.82.15,0-.29-.08.71-.12v-4.32c3,4.67,4.48,9.82,6.15,14.69-.23.1-.59.2-.82.31-.84-1.92-1.74-3.83-2.58-5.75l-.88.3C256.21,137.91,257,141,258.12,143.86Z"/><path class="cls-1" d="M185.43,262.14c-1.59-2.22-2.66-2.08-6.72.89-1.23-1.61-1.18-1.54.87-3.32a8.55,8.55,0,0,0,2.57-3.86l-3,2.61-.33-.31,2.4-3.37-.24-.21-3.78,3.12-.5-.31,3.52-6.75c-2.43,1-3.23,4.71-6.41,3.3l.08.08c.68-1.29,1.45-2.54,2-3.88a8.94,8.94,0,0,0,.29-2.41l-2.94-.26c-3.39,4.82-6.75,9.51-13.16,12l8.37-11.59-.85-.76-4.33,5.8-1.1-1,3.76-4.76-.28-.34-2.81,2.43c-2-1.63-1.49-3.15,0-4.6,3.2-3.15,6-6.81,10.52-8.31a5.7,5.7,0,0,0,2.48-2.43l-3.69,2-.63-.77,7.19-9.23-.79-.73L167,236.08c-1.57-4.58,3.82-6.11,4.85-9.93s4-6.84,5.7-9.45c-1.59,1.49-3.79,3.67-6.14,5.68a11.82,11.82,0,0,1-2.93,1.36,11.56,11.56,0,0,1,.83-3c.91-1.53,2.15-2.85,3.15-4.32,1.5-2.21,2.91-4.48,4.35-6.73l-1-.64a28.3,28.3,0,0,1-2,3.67,48,48,0,0,1-3.41,3.74l-.73-.63,2.89-5.46-.62-.55L168.54,211l3.64-5.22c-1.32-.85-1.23-1,3.79-7l-2.62.75,2.49-8.3-2.17,2-.41-.23c2.78-4.9,5.2-10.06,8.45-14.62s7.32-8.53,11-12.76l-.64-.59-6.68,7.19-.7-.63L189,166.2l-1.54-.18,1.47-3-5.78,3.63-.24-.25,5.38-5.73-1.85.23-1-7.82-2.12,1.3-.74-.3,2.64-12.3-1.82,1.06.79-5.87c2.79-1.09.65-4.11.94-6.88a6.4,6.4,0,0,1,2.39-.3c6.93,1.87,14.29,1.8,20.83,5.6,4.66,2.71,10.27,2.07,15.45,1.57,5.78-.55,11.54-1.68,16.22-5.7a65.55,65.55,0,0,1,7-5.44c1.07-.69,2.67-.58,3.83-.79.58,1.79,1.32,3.3,1.82,4.82.15,0-.29-.08.71-.12v-4.32c3,4.67,4.48,9.82,6.15,14.69-.23.1-.59.2-.82.31-.84-1.92-1.74-3.83-2.58-5.75l-.88.3c.95,3,1.72,6,2.87,8.93,1.3,3.32-2.95,5.36-1.83,8.63l-2.53-4.35-.28.14c.68,2.73,1.26,5.5,2.08,8.19.25.83-.07,2.26,2,2.13,1.14-.07.87,3.24-.44,4.18-1.1.79-2.08,1.75-3.54,3l-3.85-1.53c2.18,4.91,1.28,10.68,5.94,14.33l-3.77-11,.68-.31,3.59,6.72-.44-4.22,1-.14a49.64,49.64,0,0,1,1,6.57,57.39,57.39,0,0,1-.63,7.26c-1.1,10.16-2.38,20.3-3.22,30.48-.21,2.5,1.17,5.09,1.49,7.67.37,3,1.34,5.92.36,9a40.27,40.27,0,0,0-1,6.41l-1.1-.1.67-14.21-.89-.07c-.18,3.13-.37,6.26-.54,9.39-.19,3.56.62,7.61-.84,10.52a7.89,7.89,0,0,0-1,5.5c0,.26-1.34.77-2.18,1.22.57,3.34.67,6.8-2.32,10.53.3-1.9.36-3,.54-4.09-.75.21-1.61.41-2.61.71v7.92h-1v-4c-2,1.79-2.05,1.77-1.63,5.16.22,1.8-.41,3.71-.69,5.57l-1.29,0c-.22-2.46-.43-4.92-.65-7.38l-.45-.22a26.27,26.27,0,0,0-1,3.53,26.42,26.42,0,0,0,0,3.67l-1.08-.06,1.33-12.78c-1.32,4.34-2,8.71-3.94,12.34s-5.22,6.23-7.91,9.3l-1-.6,1.78-4.7-.76-2.91a44.08,44.08,0,0,1-2.77,4.66c-.16.22-1.67-.54-3.05-1-1.31,1.3-1.2,4.68-5,5-2.28.21-4.39,2.36-7.12,4,1.53-5.59,6.21-6.2,9.73-8.21l-.48-.76-14.62,7.37.62-2.13-2.64,1.85,2.42-5L195,281.29l-.49-.63,1.31-2.46-1.5-.51,1.73-2.81-6.73,3.4-.58-.82,4.6-7.19-.39-.4c-.43.24-.86.47-1.29.71a25,25,0,0,1-4.95,2.76c-.58.18-1.72-1.43-2.66-2.27L180.77,279l-.9,0c1.3-3.7-3.72-6.94,0-10.85a1.23,1.23,0,0,0,0-1.09c-2.36-1-.53-2.4-.13-3.18,1.22-2.34,3.1-3.56,5.75-1.83-3.84,2.64-4.13,7-5.44,10.8l.73.42,5.38-11Zm-17.1-12,.33.12,6.93-10.64-7.12,3,2.45-3.42-.66-.42c-1.47,1.87-4.25,2.92-3.35,6.05l3.27,1Z"/><path class="cls-1" d="M242.44,74.38c.69,0,1.56-.18,2,.15,2.18,1.56,4.3,1.61,6.06-.83.23.1-.13.19.87.29v7.94l.83,0c0-.92,0-1.85.05-2.77l.6-.1c.5,2.08.63,4.33,1.56,6.2s2.63,3.41,4.33,5.5l3.05-3.43c-.1,3.35-.1,3.35-1.67,3.09.15,1.7.33,3.33.41,5a14.87,14.87,0,0,1-.08,3.22c-.45,2.64-1.2,5.24-1.42,7.89-.06.73,1.28,1.57,2,2.39-.28,1.21-.56,2.71-1,4.16-.22.73-.68,1.93-1.13,2-4.12.43-5.18,4.37-7.78,6.51-.43.36-1.22,1-1.35.89-2.37-1.9-3.16.52-4.21,1.62-8.51,8.95-19.19,11.49-31,10.58-1.77-.14-3.47-1.07-5.23-1.54-6.12-1.64-12.26-3.2-18.36-4.89-.88-.24-1.58-1.39-2.42-1.48-1.29-.14-2.74-2.47-4,.06a35.17,35.17,0,0,1-4.14-2.29,12.54,12.54,0,0,1-3-3.05,3.3,3.3,0,0,1-.48-2.71,3.08,3.08,0,0,0-1.11-4.41c-.28-.2-.74-.56-.7-.76.82-4.24-2.6-6.8-4-10.14-.79-1.87-.94-3.77.64-5.19,1.9-1.7,1.69-5.22,5-5.71.19,0,.45-1.15.3-1.65-1.25-4.32,1-7.53,3.2-10.83.88-1.35,1.6-2.8,2.4-4.21l.93.46-.37,1c3.49-.78,3.9-1,4.63-5.51.42-2.62.08-5.36.08-8.5l-1.47-.92,5.11-2.6,3.24,3.82-4.38,5.06.23.25,3-2.38.41.41L192.4,69.2,195,67.59c-.79,7-1.23,13.53-6.24,18.66a43.73,43.73,0,0,0-4.65,6c-1.34,2-1.24,2-3.62,1.19a15.31,15.31,0,0,1-.18,2.94c-.19.73-.68,1.87-1.18,1.94-2.34.37-2.19,1.67-1.41,3.21,1.34,2.63,2.77,5.2,4.52,8.47l-3.92-3.21c.83,3.48,15.64,15.68,19.23,16,2.89-7.47-.64-17,8.11-23,.88,0-1.06,3.41,1.54,2.57l-.07-.08-1.54,2.47a2.23,2.23,0,0,1,2.92,2.49c-.12,1-.51,1.9-.67,2.86-.64,3.69.15,4.84,3.51,6.49a12.34,12.34,0,0,1,4,3.24,6.17,6.17,0,0,0,9.41,0,14.14,14.14,0,0,1,4.22-3.79c2.82-1.53,4.39-3.38,3-6.15-1.74-3.43-.43-5.93,1-8.74,5.33,4.6,6.86,10.64,6.59,17.56l2.38-.47-.76,1.85.41.36c2.43-2,5-3.75,7.26-5.9,2.7-2.57,5.12-5.44,7.7-8.22l-3.87,1,6.54-9.49-2.94-6-4.05,1c.54-1.12,1.26-2,1.26-2.86,0-.41-1.37-.82-2.11-1.23l-5.06-7.59-.69.48.51-3.11c-3.63-.11-4.41-1.13-3.62-4.34Zm-5,50.7c-4.7,2.31-9.13.88-13.55-.66a7.67,7.67,0,0,0-7.32,1c-2.87,2-6,2.73-9.41.83a3.78,3.78,0,0,0,1.67,1.9c2.92,1.26,5.5.2,8.21-1a11.9,11.9,0,0,1,5.8-1.09,53.42,53.42,0,0,1,8.36,1.87C234,128.58,236,127.74,237.48,125.07Z"/><path class="cls-1" d="M207.21,102.42c-.85-5.06.64-9.53,3.63-13.52a4.65,4.65,0,0,1,2.94-1.68c2.83-.26,5.69-.16,8.54-.19,2.42,0,4.52.31,5.4,3.14a15,15,0,0,0,2,3.32L226.22,92a27.26,27.26,0,0,1,1.44,3.12,24.28,24.28,0,0,1,1.48,5.9c.11,3.13-2,4.29-4.92,3.08-.72-.3-1.48-.5-2.75-.91,1.6,5.73-3.25,7.92-5.25,11.65l-1-.4,1.53-4.13-.37-.23L214.36,112l-3.08-1.63c1.1-1.66,1.54-3.26-1.2-4.52-1.25-.57-2-2.29-2.93-3.49Zm5.41,4.67a41.79,41.79,0,0,1,3.79,2.06v-4.88c0-.12-.52-.24-.78-.37Z"/><path class="cls-1" d="M264.36,85.93l-.13-2.25-5.7-.29c-1-1.43-2.06-2.92-3.15-4.35s-2.79-2.4-2.32-4.84-1.46-4-3.39-5.25c-1.32-.86-3-1.36-2.85-3.6,0-.43-1.46-1-2.63-1.73l3.27-11.06c.53.18,1.06.45,1.58.63-.4,1.07-.8,2.25-1.18,3.25h5s-.06,1.19-.1,2c.92-.32,1.62-.61,2.18-.8.28.12.45.14.45.18-.18,3.47,3.14,4.74,4.78,6.91a26.85,26.85,0,0,1,5.69,16.41,44,44,0,0,1-.49,5Z"/><path class="cls-1" d="M178.6,77.92,176,75.22c-.4,1.4-.44,2.54-1,3.32-1.42,2-3.06,3.81-4.92,6.06l-.92-2.86c-3,4.35-.86,7.52,1.85,10.76-3.75-1.53-5.95-7.91-4.47-11.93,1.57-4.27,2.85-8.66,4.58-12.86.82-2,2.4-3.68,3.65-5.51a15.21,15.21,0,0,1,2.21-3c1-.84,2.43-2,3.42-1.76,2,.43,2.72,2.29,3.23,4.33C185.25,68.14,180,72.08,178.6,77.92Z"/><path class="cls-1" d="M220.6,74.41l.57-3.23L220.6,71l-1.43,1.76-.2-.64-6.19,1.5-1.7-13.09c5.65-1.37,12.16.48,13.07,3.62C225.68,69.43,224.48,73,220.6,74.41Z"/><path class="cls-1" d="M242.51,74.29c-.67-.49-1.59-.85-2-1.51-1.17-2.08-2.78-4.22-3-6.45-.17-1.9,1.37-4,2.16-5.94l1,.24c-.12,1.27.14,2.75-.43,3.76-1.09,1.91-.13,3.17.6,4.75a37.55,37.55,0,0,1,1.58,5.23Z"/><path class="cls-1" d="M226.83,112l-3.68-2.69c1.73-.38,3.13-1.12,3.75-.71s.77,2,1.11,3.05Z"/><path d="M237.48,125.07c-1.45,2.66-3.51,3.51-6.25,2.8a53.42,53.42,0,0,0-8.36-1.87,11.9,11.9,0,0,0-5.8,1.09c-2.71,1.25-5.29,2.3-8.21,1a3.78,3.78,0,0,1-1.67-1.9c3.45,1.9,6.54,1.14,9.41-.83a7.67,7.67,0,0,1,7.32-1C228.34,126,232.78,127.38,237.48,125.07Z"/><path d="M212.62,107.09l3-3.18c.25.12.78.24.78.37v4.88A41.79,41.79,0,0,0,212.62,107.09Z"/><ellipse class="cls-2" cx="195.39" cy="94.01" rx="3.29" ry="4.73" transform="translate(-11.8 30.09) rotate(-8.55)"/><ellipse class="cls-3" cx="233.69" cy="87.75" rx="2.14" ry="2.61" transform="translate(-11.87 42.91) rotate(-10.23)"/><ellipse class="cls-2" cx="240.37" cy="92.47" rx="3.29" ry="4.73" transform="translate(-12.94 45.95) rotate(-10.64)"/><ellipse class="cls-3" cx="232.91" cy="85.62" rx="0.85" ry="1.22" transform="translate(-11.54 42.91) rotate(-10.27)"/><path class="cls-3" d="M233.72,85.47a1.3,1.3,0,0,1-.32,1.2c-.63.51-1.19-.36-1.29-.9a1.17,1.17,0,0,1,.41-1.25c.65-.36,1.09.43,1.21,1,0,0,0,0,0,0-.11-.47-.44-1.13-1-1.08s-.77.88-.68,1.38.42,1.09,1,1.08.81-.87.74-1.38C233.76,85.45,233.72,85.44,233.72,85.47Z"/><path d="M249.61,45.79a23.78,23.78,0,0,1,.9,5.68,6.21,6.21,0,0,1-.52,2,14.69,14.69,0,0,0-1.86-.59A1.54,1.54,0,0,0,246.22,54a1.09,1.09,0,0,0,.1.56,7,7,0,0,1,1.92.14,15.89,15.89,0,0,1,1.55.42l.55-.11.13.35c.43.16.86.32,1.28.5a1.36,1.36,0,0,0-.25-.62c-.84-1-.56-1.86.27-2.81l.64,3.71,2,.9,1.58-.53.21,1.3.82.32c-.07-.42-.13-.83-.2-1.25-2-12.09-6.67-23.06-15.93-32.11-3.28-3.2-6.81-6-11.43-7.32-6.17-1.73-12.36-2.54-18.83-1.33-8.69,1.62-16.82,4.22-23.86,9.34-3.87,2.81-7.58,5.75-9.61,10a49.55,49.55,0,0,0-4.5,29.41l.08-.06a11.81,11.81,0,0,1,2.7-1.3,3.86,3.86,0,0,1,.6-.46,6,6,0,0,1,.86-1.75,4,4,0,0,1-.82-2.37A44.49,44.49,0,0,1,178,46a24.58,24.58,0,0,1,10-14,53.45,53.45,0,0,1,18.88-8c5.35-1.14,10.72-2,16.3-1,4.87.82,9.48,2,13.29,5.19C242.4,33.07,247.1,38.76,249.61,45.79Z"/><path d="M145,69.62a3.41,3.41,0,0,1,.9.41,4.46,4.46,0,0,1,.54.84c-.33.14-.69.44-1,.4-1.09-.16-2.15-.43-3.23-.67-5.63-1.23-11.26-2.45-16.88-3.74-.46-.1-.81-.68-1.21-1,.54-.16,1.12-.54,1.6-.43,3.65.79,7.28,1.71,10.93,2.53C139.53,68.55,142.39,69.09,145,69.62Z"/><path d="M284.82,56.12c-.27-.14-.85-.26-.91-.51a1.2,1.2,0,0,1,.5-1,11,11,0,0,1,2.09-.79l13.73-4.32a2.39,2.39,0,0,1,.88-.25,8.12,8.12,0,0,1,1.37.41c-.29.37-.52,1-.89,1.08C296.07,52.52,290.53,54.28,284.82,56.12Z"/><path d="M148.49,83.83a10.89,10.89,0,0,1-.9.61A34.27,34.27,0,0,1,131,88.75c-.5,0-1-.43-1.48-.66.51-.29,1-.84,1.52-.83a33.56,33.56,0,0,0,12.48-2.49c1.23-.46,2.38-1.14,3.6-1.64a1.8,1.8,0,0,1,1.08.09C148.36,83.26,148.4,83.58,148.49,83.83Z"/><path d="M136.6,50.47l10.09,6.17a7.79,7.79,0,0,1,1.41,1,3.37,3.37,0,0,1,.5,1.06,3.53,3.53,0,0,1-1.18.24,3.37,3.37,0,0,1-1-.58l-10.15-5.92c-.11-.07-.28-.08-.35-.18-.31-.4-.59-.83-.89-1.24Z"/><path d="M278.87,40.61c-.2-.1-.57-.17-.69-.38a.93.93,0,0,1,.08-.82,4.18,4.18,0,0,1,.88-.78L289,30.9a2.16,2.16,0,0,1,.88-.55,2.93,2.93,0,0,1,1.06.28c-.09.31-.09.74-.29.91-3.76,3-7.55,5.91-11.33,8.85A3.07,3.07,0,0,1,278.87,40.61Z"/><path d="M295,94.37c-.5.3-1,.78-1.27.7a5.6,5.6,0,0,1-1.68-1c-2.74-2-5.47-4-8.17-6-.29-.22-.33-.77-.49-1.16.43-.06,1-.33,1.26-.16a42,42,0,0,1,4.24,2.66c1.84,1.35,3.59,2.82,5.38,4.25C294.47,93.8,294.61,94,295,94.37Z"/><path d="M292.77,72.12c2.23-.25,4.45-.56,6.69-.71.51,0,1.49.47,1.51.77.06.91-.8.73-1.45.82-2.74.39-5.47.87-8.22,1.25a4.74,4.74,0,0,1-1.49-.29c.35-.42.62-1,1.07-1.23a7.68,7.68,0,0,1,1.92-.47Z"/><path d="M155.68,97.38c-.29.42-.46.68-.65.92-1.73,2.34-3.45,4.68-5.2,7a7.27,7.27,0,0,1-1.27,1.34c-.21.17-.62.08-.94.12,0-.35-.18-.82,0-1q3.24-4.34,6.59-8.61a1.7,1.7,0,0,1,1.1-.44C155.41,96.67,155.58,97.19,155.68,97.38Z"/><path d="M262.17,48.47a37.46,37.46,0,0,1-4.32-.94,1.89,1.89,0,0,1-1-.68l-.37-.55-.58.15.43.63c-1.09-.18-2,.22-2.79-.27-.76.06-1.54.07-2.32.07a2.42,2.42,0,0,1,2.1,1.18c1,1.61,2,3.24,2.85,4.92.69,1.31,1.22,2.7,1.83,4.06l.11,0c3.08,7.94,6.18,15.88,9.22,23.84a17.91,17.91,0,0,1,.95,3.66,3.05,3.05,0,0,1-.38,1.88c-1.6,2.67-4.11,4-6.65,5.32-.92.46-1.73-.06-2.46-.94a37.11,37.11,0,0,1-5.66-9.25c-2.22-5.23-4.35-10.49-6.47-15.76-1.15-2.87-2.39-5.73-3.25-8.68-1.37-4.69-.54-7,2.76-8.67a11.45,11.45,0,0,1,4.17-1.51c-1.3,0-2.61,0-3.9.1l-.31.18c-1.9.94-3.91,1.91-4.09,4.73a15.62,15.62,0,0,0,.31,4.86,69.52,69.52,0,0,0,2.54,7.3c1.38,3.6,2.78,7.2,4.3,10.76s3.08,7.19,4.87,10.64a46.68,46.68,0,0,0,4.19,6.13c1,1.4,2.37,1.77,3.67,1.1,2.46-1.29,4.88-2.65,6.57-5.13a3.67,3.67,0,0,1,1-.82c.62-.43,1.44-.66,1.84-1.29,2.83-4.43,4.39-9.42,2.32-15.56q-2.74-8.13-5.85-16.15C266.74,51,265,48.83,262.17,48.47Z"/><path class="cls-1" d="M256,53.67c-.88-1.68-1.86-3.31-2.85-4.92a2.42,2.42,0,0,0-2.1-1.18h-.89A11.45,11.45,0,0,0,246,49.08c-3.31,1.66-4.13,4-2.76,8.67.86,2.94,2.1,5.81,3.25,8.68,2.12,5.27,4.26,10.53,6.47,15.76a37.11,37.11,0,0,0,5.66,9.25c.72.87,1.54,1.4,2.46.94,2.55-1.28,5-2.65,6.65-5.32a3.05,3.05,0,0,0,.38-1.88,17.91,17.91,0,0,0-.95-3.66c-3-8-6.14-15.89-9.22-23.84l-.11,0C257.19,56.37,256.66,55,256,53.67Zm-.45,23c1.33,3.19,2.32,6.53,3.38,9.82a8.5,8.5,0,0,1,.24,2.57c0,.23-.39.39-.6.59a2.6,2.6,0,0,1-.35-.8,20.05,20.05,0,0,0-1.62-6.95c-1.67-4-3.18-8.15-5-12.12-2.46-5.4-5.13-10.7-7.71-16-.17-.34-.31-.7-.47-1l.42-.27a21,21,0,0,1,1.48,2.21c1.3,2.57,2.58,5.16,3.79,7.77C251.27,67.14,253.52,71.86,255.52,76.67Z"/><path class="cls-1" d="M253.53,46.81c.82.49,1.7.09,2.79.27l-.43-.63A14.7,14.7,0,0,1,253.53,46.81Z"/><path d="M182.45,93.14a55.13,55.13,0,0,0,3.08-12.23c.77-5,1.43-10,2-15a28.51,28.51,0,0,0,.21-5.72c-.24-2.89-1.31-5.27-4.3-5.83-1.49-.28-3-.45-4.53-.63l-.08,0c-1.06.17-2.12.32-3.18.55l-.61.17v0l-.37.11c-.14.07-.27.14-.41.2a3.76,3.76,0,0,1-2.71,2.9,3.36,3.36,0,0,1-.9.47l-.08.06-.09,0c0,.07,0,.14,0,.22-.65.36-1.31.69-2,1a9.75,9.75,0,0,0-3.34,3.5,29.11,29.11,0,0,0-2.87,7.93c-.71,3.93-1.62,7.84-2.24,11.77A6.71,6.71,0,0,0,161.54,88a12.41,12.41,0,0,0,2.63,2.64,2.53,2.53,0,0,1,1.06,2.81c-.14.47-.27.93-.4,1.4-.81,3-1.6,6-2.41,8.93a.93.93,0,0,0,.15,1,4.89,4.89,0,0,1,1.47,2.89,10.68,10.68,0,0,1-2,5.82c-2,3.14-5.09,5-8,7.09a48.76,48.76,0,0,0-5.31,4,2.53,2.53,0,0,0,0,3.67l29.07,27.59c.25-.35-21.82-16.06-29.21-29.78-1.42-2.64,4.81-3.65,7.14-5.57a51.59,51.59,0,0,0,6.42-5.75,10.59,10.59,0,0,0,2.71-8.38,2.5,2.5,0,0,1,.43-1.68,3.81,3.81,0,0,0,.48-.92c.63-2,1.16-4,1.73-6l.19-.64a2.54,2.54,0,0,1,3.59-1.57,19.69,19.69,0,0,0,4.56,1.47C179.68,98,180.81,97.26,182.45,93.14Zm-5.78,3c-1.88-.42-3.72-1-5.57-1.51l.16-.29c-2.4-.76-2.09-3-1.93-5,.23-3.06.7-6.13,1.05-9.19.4-3.45.72-6.89,1.19-10.34.37-2.68.87-5.35,1.39-8A31.89,31.89,0,0,1,174,58c1-3,1.47-2.84,4.21-3.19a17.16,17.16,0,0,1,4.85.55c2.68.43,3.6,2.58,3.73,5.11a42.54,42.54,0,0,1-.43,6.87c-.44,3.83-1,7.65-1.52,11.48a57.5,57.5,0,0,1-3.49,14.5l-.14.32C179.92,96.42,179.39,96.76,176.68,96.15Z"/><path class="cls-1" d="M171.66,90.81c-2.35-.73-2-3-1.84-5,.27-3.06.77-6.13,1.16-9.19.44-3.45.8-6.89,1.3-10.34.39-2.68.93-5.35,1.47-8a32.84,32.84,0,0,1,1.08-3.84c1-3,1.48-2.85,4.19-3.24a16.54,16.54,0,0,1,4.77.48c2.64.4,3.52,2.53,3.61,5a43.28,43.28,0,0,1-.51,6.86c-.48,3.83-1.1,7.65-1.65,11.48a59.12,59.12,0,0,1-3.62,14.53l-.15.33c-1.31,2.82-1.84,3.17-4.5,2.59-1.85-.4-3.65-1-5.47-1.44Zm8.92-1.21a17.19,17.19,0,0,1-.38-3.16,80.18,80.18,0,0,1,.77-8.24c.72-4.43,1.63-8.86,2.54-13.28.72-3.5,1.57-7,2.35-10.49a2.93,2.93,0,0,0,0-.76l-.35,0a12.35,12.35,0,0,0-.83,2c-1.17,5.05-2.4,10.11-3.4,15.18-.79,4-1.4,8-1.86,12a38.74,38.74,0,0,0,.08,6.09C179.48,89.47,179.72,90,180.57,89.61Z"/><path class="cls-1" d="M173.67,52.67l-.09.16c-.08.15-.17.27-.26.41a4.75,4.75,0,0,1-1.55,2,3.6,3.6,0,0,0,2.63-2.79A5.36,5.36,0,0,1,173.67,52.67Z"/><ellipse cx="195.7" cy="95.54" rx="1.2" ry="1.9" transform="translate(-17.8 52.59) rotate(-14.65)"/><ellipse cx="240.57" cy="94.32" rx="1.13" ry="1.72" transform="translate(-13.79 48.84) rotate(-11.27)"/><path class="cls-1" d="M242.2,314.06l4.88,18.83c-5.44,0-10.5-.22-15.52,0-9.76.52-18.61,4-27.47,8-3.7,1.67-8.67.93-13,.51-1.23-.12-2.2-3-3.57-5L198,331.17a33.87,33.87,0,0,1,3.37-1.59c2.68-1,5.39-1.9,8.1-2.79,3.67-1.2,7.4-.84,11.18-.8,2.15,0,4.4-2,6.46-3.29,2.21-1.41,4.2-4.25,6.4-4.37C237.28,318.13,239.26,315.47,242.2,314.06Z"/><path class="cls-1" d="M228.82,347.41,218.36,354c-2.27-6.46-8-5.73-13-6.55,2.26-.85,4.51-1.72,6.77-2.54.44-.16,1.15-.35,1.41-.14,1.81,1.53,2.93.69,4-.91.27-.39,1-.47,1.47-1.28l-8.82,1,.06.07-3.18-1.6c2.83-1.39,5-2.7,7.43-3.59s5.14-1.34,7.64-2.19c8.26-2.8,16.67-1.37,25-.93a3,3,0,0,1,2,1.77c.22.59-.32,1.62-.78,2.27a24.72,24.72,0,0,1-3,3.59c-.67.64-1.83,1.52-2.46,1.32-3-.94-5.18.75-7.47,2.09Z"/><path class="cls-1" d="M179.11,337.24c-5.1-3.3-1.38-6.29-1.18-9.45-.74.79-1.47,1.63-2.21,2.42,1.66-4.76,2.5-10.08,6.73-13.51-.84,3.92-1.67,7.74-2.55,11.74h3.47A84.45,84.45,0,0,1,179.11,337.24Z"/><path class="cls-1" d="M194.9,352.92c3.13-1.11,5.64-4.14,9.4-3.29l.27,1c-1,.17-2.29,0-3.05.58a11.77,11.77,0,0,0-3,3.32,19.63,19.63,0,0,0-1.44,3.78L193.36,357l1.46-4A.08.08,0,0,0,194.9,352.92Z"/><path class="cls-1" d="M228.82,347.41l6.63-1.08,3.9-1.38.38,1-14,7.1-.36-.56Z"/><path class="cls-1" d="M194.9,352.92a.08.08,0,0,1-.08,0c-3.09,2.22-6.26,4.36-9.24,6.72-1.09.86-1.76,2.25-2.93,3.81.78-4.93,4.36-6.91,7.67-9.53l-1.56-.14C190.06,351.36,193.58,350.87,194.9,352.92Z"/><path class="cls-1" d="M209.67,317l-8.7,7.68.53.57C203.53,322,204.78,318,209.67,317Z"/><path class="cls-1" d="M191.52,320c-.62-3.86.9-6.22,4.94-7.7Z"/><path class="cls-1" d="M202.41,368.41c2,1,3.24,1.85,4.65,2.71,0,.35-.06.71,0,1.06-1.48.26-2.61.53-4.61.8Z"/><rect class="cls-1" x="192.54" y="259.39" width="78.23" height="158.33" rx="35.1" ry="35.1" transform="matrix(0.99, -0.13, 0.13, 0.99, -41.11, 32.15)"/><polygon class="cls-4" points="245.82 417.64 246.26 417.88 248.32 417.11 245.82 417.64"/><path class="cls-4" d="M265.81,408.73c.3-.41.69-.89,1.09-1.39a11.42,11.42,0,0,0,1.12-1.54c.64-1,1.08-1.89.84-2.12l-.91,1.53-.64,1.06-.33.45c-.74,0-2.28,1.68-3.84,3l.9-.74.62-.51.26-.25c-.39.47.1.44-.32.88-1.5,1-2.26,1.85-3.17,2.47a9.86,9.86,0,0,1-3.35,1.82l.14-.13-1.09.75-.75.52a2.57,2.57,0,0,1-.36.21c-.8.24-.59-.1-.38-.28-1,.54-1.92,1.08-3,1.54a23.62,23.62,0,0,1-3.79,1.17,4.65,4.65,0,0,0,2.18-.26,15,15,0,0,0,2.4-.93c.79-.41,1.56-.81,2.31-1.12a8.83,8.83,0,0,1,2.08-.69l-.14.13C260.35,412.7,263.6,411,265.81,408.73Z"/><path class="cls-4" d="M255.63,414.46l.18-.1S255.71,414.39,255.63,414.46Z"/><path class="cls-4" d="M268,299l-.16-.1C267.93,299.07,268,299.23,268,299Z"/><path class="cls-4" d="M271,336.73v-.18C270.76,336.34,270.83,336.45,271,336.73Z"/><path class="cls-4" d="M195.38,377.12l-.11.76A.85.85,0,0,0,195.38,377.12Z"/><path class="cls-4" d="M222.55,418.18l.08,0Z"/><path class="cls-4" d="M205.4,402.59l.1-.19C205.36,402.38,205.35,402.46,205.4,402.59Z"/><path class="cls-4" d="M217.5,412.67l.54.38.59.29A6.69,6.69,0,0,0,217.5,412.67Z"/><path class="cls-4" d="M222,418.09l.52.09A3.57,3.57,0,0,0,222,418.09Z"/><path class="cls-4" d="M198.74,379.7l.4-.69C199,379,198.86,379.38,198.74,379.7Z"/><path class="cls-4" d="M221.17,414a2.72,2.72,0,0,0,.72.42A1.64,1.64,0,0,0,221.17,414Z"/><path class="cls-4" d="M268.23,406.26c-.3.39-.68.77-1.13,1.27A5.21,5.21,0,0,0,268.23,406.26Z"/><path class="cls-4" d="M189.39,288.51a.72.72,0,0,0,.12.31C189.55,288.47,189.49,288.44,189.39,288.51Z"/><path class="cls-4" d="M194.23,341.69l0,.17a1.66,1.66,0,0,0,0-.23Z"/><path class="cls-4" d="M192.15,326a1.51,1.51,0,0,0,.13.2C192.22,326.07,192.18,326,192.15,326Z"/><path class="cls-4" d="M196.25,353.47a3.11,3.11,0,0,0,.23.53Z"/><path class="cls-4" d="M197.21,364.87c.1-.53.33,0,.56.51-.13-2.86-.85-3.72-.81-6.72l-.06,1.41A21.28,21.28,0,0,1,196,353l.22.51c-.61-1.76-.27-4.7-.69-5.43-.11.77-.33,0-.38,1.19l-1-4.55.6-.43-.52-2.39c-.18.63-.21-3.27-.83-3.25.06-1.41.56.51.87,1a13.52,13.52,0,0,0-.64-2.73l.39-1.42-.86-3.49c.08.17.09-.05.16.11-.69-1.56-.25-4.15-1.33-6.11,0,.1.07.07.11.09-.59-1.07-.63-3.91-.66-4.94-.34-1.82-.64-.69-.89-.74-.53-5.32-.35-3.62-1.59-8,.36-2.75,1.54,3,1.6-.45-.4-.41-1-2.72-1.45-5.36l-.2-4.5c0-.82-.06-1.63-.07-2.39s.09-1.41.16-2l-.45.27-.26-1.64c-.07-.82-.1-1.65-.1-1.65l.32.94c.08.23.15.46.22.64l.13.29a31.85,31.85,0,0,1-.64-3.28,3.41,3.41,0,0,1,.54-2.55,1.47,1.47,0,0,0,.31-.61,2.4,2.4,0,0,0,0-.53,6.53,6.53,0,0,0,0-.83,1.43,1.43,0,0,1,.2-.21,7.31,7.31,0,0,1,.23-2.2l1-3.35s.26,1.06.26,1.06l-.64,1.53a3,3,0,0,0,.76-1.75,11.21,11.21,0,0,1,.74-2.34c.51-1.64-.3-1.1,0-2a9.84,9.84,0,0,1,1-1.79c.91-1.23.67.23.67.76a3.68,3.68,0,0,1,.46-1.74c.31-.56.7-1.31,1.52-2.54.33.06.29.3.08.63a2.94,2.94,0,0,0,.59-1.4l.9-.53c2.62-2,1.47-3.2,4.79-5.58-.16.24-.08.21.16,0s.68-.43,1.16-.75,1-.68,1.53-1a5.61,5.61,0,0,1,1.32-.51c-1.18.72,1,.47.43,1.17,2.85-1.21.75-1.27,3.07-2.36l-.67,1.07c2.14-1.18.38-.62,2.66-1.7-.6.39,1.13-.12-.22.52a30.16,30.16,0,0,1,5.11-1.17l.11-.75a2.24,2.24,0,0,1,1.65.09c-.42.06-1,.16-1,.24,1.17.41,1.84-.61,3.24-.23-.36-.18-.78-.45.45-.65-.34.49,1.94.16,2.06.33-.82-.2,2.62-.48,2.73-1,1.43.21-.39.38-.45.65,1.11-.71,4.78-.51,5.83-.69,0,0,.08.08.07.11.37-.08.79-.14,1.28-.19s1,0,1.6,0l1.89,0,2.13.16-1.08.18c2.85.83,2-.49,4.39.31-.35.21.65.48,1.55.84s1.69.75,1,.82a19.26,19.26,0,0,1,2.19.55,7.59,7.59,0,0,0,1.89.42c1.07,1-2.76-.64-1.13.48l1,.39.69.27.3.15.14.48c.2-.15,1.73.9,1.77.7a3.22,3.22,0,0,0,.27.8c.1.27.15.5,0,.59,1.07.78,2.27,2.2,3.21,2.79l-.06.2a3.31,3.31,0,0,1,1.06.61c.18.14.35.29.53.46l.46.53c.61.7,1.17,1.34,1.67,1.38l.1.44c0,.22.07.46.07.46,1.16,1.65,1.58.93,2.25,1.65a15.66,15.66,0,0,1,1.33,2.38c-.83-1.1-.8-.72-.56,0l.43,1.18a3.36,3.36,0,0,1,.19.91c.19.49.58,1.44,1,2.35a10.3,10.3,0,0,0,1,2.22c-.73-1.11-.74-.29-1.47-2.41a4.72,4.72,0,0,0,.53,2.41c.19.47.45,1,.62,1.53a13.21,13.21,0,0,1,.39,1.78l-.33,0a17.2,17.2,0,0,0,1.06,3.31c.33.65.67,1,1.05,1.78-.35.48-.5.14-1-.84.07,2.46.83,6.25,1.14,9-.18.9-.42.35-.66-.54.68,2.78.74,6.33,1.69,8-.38-.66,0,1.16,0,2.22.15,0,.37.16.36.28a34.33,34.33,0,0,1,1.28,7.53l-.31-.7c.48,4.68,2,6.57,2.11,11.73,0,.93-.72-.87-.46,1,.38.87.9.5,1,2.9l-.49-.1.69,1.56c.29-.88-.19-3.51.49-1.71-.17,2.18.68,1.8.49,4.45a6.4,6.4,0,0,0-.83-1.72c.13,5.48,1.43,7.51,1.54,13.07.72,2.68,1.25,6.18,1.84,8-.49-.1-.91,0-1.45-1.24.24,2.34,1.45,3.3,1,5,.79,1,1.24,6.41,2.22,6.85-.17.12.31,2.51-.51.13.71,3.14-.25,4.29-.06,5.75.13.81.46-1,.71.86,0,.23-.09.3-.1.54l.3.69c-.11.77-.55-.75-.8-.79a14.38,14.38,0,0,0,.23,1.82c.09.57.2,1.12.33,1.68s.27,1.15.38,1.79.1,1.34.09,2.13l-.15-.54-.06,1.6a9.19,9.19,0,0,1-.12,1.09l-.07.49,0-.19v1.3c0,.33,0,.65,0,.9a2.32,2.32,0,0,1,0,.41L276,388a10.94,10.94,0,0,1-.11,1.58l-.23-.32a6.94,6.94,0,0,1-.07,2.5,29.41,29.41,0,0,1-.77,2.88l-.23.22-.45,1.74-.32,1.21a3.65,3.65,0,0,1-.17.55c-1.22,1.52.57-2.43-1.08,1l-.05-1.12a19.15,19.15,0,0,1-1.28,2.41,13.22,13.22,0,0,0-1.16,1.75c.71-.49,1.41-1.56,1.09-.64a5.36,5.36,0,0,0-1.68,2.14c-.41.73-.72,1.54-1.28,2.41a5.32,5.32,0,0,0,1.31-2.08c.7-.84.49-.11.92-.64l.61-1.47.59-.13.2-.37a6.17,6.17,0,0,0,.39-.83l.51-1.24c.34.38,1.26-2.1,1.19-1,.34-.88.64-1.55.94-2.2a5.38,5.38,0,0,0,.59-2.2c.69-1.1-.33,2,.17.76a45.55,45.55,0,0,0,2.07-11.18l.07-2.88-.19-2.89c-.14-1.92-.39-3.72-.57-5.59l.31.69c-.31-.69-.6-1.62-.83-2.14.22-1.31.09-6.22-.85-7.83,0-.24.16.11.24.29-.4-2.45-.47-7-1-10.46-.95-1.39-.2-5.34-1.4-6.53l.31.7c-.13,1.23-.93-1.61-1.25-2.07.54-1.07.5-.13,1-1.39l-.06,1.42.51-.38c-2-4.27-.41-8.38-1.8-11,.08.16.16.11.24.28.08-1.88-.79-3.09-1.15-4.42.26-.19.55.75.86,1.43-.2-3.27-1.65-8.62-1.67-12.25-.53-1.21-.44.54-.89-.74,0-1.12.16-1.94.52-.6.29-3.18-1.75-10.15-1.73-15-.73-2.44-.71-.86-1.48-4.64.38.86.79-1,1.11,1.25l.32.23c-.22-1.9-.46-4.12-.78-6.11a14.62,14.62,0,0,0-1.35-4.78c.58-.23,0-.73,0-2.3-.2-.59-.07.07-.07.33-.82-1.32-.57-2.16-.92-3.16l.21.33s-.27-.68-.6-1.33l-.71-1.27c-.1-.47-.26-1.19-.13-1.36l-.38.19a2.58,2.58,0,0,1-.25-1.2,2.53,2.53,0,0,0-.53-1.4l-.09.51a10.88,10.88,0,0,0-1-1.85c-.39-.55-.69-1-.56-1.25s.15.13.4.49a5.58,5.58,0,0,0-.69-1.5,8.4,8.4,0,0,0-1.15-1.51c-.45-.48-.91-1-1.34-1.46-.22-.24-.42-.5-.62-.74a9,9,0,0,1-.6-.71l-.09.9c-1.74-1.49-.87-1.1-.64-1.21a13,13,0,0,1-1.16-1.36,18.5,18.5,0,0,0-1.52-1.54c-.88-.52-.56-.15-.94-.2l-.23-.23a5.14,5.14,0,0,0-.53-.48l-.8-.66,1.32.47a32.66,32.66,0,0,1-4.85-2.62l-1.18-.69c-.39-.2-.79-.36-1.16-.51a5.87,5.87,0,0,0-2-.48c-1-.67,1.14.05.53-.35l-.64-.35-.69-.27c-.47-.17-1-.33-1.45-.47a15.4,15.4,0,0,0-1.5-.39l-1.53-.23c-2-.38-4-.35-5.51-.81a32.94,32.94,0,0,0-4-.27c-1.35.09-2.82.15-4.15.34l-4.05.53-2,.23c-.67.06-1.36.13-2.09.23l.13.17-2,.29a9.88,9.88,0,0,0-1.38.25l-.62.15a11.07,11.07,0,0,1-2.37,1,14.91,14.91,0,0,0-2.65,1.46c.07-.19-.35-.26,0-.5a21.08,21.08,0,0,0-2.27,1.23,11.11,11.11,0,0,1-1.86.87l.2-.22.22-.2a31.38,31.38,0,0,0-5.19,3.54,15.93,15.93,0,0,0-2.07,2,14,14,0,0,0-1.32,1.58c-.82,1-1,.78-1.44.9-.37.42-.69.82-1,1.2a11.16,11.16,0,0,0-.73,1.16,25.24,25.24,0,0,0-1.19,2.34,10.66,10.66,0,0,1-1,1.16l0,1c-.51.78-.43,0-.9.6-1.05,3.34-2.75,7-3.15,9.44l.3-.29c-.11,1-.62,2.89-.7,1.67a25.29,25.29,0,0,0-.4,3.25c0,1,.09,2,.17,3a11.2,11.2,0,0,0,.2,1.54l.25,1.68c.14,1.22.38,2.46.53,4-.7,1,.94,5.49.15,6.5.56,2.56.41,4.27,1.17,6-.09.07-.1.29-.16-.11-.21,1.07.49,4.44,1,7l-.26.18c.71.86,1.11,5.36,1.83,6.22-.09.3-.31-.46-.47-.81-.39,1.43.57,2.33.67,4.09-.16-.11-.27.42-.42.07.1,5.87,2.26,14.13,2.79,21.73.25,2.1.53-.84.84,1.91-.2.83-.78-1.26-.69.49a9,9,0,0,1,.7,3.38c-.24-.28-.33,0-.62-1.16-.12,1,1,4.07.76,6.08.17-.12.32.22.47.57.89,2.79.32,6.62.64,6.85,0,0,.21,1,.16.11.12,1.05.23,2.57-.1,2.35a6.33,6.33,0,0,1,.68,1.8l-.4-.4c.13.47.42,1,.52,1.45l.11-.77c-.13,1.24.86,3.5.19,3.52l-.07-.41v2.28a8.62,8.62,0,0,1,.87,3.25c-.3.33-.22,1.3,0,2.42s.6,2.51.75,3.52l-.25,0c.32.75.8,2.09,1.11,3.17a8.66,8.66,0,0,0,.45,1.28c.12.28.17.38.13.2.29.72.59,1.58.76,2.18s.26.93,0,.64c.71,1.07,1.9,3.48,2.67,3.78l.91,2.45a6.49,6.49,0,0,1,2.18,2.29c.65.89,1.29,1.57,1.66,1.32.88,1.1.5,1,1.1,1.83a16.07,16.07,0,0,1,2.5,1.69l2.45,1.81v.11a32.74,32.74,0,0,0,6.62,3l.3.88c1.47.4,2,0,3.28.59.28.21,0,.14-.4.06.68.19,1.48.34,2.23.57s1.45.47,2,.67a22.23,22.23,0,0,1,3,0l.68,0,.68-.07a10.26,10.26,0,0,0,1.39-.25c1.66.65-2.5.21-1.09.81.77.1,1.55.16,2.33.18a17.21,17.21,0,0,0,2.37-.19,41.57,41.57,0,0,0,4.68-.9c.29.09-.05.25-.17.41,0,0,6.24-2.47,5-3,.74-.55,1.61-.93-1.15-1-.87.38-3.37,1-3.91.59l-.1.49c-1.8.34-1.92.11-2.12-.14s-.54-.47-2.62-.32l.9.09a9.71,9.71,0,0,1-2.32.36c-.27-.11.3-.22.64-.36a11,11,0,0,1-1.74.37l-1.78.28c-.14-.28,0-.42.71-.62-1.6,0-1.46.2-1.4.39s0,.38-1.94,0c-.69-.3.29-.26.83-.35a8.23,8.23,0,0,0-2.4-.45c-.76-.1-1.55-.12-2.51-.2.09-.42,1.27-.1-.16-.7.24.27.33.73-.83.42.67-.23-.8-.51-1.87-1,.17.21,0,.38-.44.3a11,11,0,0,1-1.7-.79l.58.49.4.34.19.15a9.14,9.14,0,0,1-4.1-2.4,1.79,1.79,0,0,1,.68.2c-.66-.47-1.3-1-2-1.46a11.54,11.54,0,0,0-2.37-1.49l.17.06a7.91,7.91,0,0,0-1.37-.69c-.16,0-.12.13-.09.27s.07.51-1.81-.83c-1.06-1.07,1.4-.48-1.32-2.55.43.7-.11.47-1-.12a21.71,21.71,0,0,1-2.55-2.4l1.92,1.08a25.29,25.29,0,0,1-1.71-1.95l-.1.19c-.24.27-.57-.28-1-1a13,13,0,0,0-1.41-2.18,10.29,10.29,0,0,0,1.58,1,1.37,1.37,0,0,0,1,0,7.5,7.5,0,0,1-1.75-1.58,11.92,11.92,0,0,1-.83-1.18,6.58,6.58,0,0,1-.75-1.53l.22.25a4.89,4.89,0,0,0,.52.53l.8.73c-.17-.37-.36-.74-.57-1.11s-.36-.77-.56-1.15c-.38-.77-.9-1.51-1.28-2.29s-.81-1.54-1.21-2.28-.66-1.47-1-2.13c.67.64.66-.51,1.33.57,0,0-.68-3.09-.64-3.14s.71.86.72.84c-.79-1.24-.56-2.79-1.32-2.46a1.72,1.72,0,0,1,.29.93c-.25,0-.81-.56-1-2.26,0-1.17.39.63.57.29-.46-1,0-1.18-.33-2.28l-.21,1.05c-.55-.74-.26-1.87-.63-3,.37,1.32.57.85.78.31l0,.08c-.13-.81-.59-1.85-.4-2.45l.72.62-.62-1.15c0-.47.2-.82.42-.07-.1-3.8-1.34.28-1.39-4.71.25.05.48.57.51,1.92.41.17.59-.19.56-1.54,0,0,0,0,.07,0A40.24,40.24,0,0,0,197.21,364.87Z"/><path class="cls-4" d="M198.56,372.38a27.14,27.14,0,0,0,.47,3C199.12,375.15,198.94,372.26,198.56,372.38Z"/><path class="cls-4" d="M265,301.29l-.13-.5Z"/><path class="cls-4" d="M266.57,312.12a1.76,1.76,0,0,0,.07-.59C266.51,311.54,266.44,311.69,266.57,312.12Z"/><path class="cls-4" d="M195.5,274.84l0,0Z"/><path class="cls-4" d="M249.66,267.35c.88.34,1.25.43,1.38.35A1.62,1.62,0,0,0,249.66,267.35Z"/><path class="cls-4" d="M231.1,260.74l-.38.09C231,260.8,231.09,260.77,231.1,260.74Z"/><path class="cls-4" d="M194,277.58c.33-.83,1-1.83,1.53-2.74C195.1,275.62,194,276.87,194,277.58Z"/><polygon class="cls-4" points="268.95 325.24 268.5 324.2 268.87 325.31 268.95 325.24"/><path class="cls-4" d="M267.45,315.14c0-.46-.41-2.22-.51-1.68A10.49,10.49,0,0,1,267.45,315.14Z"/><path class="cls-4" d="M260.22,277.1s-.5-.21-.51-.2.65.65.65.65Z"/><path class="cls-1" d="M196.71,364.7l-4.78,5.49C192.17,366,193.57,364.26,196.71,364.7Z"/><path class="cls-1" d="M259.23,323.63l1.15-5.53,1.27.15-.44,5.6Z"/><path class="cls-1" d="M261,272.75l.57,6.41c-2.23-1.81-2.23-4-1.75-6.27Z"/><path class="cls-1" d="M210.18,343.51,202.25,347c2.06-2.67,4.57-4.2,8-3.43Z"/><path class="cls-1" d="M260.73,296.14c-2.43-.45-2.87-1.6-2-5.83Z"/><path d="M189.43,296.14l.76.13-5.38,11-.73-.42c1.31-3.84,1.6-8.16,5.44-10.8Z"/><path class="cls-1" d="M207.7,224.26c-.44-1.71-.9-3.42-1.36-5.13a103,103,0,0,0-5.94,11.4Q204,227.36,207.7,224.26Z"/><rect class="cls-5" x="155.49" y="266.7" width="138.71" height="130.95" transform="matrix(0.95, -0.31, 0.31, 0.95, -91.37, 85.38)"/><path class="cls-5" d="M334.13,240.4l-70.54,26.08,34.23,101.63L368.36,342Zm-25.72,121c-6,0-6-9.85,0-9.85S314.41,361.4,308.41,361.4Z"/><path d="M187.67,180.68c-8.3,7-14.54,16.65-20.06,27.43-1.84,3.59-1.63,5.49.67,8,4.71,5.13,5.35,12.34,5.79,19.34h3.84c-2.73,12-5.27,20.91-8,31.35,1.8.81,3.62,2,6.64,3.32-2.3,6.29-5,12.68-6.83,19.32-1,3.56-2,9.19-.67,11.63,4.27,8.07.26,15.08-.25,22.53-.36,5.13.07,10.37.07,15.55a53.84,53.84,0,0,1-.33,8.35c-1,6.2-.27,11.09,4,14.77,1.37,1.18,1.92,4.14,3,6.56l4-6,2,24.06,4.64-3.28,5.47,2.31,7.09,13.16,1.79-1.76a4.21,4.21,0,0,1,.47,1.27c.12,9.74.4,10.21,9,14.36l-2.8,5.44.44,1.28,10.41-6,.93,2.23-3.5,9.8,4.87-3.91,1.3,4.4c10.31-2.16,19.17-7.7,29.33-14l3,8.74,3.85-9.88c3.79,6,4.13,5.91,10.94-3.27l3.91,3.67c6.46-8.54,10.83-17.84,9.39-30.44.34,2.43.52,4.93,1.06,7.27,1.44,6.25,2.55,12.75,4.65,18.58,5.33,14.8,6.07,30,3.38,45.77-1.36,8-2.71,16-4.37,25.77,7.48-1.4,14.16-2.86,20.87-3.84,3.76-.55,7.65-1,11.34-.24,5.42,1.1,8.12,8.46,6.87,18.72l-9.17-5.3.51-1.88,6.93,3.49c.81-7.85-2.1-12.52-8.21-13.24-7-.83-15.42,6.84-14.69,15.55l-20.09,2,0,1.7c2.09,1.1,4.58,1.57,6.16,3.46a30.37,30.37,0,0,1,5.1,9.52c.45,1.34-.9,4.36-2,5.84-.46.63-2.37-.73-4-1.33L283.46,519l-7.76-7.55.75,10.35c-13.13-11-26.85-7-40.54-6.49-19.39.7-38-5.23-56.31-14.3-11.87-5.88-24.44-9.33-36.81-13.12-3.09-.95-6.82,2.16-10,1.34-4.62-1.21-9.11,4.21-13.56-.13a.54.54,0,0,0-.55-.12c-6.84,3.66-14.84-.38-21.31,6.17-1.95,2-5.33,1.94-6.65,4.3-7.11,12.65-6.71,16,1.52,27.82a25.08,25.08,0,0,1,3.85,7.77c1.37,5.25,3.63,8.46,7.7,9.58.84.23,1.42,2.18,2.14,3.36-7.87,7.24-16,6.88-23.51-.39a23,23,0,0,0-8-5.44c-8.12-2.76-11.35-11.73-13.8-20.73C57,507.93,63,486.72,72.15,478.58c6-5.32,11.75-9.83,19.78-10.06,10.35-.29,20.63-4.58,30.94-7.13a7.45,7.45,0,0,1,1.14-.09c12.85-1.16,16.57-5.27,18.22-23.36,1-10.7,1.87-22.26-.19-32.29-1.19-5.79,1.48-14.53-4.64-18.55-.68-.45.32-4.9.06-7.39-1-9.23-1.32-18.79-3.45-27.53-4.08-16.75-1.89-33,0-49.55.89-7.68,1-15.6,2.38-23.09,1.84-9.94,4.59-19.57,7-29.33.12-.48.56-.88.57-1.33.17-17.82,9.92-29.14,16.34-42.34,3.76-7.74,10.69-12.79,16.53-18.42C180.09,185,184,183.12,187.67,180.68ZM290.53,511c.28-7.08-4.55-12.36-12.86-13.68-7.55-1.2-13,4.36-14.46,14.63l10,4.13.61-1.81-7.07-4.82c3.2-.89,6.33-1.27,9,0s5.25,4.17,7.84,6.36l1.06-1.81-7.6-9,.85-1.74Z"/><path class="cls-6" d="M278.3,503.77l-.79,1.79,8.23,8.74-1,1.87c-2.77-2.08-5.41-4.85-8.37-6s-6-.6-9.3.45l7.5,4.51L274,517l-10.51-3.68c1-10.4,6.37-16.26,14.19-15.42,8.61.93,13.82,6,13.86,13.15Z"/><path class="cls-7" d="M325.47,477c-1.56-1.69-4-2-6-3v-1.55l1.52-.18c-1.92-1.2-7.14,1.57-9.21,2.72-3.79,2.11-7.45,4.53-9.58,8.24a21.94,21.94,0,0,0-2.8,8.89,30.73,30.73,0,0,1,16.31,6.22l-1-9.43,7.66,6.68,2.56-5.76c1.59.5,3.47,1.69,3.9,1.11,1-1.38,2.24-4.17,1.78-5.38A27.28,27.28,0,0,0,325.47,477Z"/><path class="cls-8" d="M316.72,481.33l-.77,1.61,7.54,8.05-1,1.67c-2.56-1.93-5-4.49-7.71-5.6s-5.65-.65-8.71.25l6.93,4.21-.54,1.67-9.77-3.51c1.11-9.4,6.26-14.62,13.57-13.72,8,1,12.82,5.67,12.72,12.14Z"/><path class="cls-9" d="M308.41,352c14.41-11.52,20.31-32.77,13.19-52.92-8.78-24.84-34-38.59-56.38-30.71s-33.37,34.41-24.6,59.25,34,38.59,56.38,30.71a38.92,38.92,0,0,0,10.73-5.82A4.34,4.34,0,0,1,308.41,352Z"/><path class="cls-10" d="M297.79,308.07c3.59,10.16-.91,21-10.05,24.22s-19.46-2.4-23-12.55.91-21,10.05-24.22S294.2,297.92,297.79,308.07Z"/><rect class="cls-1" x="164.11" y="272.2" width="125.85" height="119.53" rx="5.84" ry="5.84" transform="translate(-91.19 86.05) rotate(-17.94)"/><path class="cls-11" d="M299.76,371.14c-.24.09-.09.08.55-.17l.41-.26-.47.24Z"/><path class="cls-11" d="M303.23,368.23c.35-.75.46-1.69.31-1.18a5.77,5.77,0,0,1-.64,1.74,3.14,3.14,0,0,1-.69.84,7,7,0,0,1-1.1.93,5.17,5.17,0,0,0,2.12-2.38C303.33,367.94,303.24,368.17,303.23,368.23Z"/><path class="cls-11" d="M284,303.27l.13.42Z"/><path class="cls-11" d="M270.94,263.08c.1.31.15.43.16.45C271,263.25,270.92,263,270.94,263.08Z"/><path class="cls-11" d="M266.76,257.47a3.37,3.37,0,0,1,.4.17A2.3,2.3,0,0,0,266.76,257.47Z"/><path class="cls-11" d="M284,303.27l-.33-1.08C283.58,302.12,283.78,302.75,284,303.27Z"/><path class="cls-11" d="M301.9,359.23l.2.58-.18-.55Z"/><path class="cls-11" d="M289.74,321l.11.33.11.26Z"/><path class="cls-11" d="M294.15,334.56a2.41,2.41,0,0,0-.23-.51c.07.17.15.39.24.66C294.18,334.71,294.17,334.67,294.15,334.56Z"/><path class="cls-11" d="M301.07,356.14l.13.38Z"/><path class="cls-11" d="M286.59,311.24a.86.86,0,0,0,0-.13A.48.48,0,0,0,286.59,311.24Z"/><path class="cls-11" d="M284,376.14s0,0,0,0S284.07,376.11,284,376.14Z"/><path class="cls-11" d="M299.79,371.24l-.22.07,0,0Z"/><path class="cls-11" d="M254,260.22l.06,0Z"/><path class="cls-11" d="M152.56,306.9c-.39-1.32.74,2.11.14.13C152.75,307.22,152.06,305.27,152.56,306.9Z"/><path class="cls-11" d="M301.79,358.88l-.18-.56Z"/><path class="cls-11" d="M152.7,307h0l-.06-.2Z"/><path class="cls-11" d="M225,269.6l.3-.08Z"/><path class="cls-11" d="M246.62,262.69l-.54.17Z"/><path class="cls-11" d="M213.87,273.28l-.79.25.12,0Z"/><path class="cls-11" d="M202.22,277.05l.22-.06.37-.12Z"/><path class="cls-11" d="M248.57,387.62l.55-.14C248.93,387.51,250.64,386.95,248.57,387.62Z"/><path class="cls-11" d="M301.92,359.22a3,3,0,0,1-.13-.34l.13.39S301.94,359.3,301.92,359.22Z"/><path class="cls-11" d="M213.5,273.75l-1.85.59Z"/><path class="cls-11" d="M178.34,385.21l.14.42Z"/><path class="cls-11" d="M206.16,276.13l-1.05.31-.21.08Z"/><path class="cls-11" d="M249.13,387.48h0Z"/><path class="cls-11" d="M261.29,383.44c-1.76.57-.81.32-1.18.47a6.54,6.54,0,0,1-1.71.48l-3.28,1.13c-.08,0-.27.07,0,0-1.38.49-4.12,1.34-5.73,1.91l-.22.06c.27-.06.32,0,.27,0-.79.26-1.46.51-1.76.57.48-.16.52-.18.74-.27l-.82.28c-.76.19,1.13-.38,1.11-.42-1.61.54-3.48,1.19-4.72,1.58-.27,0,2.89-1,1.22-.46l1.92-.6c-1.49.4,1.17-.37-.21,0l-5.33,1.74c-.56.21.2,0-.36.19-3.56,1.2-2.85.79-5.46,1.7a27.59,27.59,0,0,1-2.79,1l.62-.26c-2.44.78-1.37.53-3.93,1.32.45-.17,1.91-.64,1.54-.53-1.67.49-1.16.41-2.43.82l-.28,0-8.32,2.75c.15-.07.64-.24,0,0-3.62,1.2-7.75,2.5-11.26,3.61l-1.32.47c-.31.1-.58.17-.25.05-1.37.43-.06,0-.71.28s-1,.31-.55.14c-2.4.81-6.83,2.3-9.38,3.07l.49-.17c-2,.62-2.2.81-4,1.36l.35-.12-1.63.52a9.16,9.16,0,0,1-1.65.44,5.67,5.67,0,0,1-3.26-.5,5.6,5.6,0,0,1-2.32-2.06,10.1,10.1,0,0,1-1-2.6c-.26-.6-1.35-4.25-1.52-4.5-.75-2.46-.51-1.76-1.6-5.22-.29-.92-.5-1.35-.88-2.49l0,0-.55-1.53-.21-.84-.36-1.06a6.92,6.92,0,0,1,.24.85c-.28-.83-.6-1.85-.85-2.67l-.31-1c-.08-.26-.12-.42-.12-.43l-1.32-3.93c0,.08.27.74.45,1.26-.73-2.09-.08-.4-.74-2.31.07.26-.07-.13-.09-.17-.29-1-1-3.16-1.53-4.78l.13.3-3.08-9.45c.37,1.18.23.93-.09,0l-.08-.4c-.23-.61.31,1-.14-.25s-.21-.84,0-.14l-.5-1.49c0-.09.11.26.15.34-.23-.6-.79-2.59-1.12-3.46v-.09l-2.43-7.44c-.06,0-.39-1.09-.68-1.87l-2.07-6.53a7.93,7.93,0,0,0-.46-1.22c0-.13-.77-2.5-.35-1.28l-2.38-7.21c.11.39.25.84.16.61a13.81,13.81,0,0,1-.42-1.4l.06.17c-1.36-4-2.91-9.34-4-12.53l.06.18-1.12-3.32c-.49-1.53.33.91,0-.23-1.23-3.57-1.83-5.68-2.83-8.63-.32-1.16-1-3.19-1.68-5.32a13.48,13.48,0,0,1-.84-3.17,5.32,5.32,0,0,1,.53-2.69l-.1.15a4.41,4.41,0,0,1,.83-1.34c-.08,0-.53.7-.26.28a5.49,5.49,0,0,1,1.92-1.72,17.31,17.31,0,0,1,2.52-.92l5.25-1.68,10.54-3.36c2.54-.81,1.4-.6,4.62-1.57l-.89.34L190.9,281c-.3.11-.3.12-.79.28.54-.15,1.51-.47,2.36-.75l1.1-.37L194,280a4.74,4.74,0,0,1,.67-.17c1.07-.32,2.65-.91,3.23-1.06l-.49.17c.69-.24,3.23-1,2.55-.86l5.1-1.65c1-.36,3.23-1,3.52-1.18-.11.11,3.32-1,4.5-1.43-.39.15,1-.31.58-.14a23.11,23.11,0,0,0,2.35-.81c2.53-.73,5-1.69,6.45-2l11.37-3.76c-.11.11-4,1.3-3.83,1.32,3.43-1.14,5.4-1.84,8.82-2.93.89-.28-.49.19-.79.3l9.7-3.17-.65.23c.6-.2,1.41-.44,1.33-.45l-.59.2c-1,.27,2.37-.86,2.47-.92-1,.42,3-1,1.44-.33a4.8,4.8,0,0,0,.79-.3c.59-.18.78-.23.19,0,2.16-.72,1.38-.5,3.34-1.13,0,0-.4.15-.59.23,1-.35,2-.7,3.63-1.22-.1,0,.1,0-.39.15l3.86-1.29a5.68,5.68,0,0,1,4.14,0c-.46-.12-.2,0,.18.12a3.73,3.73,0,0,1,.9.52,5.35,5.35,0,0,1,.68.52,6.32,6.32,0,0,1,.6.62s-.45-.53-.45-.53a5.79,5.79,0,0,1,1.25,1.74,18.67,18.67,0,0,1,.67,1.91l-.38-1.08.9,2.75-.48-1.56c.51,1.48,0-.18.63,1.78-.13-.4.48,1.47.69,2.24h0c.25.72.51,1.46.85,2.55.07.29-.13-.21-.08,0,.28.7,1.13,3.43,1.47,4.33-.11-.3-.14-.31-.12-.2l.23.59c.21.68.24.79.18.68.66,2-.14-.67.62,1.77l-.17-.49,2.26,6.95c.16.68-.65-2-.45-1.18l3.24,9.8-.18-.58c.22.41.72,2.34,1.27,3.91-.13-.39-.21-.49-.16-.39l2.51,7.61-.15-.4,1.5,4.69c.15.4.4,1.18.27.7,1.25,4.24,2.66,8,3.78,11.75-.14-.45-.36-1.06-.25-.7l1,3.17c0-.26-.12-.42-.31-1.1.15.4.46,1.29.71,2.07-.49-1.42,0,0,.13.65,0-.11.06.1,0,0,.48,1.68.16.26.85,2.53l-.06-.11.85,2.53c.08.39-.31-.9-.36-.94.42,1.28.89,2.51,1.23,3.68l-.63-1.87c.37,1.28.42,1.42.72,2.37l0-.09.68,2.18-.17-.56c.62,1.57,1.08,3.27,1.85,5.41-.74-2.08-.15-.34-.24-.48.17.56.43,1.4.34,1.17.37,1,.53,1.72,1,3.14a7.34,7.34,0,0,1,.24.88c.44,1.33-.08-.32,0-.22.71,2,1.51,4.84,2.53,7.76l1.84,5.34c.24.8-.26-.64-.26-.64.4,1.29.71,2.26,1.12,3.46-.09-.24,0,0,.08.39.32,1,.26.63.66,1.92-.09-.21-.2-.49-.37-1l1.17,3.44a8.17,8.17,0,0,1-.42-1.12c.21.66.53,1.53.73,2.27a7.18,7.18,0,0,1,.17,1.63l0-.44,0-.45c0,.51,0,.26,0-.11-.21-1.16-.43-1.66-.41-1.73l.14.42c.08.21.13.42.13.42-.17-.9-1.11-3.39-1.65-5.09l.29.69L301.6,358c-.1-.38-.15-.64.13.2-.37-1.23-.37-1.07-.68-2.13,0-.12,0-.07,0,0l-.4-1.18c.09.23,0-.21.21.52-.66-2.15-1.16-3.43-1.38-4.25l.06.18c-1-3-.14-.27-.91-2.48l-.38-1.53-.14-.28a6.9,6.9,0,0,1-.24-.81c-.4-1.13,0,.2-.2-.45-.44-1.48-1.34-4.05-1.37-4.41-.2-.52.43,1.42-.1-.15-.07-.47-.6-1.81-1-3.17.17.4.57,1.68.16.32-.33-.79-.84-2.62-1.22-3.75a15.17,15.17,0,0,1-.52-1.48l-.94-2.88c.06.11-1.13-3.59-1.69-5.37l0,0c-.16-.33-.75-2.16-1.19-3.48a4.94,4.94,0,0,1,.39,1l-.41-1.25c-.11-.29-.25-.68-.52-1.49l.14.3c-.54-1.66-1.13-3.34-1.8-5.48-.08-.11.45,1.74-.31-.52,0-.09,0-.18.2.4-.07-.19-.24-.69-.36-1.08l.33.89c-.3-1-.19-.5-.44-1.28,0,0-.17-.58-.11-.48s.21.68.32,1c-.28-.88-.61-1.95-.7-2.31,0,.08,0,0-.25-.63-.54-1.66-.15-.58-.45-1.56-.15-.4-.47-1.46-.53-1.48a8,8,0,0,1-.22-.78c-.3-.85-1.31-4-1-3l.07.22,0-.14h0c-1-2.81-1.88-5.87-2.8-8.66h0l-1.63-4.9a4.65,4.65,0,0,1-.27-1c-.43-1.27-.49-1.41-1.06-3.27.44,1.28-.12-.45.45,1.31-.53-1.66-.63-2-1.24-3.82a15.23,15.23,0,0,0-.63-2.05l.35,1.17-.79-2.45.19.41c-1-3.42-2.09-6.1-2.83-8.71-.32-.89.58,1.85.28,1.06-.5-1.56-1-3.22-1.12-3.7-.67-2.15-.72-2-1.43-4.22.08.29.12.58-.44-1.09s-.55-1.95-.22-1a5.07,5.07,0,0,1,.17.54c.17.5.39,1.16.21.54l-.08-.2c-.23-.78-.93-2.93-.74-2.44-.46-1.19-.18-.49.08.38a6.6,6.6,0,0,0-1.2-2.46,6,6,0,0,0-2.21-1.72c.32.14.58.34.28.16a5,5,0,0,0-2.1-.62,3.64,3.64,0,0,0-.38,0,6.17,6.17,0,0,0-1,.06c-.62.08-.51.06-.52.05a6,6,0,0,0-1.18.35c-1.27.39-.28,0,.22-.13-1.87.64-3.52,1.12-4.6,1.46l1-.33-1.57.52.58-.15-.76.24-.31.09c-.59.22.48-.09-.7.32-.78.23-2.36.78-2.64.83,2.45-.77-.28,0,1.78-.63l-1.47.47c-.09,0,.08,0,.24-.09-2.35.72-1.06.4-3.48,1.18.3-.12-.58.13-1,.27,1-.32.48-.11-.41.2-1.56.48-1.68.56-2.5.82l.93-.29c-.31.13-1.08.38-2.16.73-.1,0,1-.33.59-.22-1.19.43-2.73.83-4.39,1.4-.78.23-.09,0-.78.19-1.87.64-2,.62-4,1.29.58-.15.68-.19-.7.29l3.24-1.07-2.07.72,2.65-.87c-1,.35-.88.31-.41.18-1.36.38-2.65.89-4.21,1.36l0-.1c-2.34.72-4.12,1.38-7.15,2.34l1-.3c-.39.16-1.87.61-2.84.94a6.34,6.34,0,0,0-1,.25c.06,0-2.21.71-2.47.86l-1.36.4c-2.45.77-2.76,1-5.11,1.73a6.15,6.15,0,0,1,1.19-.46l-1,.34a3.54,3.54,0,0,0-.46.16c-.46.13-2.16.74-2.89.95-.33.12-.42.18-1.3.47-.1,0,0,0,0,0s-1.37.46-.59.25c-2.44.69-6.74,2.19-8.87,2.79l-5.32,1.74a1.29,1.29,0,0,1,.29-.11c-2.15.67-1.29.51-3.74,1.27-1.26.36,1.29-.44.5-.21-.37,0-2.94,1-4.59,1.44l.4-.13c-1.26.37-3,1-5.1,1.68,0,0,.1,0,0,0-1.39.5-4,1.37-6,2,.6-.23.89-.31.5-.22-.88.29.28,0-1.48.56-.58.17-1.86.56-2,.58l1.66-.54c-.87.22-2.15.7-3,1l.1-.06c-2.55.83-2.56.9-5.3,1.78l.29-.07c-1.48.54-1.26.37-2.74.9l-.47.09-5.21,1.76c1-.37,3.05-1.06,4.33-1.5-1,.32-3.33,1.08-3.83,1.27.39-.13.89-.31,1.28-.43q-1.78.65-4.71,1.6a19.49,19.49,0,0,0-2.61.77,19,19,0,0,0-2.24.8,6.56,6.56,0,0,0-1.48,1,6.08,6.08,0,0,0-1.78,5.13,19.81,19.81,0,0,0,.79,2.79l.94,2.91c-.38-1.45.38,1.17.39.9.31.93.42,1.29.45,1.38l.87,2.85c.19.68-.31-.88-.3-.79.66,2.05.24.87.66,2.24a12.17,12.17,0,0,1,.64,1.87l-.49-1.66c1,2.85.73,2.5,1.71,5.37l-.32-.9c.5,1.48,1.77,5.47,2.31,6.9.07.27.16.62-.05,0,1.14,3.54,2.63,7.86,3.48,10.62l-.11-.26c.22.66.41,1.14.66,2,0,0-.11-.26,0,0s.61,1.74.88,2.62l-.27-.74c1.09,3.46,1.78,5.28,2.73,8.17a12.38,12.38,0,0,0,.43,1.54l.8,2.55,0,0c1.3,4,2.27,6.81,3.5,10.53.68,2.33,2.51,7.84,3.68,11.57-.17-.57.08.08.3.73.27.88.83,2.4.72,2.28l-.1-.31c.16.68.75,2.46,1.21,3.86l.15.21c1.08,3.7,3.15,9.58,3.7,11.6l1,2.84-.06,0,2.17,6.69-.23-.61c.55,1.71.82,2.12,1.33,3.69l0,.25.06.25a6,6,0,0,0,7.9,3.5,2.83,2.83,0,0,1-.62.22c1.42-.44,5.44-1.71,4.91-1.62a3.15,3.15,0,0,0,.53-.15l1.23-.4,2.92-1-.24.12c1.34-.49,1.38-.52,3.27-1.15.45-.14.4-.1-.2.09,1.5-.46,1.15-.42,3-1l-.67.24c1.54-.5,1.41-.47,2.25-.77s2.92-.94,3.16-1,1-.39,1.94-.67c.13,0-.2.09-.37.15,2.58-.81,3.81-1.29,5.6-1.82a1.64,1.64,0,0,0,.31-.07l-3.54,1.14s1.67-.49.37,0c1.32-.46,3.57-1.25,5.18-1.75l.22-.06-.17.06,1-.34,1.34-.42c.2,0,1.9-.6,2.72-.86-.08,0,1-.36,0-.07l-.7.23-.35.12.06,0-2,.67c.64-.23,1.32-.47,2.24-.74l1.13-.44c1.15-.31,3.33-1,3.64-1,2.51-.84,5.92-1.93,7.48-2.52a10.65,10.65,0,0,1,1.1-.32l-1.12.38c1.42-.48,4.23-1.38,4.56-1.54a13,13,0,0,0,1.48-.43l-.33.12c4.9-1.49,7.88-2.7,13.31-4.34l-.64.19c6.17-1.95,12.68-4.15,18.78-6,1.73-.54,1.91-.64,3-1l.39-.08,1.79-.63c2.54-.86,4.46-1.33,7.67-2.44l-.43.11c1.16-.37,3.68-1.21,3.49-1.11a8.43,8.43,0,0,1,.83-.29h0l2.84-1c2.22-.7-.32.2,2.91-.84,1.2-.4,3.4-1.17,2.94-1s-1.24.39-1.29.38l1.09-.37c.18-.13,1-.47-1.71.35l-1.86.65-.62.16L297,372c-.91.26-1.47.47-2.1.7-.16,0-.42.11-.8.22l-1.82.66c-.23,0,.81-.32-.43.07-.85.31.85-.21-.58.27a17.06,17.06,0,0,0-1.7.52c-.15,0,.07-.05.48-.2-.93.32-2.48.81-3,1-.95.27-3.17,1-3.09.94-.29.11-1.64.58-2.5.87,1.55-.59-3.23,1-2.84.82-1.14.44-4.2,1.39-6.25,2.1l.52-.18-2.26.69c-.13.1-1.94.7-2.9,1.05-1.44.41.84-.35.38-.25.09,0-2.46.85-2,.73-1.1.32-.94.29-1.52.42-.17.13-1,.34-1.9.68-1.59.48-.43.07-2.15.65C259.75,384,261.29,383.44,261.29,383.44Zm-41.15,13.45h0l.85-.28ZM216.68,398l1.5-.48c.13,0,0,0-.35.14C218,397.6,217.2,397.86,216.68,398Zm7.41-2.09c-.55.18-.73.23-.81.25l1-.31.06,0Z"/><path class="cls-11" d="M225.06,395.55l.22-.08-.33.1-.19.08Z"/><path class="cls-11" d="M284.1,303.76l0-.07,0,.16Z"/><polygon class="cls-11" points="179.6 389.06 179.6 389.07 179.7 389.37 179.6 389.06"/><path class="cls-11" d="M290.15,322.87l.07.25Z"/><path class="cls-11" d="M292.81,331.1l.36,1.17Z"/><path class="cls-11" d="M294.84,337.44l.06.12h0Z"/><path class="cls-11" d="M247.14,262.81l-.24.08Z"/><path class="cls-11" d="M272,266.73l-.33-1A7.57,7.57,0,0,0,272,266.73Z"/><path class="cls-11" d="M213.7,273.69h0l-.21.07Z"/><path class="cls-11" d="M271.17,264.38l.45,1.39Z"/><path class="cls-11" d="M303.63,364.88a2.3,2.3,0,0,1,0,.31s0,0,0,0A2.47,2.47,0,0,0,303.63,364.88Z"/><path class="cls-11" d="M303.68,365.23l0,.35Z"/><path class="cls-11" d="M303.68,366.31s0-.73,0-.73C303.7,365.83,303.7,366.14,303.68,366.31Z"/><path class="cls-11" d="M301,356.49l0-.09A.3.3,0,0,0,301,356.49Z"/><path class="cls-11" d="M300.2,353.95c.19.61.46,1.53.75,2.38l0,.08C300.83,356,300.41,354.52,300.2,353.95Z"/><path class="cls-11" d="M296.93,343.26l.68,2.14c-.11-.38-.24-.88.07.09C296.86,342.79,297.83,346.06,296.93,343.26Z"/><path class="cls-11" d="M294.8,336.64c.38,1.14,0,0,0,0C294.6,336,294.54,335.78,294.8,336.64Z"/><path class="cls-11" d="M279.29,288.82l.07.1C279.07,288,279.35,288.92,279.29,288.82Z"/><polygon class="cls-11" points="276.14 279.75 276.39 280.61 276.56 281.01 276.14 279.75"/><polygon class="cls-11" points="274.65 274.26 274.78 274.65 274.29 273.18 274.65 274.26"/><path class="cls-11" d="M204.28,276.35l.28,0C205.16,276.1,205.27,276,204.28,276.35Z"/><path class="cls-11" d="M169.62,287.62c-.38.1-1.37.4-2,.62Z"/><polygon class="cls-11" points="176.26 379.98 176.02 379.29 176.46 380.6 176.26 379.98"/><path d="M227.89,316.64c-.93-.57-1.84-1.2-3.18-2.08.69,0,.87,0,1-.07l1.82-.39a10.33,10.33,0,0,0-1.52-1.64c-1.63-1.12-3.41-1.64-4.88-3.42a11.47,11.47,0,0,0-8.16-4.27c-1.74-.12-3.47-.11-5.22-.27-4.58-.44-9.12-1.26-13.2-5.08.71-2,.59-2.23-1.61-3.3-.35-.17-.72-.32-1.07-.48a29.76,29.76,0,0,1-7.13-4.7l-.16,1.21c2.12,1.88,6.79,4,9.76,5.37.55,1.21-1.6,1.66-1.09,2.18,4.64,4.72,9.93,5.89,15.35,6.25,1.87.12,3.72.12,5.6.39,3.22.46,5.73,2.5,7.72,5.67-2.45-1-4.88-2.43-7.4-1.69a24.41,24.41,0,0,1,12,7.31L220,316l-.08.81a7.86,7.86,0,0,0,1.67.7,12.91,12.91,0,0,1,7.19,3.86c2.53,2.52,2.41,5-.23,6.26-2.81,1.36-5.73.3-8.73-1.32-.81-.44-1.63-.84-2.45-1.26l-.15.64c2.67,2.38,5.73,3.34,8.83,4.15.16,1.94-.74,3.23-2.74,3.15a16.92,16.92,0,0,1-5-1.1c-2.58-.94-5.11-2.21-7.68-3.23a1.59,1.59,0,0,0-1.52.53c3.09.3,4.53,3.19,6.47,5,1,.94.89,1.91-.43,2.38-3.27,1.16-6.14-1.05-9-3-1.5-1-2.8-2.51-4.33-3.4-6-3.46-11.91-7-18.41-7.84l-.35,0c0,.47.07.94.1,1.41l.23,0c6.47.82,12.51,4,18.46,7.67,1.53.93,2.85,2.35,4.34,3.4,2.74,1.93,5.44,4,8.67,3.4,1.34-.27,2.91.12,4.36.1a5.58,5.58,0,0,0,1.59-.48,7.5,7.5,0,0,0-1-1.55c-1.64-1.49-3.34-2.91-5-4.36a21.3,21.3,0,0,1,4.83,1.75,6.93,6.93,0,0,0,5.9.14,53.08,53.08,0,0,1,5.17-1.57,14,14,0,0,0,1.35-.61l-3.2-2.9c2-.69,3.86-1.28,5.63-2a7.69,7.69,0,0,0,1.52-1A18.91,18.91,0,0,0,234.4,324a14.19,14.19,0,0,0-1.39-.75c-1.22-.84-2.41-1.74-3.62-2.61l.24-.56a10.4,10.4,0,0,0,1.4.19,8.85,8.85,0,0,0,1.33-.19c-.29-.43-.5-1-.87-1.26C230.31,318,229.08,317.37,227.89,316.64Z"/><path d="M221.24,315c1,.2,1.42-1.16.52-1.83a20.71,20.71,0,0,0-8.44-3.74,6.48,6.48,0,0,1,4,.1c1,.3,1.54-1,.7-1.73a8.23,8.23,0,0,0-4.81-2.07c-1.79-.16-3.58-.06-5.37-.08-5.19-.06-10.23-.89-14.45-5.07-.34-.34,2.18-2.52,3.4-4.11a1.17,1.17,0,0,0-.86-1.75c-2.85-.33-7.36.39-9.61-.31a.83.83,0,0,0-1.1.65,143,143,0,0,0-2.79,27.13h.33c6.22.41,11.76,3.46,17.33,6.39,1.43.75,2.61,2.09,4,3,2.68,1.68,5.33,3.6,8.54,2.35,1.3-.51,1.44-1.42.54-2.24-1.78-1.63-3-4.25-6-4.38a1.7,1.7,0,0,1,1.49-.57c2.42.83,4.8,1.88,7.23,2.63a15.75,15.75,0,0,0,4.76.78,2.54,2.54,0,0,0,2.67-1.91,1.21,1.21,0,0,0-.91-1.39,17.23,17.23,0,0,1-6.39-2.54,1.16,1.16,0,0,1-.41-1.47l.06-.11c.53-.9,1.95-.18,1.85.93,0,.23,0,.39.1.43,2.8,1.36,5.56,2.21,8.33.79,2.61-1.33,2.85-3.63.54-5.86a11.08,11.08,0,0,0-6.72-3.24,6.9,6.9,0,0,1-1.57-.57l.12-.76Z"/><path d="M154.61,275c-5.28,4.31-8.16,9.52-10.37,16.1a79.9,79.9,0,0,0-2.38,8.24l22.32,21.17,2-4.12c7.22,3,14,5.5,21.15,2.74a7.82,7.82,0,0,1,2.64-.57c2.15-3.74,4-7.68,5.85-11.65-6.11-10.68-11.93-21.76-24.61-28.22-.4-.2-.53-.86-.9-1.2-2.62-2.4-5.21-4.84-7.8-7.27A30.55,30.55,0,0,0,154.61,275Z"/><path class="cls-12" d="M314.51,305.39c2.06-.95,3.09-3.07,4.59-4.67l1.48.46-.26,1.46c1.7-1.42.55-7.05,0-9.3-.93-4.11-2.18-8.21-5.11-11.26a22.39,22.39,0,0,0-7.68-5.2A29.16,29.16,0,0,1,297,290.09l9.27,1.88-8.57,5.1,4.76,4.06c-.94,1.32-2.61,2.7-2.17,3.27,1,1.34,3.33,3.3,4.62,3.23A27.48,27.48,0,0,0,314.51,305.39Z"/><path class="cls-8" d="M312.87,296l-1.31-1.19-9.84,4.58L300.4,298c2.57-1.79,5.7-3.26,7.55-5.47s2.24-5,2.26-8.11l-6,5.15-1.43-1,6.15-8c8.65,3.79,12.14,10.09,9.2,16.56-3.24,7.12-9.09,10.15-15.23,8.16Z"/><path d="M319.2,304.28c-1.29-2-1-4.24.41-7a14.26,14.26,0,0,0,1.34-4.74c.11-.86.22-1.63.34-2.35-2.14-3.73-5.64-5.85-9.52-7.91-1.07-.57-2.11-1.15-3.12-1.75-1.78,4-2.84,8-.88,11.5a13.07,13.07,0,0,1,1.29,5.33c.4,5.93,3.69,9.19,9.77,9.13C319,305.74,319.47,304.7,319.2,304.28Z"/></svg>