<svg id="Layer_1" data-name="Layer 1" xmlns="http://www.w3.org/2000/svg" viewBox="0 0 394.62 411.48"><defs><style>.cls-1{fill:#fff;}</style></defs><title>vinylbox</title><path class="cls-1" d="M10,370.44c-1.57.44-3.44,2.05-4.41,2.86A37.63,37.63,0,0,0,0,379.09a54.79,54.79,0,0,0,8.34-1.46Z"/><path d="M327.34,112.11c0,1.39-.57,3.26,0,4.08,7.82,10.83,15.89,21.44,23.72,32.26,3.4,4.69,6.4,9.74,9.62,14.59,1.66,2.5,3.4,4.92,5.75,8.31-25.11,6.34-49.42,12.75-73.83,18.56s-48.86,11-73.29,16.48l-.12,1.19c2.06.27,4.2,1.15,6.16.72,26.25-5.8,52.5-11.62,78.7-17.77,17.7-4.16,35.33-8.86,53-13.29a2.69,2.69,0,0,1,2.51.61c-47.35,13.24-95,24.4-142.6,35.72l0,1.19,4.56.13.08.68-37.53,7.82-.23-1.35,19.77-5.71c-30.56,5.6-60.38,15.08-89.57,24.22a14,14,0,0,1,0,2.94c-.84,3.69,3.26,7,7.7,5.88,6.69-1.61,13.36-3.4,20-5.07q44-11,88.07-22c31.73-8,63.44-16.07,95.17-24.06,9.35-2.35,18.7-4.68,28.1-6.67a9,9,0,0,0,6.81-5.45c1-2.06,2.3-3.93,3.2-6,.41-.94.15-2.21.23-4.15l4.55-4.09c2.22,4,5.23,1.81,8,1.1,2.4-.6,4.78-1.35,7.17-2l.31,1.5c-3.37,1-6.73,2.07-10.11,3a29,29,0,0,0-2.88.58c-.56.23-1.46,1.3-1.39,1.44a35.78,35.78,0,0,0,3.8,6.34c.52.63,2.2.07,3.84,0l.57,1.62,17.29-4c-1.92,2.13-4.3,4-5.79,6.54-9.93,16.76-19.68,33.65-29.49,50.49-2.38,4.09-8.53,5.32-12.07,2.66a2.85,2.85,0,0,0-2.92.63c-6.15,10.11-12.14,20.34-18.65,31.34,4.81-1.3,9.36-1.58,13-3.82,2.7-1.67,4.27-5.82,6.2-9a188.28,188.28,0,0,1,10.63-16.33,11.93,11.93,0,0,1-.73,1.78q-24.23,39.79-48.46,79.58c-.81,1.33-1.25,2.93-2.05,4.27a4.72,4.72,0,0,1-2,1.9c-4.55,1.9-9.13,3.73-13.74,5.43-.93.34-2,0-3.58,0l2.91-2.46c-1-2-1.62-4.55-3.1-6a5.76,5.76,0,0,0-5.09-1.39c-20.92,7-41.72,14.58-62.68,21.38-11.41,3.7-22.66,8.06-34.14,11.41a25.2,25.2,0,0,1-3.21.52l0,.12c5.58-2.23,11.19-4.36,16.74-6.72,3.82-1.62,7.52-3.6,11.32-5.29a17.71,17.71,0,0,1,4.76-1.42c1.55-.21,3.24.57,4.67.07,7.59-2.63,15.1-5.65,22.69-8.31a46.77,46.77,0,0,0,18.71-11.81c1.87-1.94,4.46-3.16,6.86-4.31a28.82,28.82,0,0,1,5.95-1.71c1.83-.43,3.69-.71,5.54-1.06l.17,1.21c-3.65,2.72-8.59,3.08-12,8,5.24-1.45,9.71-2.33,14-4,2.5-1,5.33-2.63,6.83-4.91,3.2-4.84,5.6-10.29,8.37-15.47s5.59-10.29,8.38-15.46c.65-1.5,1.23-4.15,2-4.26,2.88-.4,2.82-2.33,3-3.86L182.54,319.48c1.22,3,3.45,1.8,5.3,1.26,24.55-7.12,49.12-14.11,73.6-21.57,13.56-4.13,26.94-9.08,40.63-13.74l.6,4.09a54.89,54.89,0,0,1-5.3,1.58c-3.16.62-6.39.79-9.51,1.59-4.29,1.1-8.51,2.6-12.75,4-.78.26-2.13.86-2.13,1.25,0,3.5-2.83,2.37-4.26,3.14-1.78,1-3.94,1-5.92,1.47-2.38.6-4.77,1.2-7.12,1.92-7.81,2.39-15.61,4.83-23.41,7.25-.53-.09-1.47-.61-2.16-.32-4.23,1.79-8.53,2.82-12.8,5.17-8,4.4-16.5,9.25-25.94,8a5.32,5.32,0,0,0-3.24.36c-4.1,2.4-9,.6-12.95,3.91-.27.23-1.32-.11-1.5-.49a4.39,4.39,0,0,1-.28-2.44c.11-.59.75-1.09,1.15-1.63l-.29-1.15c-3.18.47-6.45.51-9.52,1.47-16.4,5.11-32.74,10.5-49.13,15.65-3.64,1.14-7.44,1.54-11.13,2.53-2.26.61-4.95,1.11-4.66,6.06,10.49-3.44,20.66-6.84,30.86-10.09,10-3.19,20.07-6.24,30.12-9.31,2.72-.83,5.45-1.6,8.2-2.23.65-.15,1.39.4,2.1.62-.64.62-1.21,1.52-1.94,1.79-1.14.42-2.43.25-3.59.63-12.82,4.17-25.67,8.2-38.41,12.69-6.64,2.34-13.07,5.53-19.59,8.33a1,1,0,0,1,.21-.3c-.9-.11-2.42.08-2.59-.39-.92-2.56-2.49-1.34-3.8-.74-3.12,1.43-3.53,4.32-3.48,8l3.26-1.22c-.27.78-.43,2.14-.81,2.24-3.43.93-2.82,4.15-3.63,6.71,3.15-1.17,4.56-6.47,8.81-4.67l-3.16,4.42-7.13,4,.45,1.38,5.74-1.15-.74-1c-1.83,1.78-4.75,3.29-5.26,5.4-1.14,4.68-1.07,9.66-1.49,14.52l0-.63c-1.46,4.32-3,8.91-4.33,12.7l3.77.87a11.69,11.69,0,0,1-4.18,2.79c-5.86,1.86-11.8,3.83-17.68,5.6a1.32,1.32,0,0,0-.69.45c-.93,2.2-2.18,1-3.74.51,4.28-2.65,2.74-6.48,1.22-8.89-3.16-5-3.39-10.91-4.76-16.49-.65-2.66-1.93-5.12-2.37-7.81a42.19,42.19,0,0,1-.1-8c.06-1.74.4-3.48.55-5.22.56-6.44,1.45-12.89,1.55-19.31.09-6.11.14-12.45-1.2-18.21-2.73-11.81-6.63-23.22-9.63-34.94-4.57-17.89-8.66-36-13.22-53.87-2.07-8.11-4.87-16-7.12-24-.49-1.75,0-3.86,0-5.81q0-14.88,0-29.76c0-1.86-.52-3.43-2.48-2.65-1.75.7-5-.71-4.76,3.39.26,5.18.82,10.33,1,15.52.15,3.45-.52,7.06,0,10.38.78,4.83-1,9.21-1.41,12.77-1.35-3.2-3-7.16-4.69-11.14a5.52,5.52,0,0,1-.28-1.45c-.77-6.61-1.74-13.2-2.24-19.85-.44-5.85-.49-11.76-.48-17.66,0-11,.4-21.94.29-32.88-.34-32.08-.83-64.15-1.3-96.22-.06-4.27-.35-8.52-.07-13.14,2.18,6.62,6.76,4.17,10.76,3.65l15.5-2L42,28.43l-4.55,1,.12,1.27c21.35-1.3,42.6-5.14,63.87-8l2.56.06c5.22-.56,10.52-2.19,15.93-.11,1.68-.5,3.89-1.55,6.13-1.76,13.2-1.23,26.41-2.31,39.61-3.45A18.73,18.73,0,0,0,172.19,16h-8s0-.38,0-.6L217.8,8.91l.08.76-26.36,4,.06.94L241.84,8.7l0-1.22-9,.82c3-2.33,8.38.33,8.58-8.3,4.08,8,9.41,5.15,14.43,4.34a10.58,10.58,0,0,1,5.21.54L250.55,9c5.66,7.79,10.92,15.16,16.31,22.4,4.06,5.46,8.37,10.67,12.39,16.16,2.07,2.82,3.47,6.44,7.94,5.85l-2,2.17,16.91,25c3.41,5,6.72,10.14,10.28,15,1.57,2.16,2.52,5.78,6.27,4.41-2.25.65-2,2-.88,3.42,1.37,1.75,3.33,3.15,4.12,5.18C323,111.52,324.81,112.23,327.34,112.11ZM92.14,124.79l-2,1.92.2,1,4.4.2a26.9,26.9,0,0,1-5,1c-3.49,0-4.56,1.95-4.58,5.56-.06,11.14-.4,22.29-.41,33.42a28,28,0,0,0,1.4,6.94c1,3.65,2,7.26,3.07,10.88l.09-.06c-1.05-2.25-2.28-4.42-3.12-6.77-1.9-5.38-3.56-10.87-5.41-16.27-3.69-10.79-7.57-21.48-11.11-32.33-3.17-9.72-6-19.58-9-29.33l-5.36-.09c5.15-1.4,5.15-1.4,3.29-6.56q-2.71-7.5-5.43-15Q46.74,61.61,40.29,43.87c-1.67-4.61-1.65-10.66-8.33-11l2.73-2.63-.26-.93c-2.51.46-4.87.26-7.38.72,0,.26.08.12.14.13l4.25,1s-.21,1.28-.24,1.59c-3.45.29-7,.91-10.43,1.2l-.24,1.19c.73.66,1.44,1.4,1.92,1.83-.33.88-1,1.88-.86,2.46.65,2.1,1.26,4.43,2.55,6,.7.84,2.72.41,4.14.41s3.14-.16,4.71-.26c-6.67,2.84-9.21,7.61-8,15a9.57,9.57,0,0,1,0,2.31c-.28,3.16-1.39,6.6,3.37,8.39-4.58.7-3.75,3.45-3.25,5.58.41,1.78.83,3,.14,5.17-1.75,5.51,0,7.62,5,7.5.12,0,.23.34.35.52-1.55,2-6.77-.64-5.74,4.75l8.37.9c-2.4,1.06-4.83,2-7.18,3.22a3,3,0,0,0-1.44,2,2.11,2.11,0,0,0,1.52,1.56c2.5,0,5-.23,8.32-.44l-1.34-6.34c.46-1.35,1.27-2.7,1.31-4,.21-6,.3-12,.21-18,0-1.15-1.08-2.22-1.79-3.58,2.11-5.84,2.42-19.38.26-21,.83-1.15,3.39-2.41.12-3.46l2.32-4.75c.77,2.37,1.42,4.25,2,6.18,1.54,5.26,2.85,10.63,4.59,15.79C46.44,75.49,51,88.18,55.38,100.91c1.41,3.81,3,7.55,4.21,11.45,5.43,17.35,10.46,34.89,16.2,52.1,5.28,15.83,11.29,31.33,16.93,47a8,8,0,0,1,.1,2.37c-5.65-1.46-10.37,1.58-15.1,2.67l4.47,20,12.74-2.23c2.6-.46,3.34-1.78,2.13-4.47-1.63-3.65-3.1-7.4-4.51-11.17a18.61,18.61,0,0,1-.41-4l2.83,1.4c0,1.81-.42,3.17-.05,4.16,1.59,4.24,3.37,8.39,5.15,12.53.92,2.15.73,2.81-1.77,3.11-4.77.56-9.51,1.78-14.29,2.74l5.83,19.08c7.3-2,14.53-3.94,21.72-6.11.67-.2,1.59-2.06,1.43-2.88-.79-4.18-.84-9.11-6.48-9.22l2.42-3.86-4-.24c2.52-1.54,3.88-2.54,5.41-.3a3.4,3.4,0,0,0,3,1.21c10.06-2.25,20.11-4.58,30.13-7.1,20.76-5.23,41.49-10.59,62.24-15.87.8-.2,1.92-.52,2.41-.11,1.13,1,2.06,2.63,3.27.3.15-.3-1.71-2.5-2.87-2.74-2.16-.46-4.5-.13-6.76-.11-.69,0-1.39.08-2.08.13a26.16,26.16,0,0,1,8.61-3.49c15.94-3.58,31.87-7.22,47.84-10.5,4.52-.93,6.69-2.47,8.1-8.11,6.53-26.21,13.88-52.22,20.87-78.32,1.24-4.65,2.18-9.38,3.32-14.37l-3.5-.11,2.75-1.77c-1.27-3.23-3.44-3.28-5.92-2.45l1.35-2.41a21.65,21.65,0,0,0-4-.08c-10.7,1.95-21.38,4-32.08,5.91-1.84.32-3.75-.11-5.63-.2l.07-1.43L281.28,87c-2.87-2.15-4.28-7.65-9.78-6.89,2.34-2.7.66-3.62-1.44-3.93-2.5-.36-5.05-.35-7.58-.5l-2.39.78-1.94-2.62,8.35-1.47c-1.63-4-4.47-3.66-7-3.43-5.65.51-11.31,1.23-16.95,2q-18.62,2.64-37.23,5.47c-8.17,1.24-16.33,2.63-24.5,4l.07,1,15.06-2,0,1-18.56,3.42c-.32-.49-.65-1.43-.95-1.4-2.74.27-5.46.72-8.2,1.11C169.7,80.66,167,82,166.66,82c-5.5.56-11,1.41-16.49,2a34.39,34.39,0,0,1-5.74-.33,27.44,27.44,0,0,1,3.44-1c5.75-.85,11.5-1.63,17.26-2.43l0-1c-3.91.32-7.83.59-11.74,1-3.71.37-7.41,1.92-11.12,1.61l0-1.4,20.09-2.86c0-.46-.4-1-.43-1.44-7.47.61-15.51,1.08-22.85,1.75l.5-2.16c-5.21,4.81-10.4,3-15.86,4.88.37-1.22.78-2,1-2.56-4,.87-7.82,1.6-11.65,2.66-1,.29-1.85,1.62-2.78,2.46l-8-1.29,4.6-2.26c0-.39-.08-.78-.13-1.18L77.53,84.12l2.09-4.37L65.1,84.17l0,.65L77.66,84c1.5.28,3,.68,4.52.81,1.87.16,3.76.1,5.64.13v-.19l1.28,2.67A52.63,52.63,0,0,1,83.65,89C79.12,89.75,74.58,90.36,70,91l.13,1.22L91.7,89.7l.06-1.36-2.91-.86,12.77-2.92c.77.46,1.56,1.41,2.29,1.32,5.31-.7,10.6-1.69,15.91-2.45,6.68-1,13.36-1.77,20-2.65l.08,1.18c-7.57,1.14-15.15,2.21-22.72,3.43S102,88,94.35,89.29l.11,1.21c9.1-1.38,18.2-2.85,27.31-4.12,7.59-1.06,15.19-1.9,22.79-2.83-1.06.57-2.1,1.5-3.19,1.67-10.59,1.62-21.2,3.07-31.8,4.67-3.82.58-7.62,1.44-11.44,2.17l.09.83,21-2.56,0,.64-32,6.23,0-1.88L70.76,97.38l.1,1.58L87.47,97l-1.61,1.31c5.27-.18,9.94,0,14.58-.56,10-1.2,20-2.77,30-4.18A14.41,14.41,0,0,1,127,95.29c-6.44,1.13-12.91,2.1-19.36,3.11l-13.86,2.14c-6.23-1.7-12.22,1-18.35,1.29l.14,2,18.28-3.33c-2.45,4.1-6.33,3.26-9.75,3.89-3,.55-6,.82-9.88,1.32,4.28,3,21.11,1.31,24.76-1.79l2,3-23.11,3.19-.38,2.7,8.26,2.8c-3.74.89-1.67,4.24-2.45,5.68l5.54,1.94-5.36,1.35.11,1.13ZM127.5,53.7c-2.16.09-4.33,0-6.48.28Q104,56,87,58.26a17.4,17.4,0,0,0-2.72.81,9.4,9.4,0,0,0,4.61.28c10.14-1.3,20.28-2.56,30.41-4,2.74-.38,5.45-1.19,8.18-1.78l16.54-1-.1-1.81ZM93.62,73.16,92.05,74.4l.22.69,43.22-6.15a2.11,2.11,0,0,0-2-1.17c-3.72.27-7.45.38-11.14,1-5.76.91-11.49,2.16-17.23,3.27l1.12-2.5-28.79,5,.13,1.39Zm40-10.53c-2.4.11-4.81,0-7.2.36-11.72,1.55-23.45,3.13-35.15,4.88-1.61.24-3.15,1.48-4.72,2.25l.36,1.19c1.42-.21,2.85-.39,4.26-.63,10.73-1.83,21.47-3.6,32.19-5.55,3.43-.62,6.8-1.72,10.21-2.59,5.65,1.39,11.07-.73,16.58-1.49l-.11-1.36Zm3.93,8.3c-2,.08-4,0-5.93.25-11.69,1.57-23.39,3.13-35.07,4.92-2.63.4-5.2,1.72-7.79,2.62l.32,1.5c1.87-.35,3.76-.61,5.61-1.07,2.69-.67,5.34-1.67,8-2.2s5.55-.64,8.32-1c7.4-1,14.81-1.93,22.2-3.09,1.45-.23,2.82-1.32,4.25-2l19.86-1.08-.1-2.22Zm112.21-8.27c-9.28,1.47-18.56,3.1-27.86,4.36-10.43,1.41-20.89,2.45-31.34,3.71a44.82,44.82,0,0,0-4.75,1.09l0,1.3c2.28.21,4.59.87,6.82.54,15-2.2,29.94-4.58,44.9-7,4.66-.74,9.31-1.65,14-2.48l.15,1.05c-7.2,3-14.92,2.84-22.31,4.73l.11,1,30.38-5.28V64L251,62.82l5.51-2c-3.26-3.5-5.91-.46-9.48.54ZM189.33,51.19c7.28-1,14.59-1.75,21.85-3.07,9.29-1.69,18.52-4.5,28.59-1.44L237.71,38l2.79.94c.67-2.92,1.26-5.62,1.92-8.32.58-2.4,0-3.52-2.41-3.37a20.4,20.4,0,0,0-7.56,1.71c-3.26,1.46-7.15,1-10.76,1.43-2.07.26-4.14.73-6.2,1.1l.1,1.21,7.22.47c-.79,1.52-1.3,2.5-1.82,3.46-1.9-.56-3.78-1.21-5.71-1.59-.43-.08-1.06.8-1.6,1.23.62.37,1.23,1.08,1.85,1,1.81-.09,3.62-.47,5.43-.74L233.44,35l.41.9c-.57.41-1.12,1.12-1.71,1.19-2.63.31-5.28.31-7.91.66-14.34,1.88-28.68,3.82-43,5.74L206.73,38c-1-2,.29-3.57,5.22-5.61L210.77,30c3.78-1.25,7.3-2.79,10.92-3.49,3.81-.74,7.74-.3,11.56-1,10.58-2,9.82,1.24,13.19-11.05a26.87,26.87,0,0,0,1-3.07,15.07,15.07,0,0,0-.13-3c-.81.3-1.63.55-2.42.91s-1.44,1.06-2.19,1.17c-9.3,1.27-18.61,2.58-27.92,3.65-14.64,1.68-29.28,3.2-43.93,4.77C158,20.25,145.19,21.58,132.38,23c-3.51.39-7,1-10.51,1.55l0,.91,3.33.58,0,1L94.56,28.9l-.09-1.11,18-3.19-.14-1A437.37,437.37,0,0,0,40,36.23l2.91.38-.05,0c-.54,1.2-1.77,2.68-1.52,3.57,1.93,6.73,4.15,13.35,6.08,19.4,2.09-1.15,3.2-2.15,4.39-2.34,2.89-.46,5.81-.44,8.72-.78q23.44-2.71,46.88-5.51c6.16-.73,12.32-1.51,18.48-2.27l0-1.32-12.48-5.65.26-1.67L131,38.66l0,.89-3.32,1.73.2.68,3.07-.09c1.14,6.31,1.25,6.39,7.12,5.36a26.22,26.22,0,0,1,3.24-.64c7.24-.31,14.47-.55,21.7-.81l-6.23,1.31,0,1a20.74,20.74,0,0,0,3.57.2c4.36-.48,8.72-1,13.07-1.65,18.47-2.69,36.94-5.44,55.41-8.07.86-.12,1.84.57,2.66,1.08a30.18,30.18,0,0,1,2.93,2.46c-26,5.76-52.16,6-77.79,11.88l.06,1,6-.83c.63.52,1.29,1.56,1.89,1.49,7.81-.85,15.61-1.82,23.41-2.88C188.45,52.79,188.87,51.77,189.33,51.19ZM136.17,278.07l-.07-.1a27.78,27.78,0,0,1-4.07,1.61c-5.87,1.33-11.8,2.31-17.61,3.91a7.38,7.38,0,0,0-4.42,3.95c-.91,2.69-.66,5.8-1,9.53l81.19-24.56-.15-1.05c-9.67-.91-18.95,3.56-28.51,4.35l84.8-22.08.19,1.06-46.71,12.88,0,1.18c1.44.2,2.94.84,4.3.52,12.08-2.84,24.2-5.51,36.19-8.87,28.4-8,56.72-16.28,85.09-24.42a5.15,5.15,0,0,1,2.79-.28c4.31,1.4,6.65-.32,7.22-6.2-28.94,7.08-57.38,15.82-85.92,24.65-.47-3.12.95-7-3.64-5.76-16.41,4.45-32.85,8.81-49.28,13.17a6.91,6.91,0,0,1-1.8,0l-.2-1.18c2.69-.9,5.36-2,8.09-2.68q35.49-9.33,71-18.53c2.93-.76,5.95-1.06,8.87-1.87,7.36-2.05,14.69-4.27,22-6.44q17.94-5.28,35.88-10.59c.77-.23,1.83-.54,2.18-1.18,4.32-7.95,8.54-16,12.81-24a8.79,8.79,0,0,0-10.18,1.53c-.74.8-1.69,1.94-2.52,2-6.15.17-12,5.42-18.43,1.79l1.48,4.47,6.74-1.37.19,1.56L321,207.44c.12,5.88-7.78,11.51-14.3,9.44l6.08-5-2.65-1.18,10.76-7.07c-2.62-.29-4.65-1.06-6.51-.63-9.69,2.25-19.34,4.83-29,7.25-20.28,5.08-40.58,10.08-60.85,15.26-2.33.6-4.5,2.16-6.74,3.28l.33,1.24,9.4-1.36.13.8-5.5,2.15,1.26,1.83c-1.13,1.42-2.22,2.73-3.25,4.08-.87,1.14-1.53,3-2.56,3.38-3.47,1.17-7.06,1.8-10.6,2.63l-.29-1.51,9.39-4c-1.27-1.18-1.89-2.23-2.73-2.46-3.58-1-7.39-1.32-10.79-2.75-3.79-1.59-7.22-.1-10.79.77-8,1.94-15.93,4-23.9,6q-23.47,5.82-46.93,11.64c-1.17.29-3,.64-3.31,1.5-1.79,4.27-3.19,8.72-4.93,13.69l5.22-.63c-2,1.46-4.84,2.43-5.25,4-1,3.8-.79,7.9-1.1,12.27l4.72-.78Zm14.6,9.37.26-.26c-12.11,3.29-24.19,6.69-36.33,9.8-4.28,1.1-7.21,3.12-7.67,8.33a9.12,9.12,0,0,1-1,2.48,132.84,132.84,0,0,0-20.78,5.46c-.9.3-2,2.3-2,3.49-.15,4.73-3.76,9.43-.83,14.2.07.11-.45.59-.53.93-1.38,5.94-2.74,11.88-4.14,18,2.43-1,4.18-1.78,6-2.36,3.77-1.22,7.54-2.43,11.36-3.41,2.34-.6,3.54-1.88,4-4.56,1.36-7.7,3-15.36,4.36-23.06a56.06,56.06,0,0,0,.29-7.71c2.19-.39,2.93,1,2.55,3.5-.71,4.73-1.46,9.46-2.24,14.45,3.44-.25,6.44-.4,9.42-.74a3.85,3.85,0,0,0,2.2-1.26c3.59-4.08,8.22-5.42,13.15-3.68-1,2.58-7.36.35-4.63,6.46-6.43,1.41-13.32,2.59-18.78,4l.45-1.95c-3.75-1.54-3,2.81-3.72,4.47-.88,2.16-.61,4.83-.89,7.3a83.9,83.9,0,0,0,9-1.81c9.54-3,19-6.29,28.56-9.32,6.81-2.16,13.65-4.22,20.52-6.06,5-1.33,10-1.93,15-3.39,3.59-1.07,6.91-3.44,10.5-4.5,26.78-7.89,53.6-15.59,80.4-23.37,1.5-.43,2.95-1.09,4.42-1.64l.08-1.24c-1.15-.26-2.35-.93-3.44-.71a57.43,57.43,0,0,0-6.72,2.14c-7.87,2.66-15.73,5.36-23.62,7.94a11.16,11.16,0,0,1-3.26.09v-1c6.67-2.2,13.32-4.34,20-6.53,0-.28,0-.77-.12-.79l-3.39-.78c.81-1.87.75-1.07,1-1.14,8-1.88,15.7-6.81,24.2-5.13a4.2,4.2,0,0,0,1.79-.42c10.86-3.31,21.69-6.85,32.6-9.86,4.46-1.23,5.23-4.9,6.37-8.77a17.62,17.62,0,0,0-5.75,4.4c-2.72,3.27-6.12,4.21-9,2.25,1-1.74,1.63-4.23,3-5a51.38,51.38,0,0,1,12.49-5.59c1.8-.47,2.74-.93,3.58-2.49,3-5.54,6-11,8.91-16.62a13.18,13.18,0,0,0,.74-3.28c-1-.15-2-.64-3-.39-6.26,1.69-12.48,3.57-18.72,5.32-16.63,4.64-33.22,9.58-49.94,13.65-5.87,1.43-8.14,7.07-13.48,9.84l5.36.7.05,1.34-10.68,2.72,4.26-9.28a7.62,7.62,0,0,0-2,0c-17.26,4.22-34.56,8.26-51.77,12.79-10.94,2.88-21.76,6.45-32.61,9.78C154.63,285.73,152.72,286.66,150.78,287.44Zm-49.65,12.22.34,1c-.85.37-1.69.75-2.54,1.11-4.3,1.81-8.62,3.56-12.89,5.47-.64.28-1,1.28-1.55,2,.8.3,1.64,1,2.38.84,5-1.11,10.05-2.27,15-3.73,1.21-.36,2.94-1.75,3.17-2.9,1.8-9.09,3.34-18.23,4.87-27.36.73-4.35,1.21-8.74,1.92-13.09.36-2.21,1-4.38,1.5-6.64-6,.88-11.9,1.1-17.53,2.82a9.58,9.58,0,0,0-7.1,8.17c-.71,6.93-1.42,13.86-2.13,20.83l2.11,0a32.46,32.46,0,0,0-2.41,5.35c-.55,2.19-.35,4.56-.88,6.76-.84,3.46.57,3.73,3,3ZM84.61,389.05l-.09-.85a9.18,9.18,0,0,1,2.33-1c4-.5,5.11-3,5.38-7.16.37-5.52,1.32-11,2.2-16.52,1-5.9,2.12-11.77,3.3-18.16-1.48.31-2.45.27-2.56.57-2.05,5.8-6.41,4.45-10.28,4.72a32.44,32.44,0,0,0-3.61.69c-1.83.34-3.13,1-3.38,3.52-.5,4.87-1.3,9.72-1.93,14.58,0,.34.24.71.45,1.27,1.79-.4,3.44-.8,5.1-1.14s3.22-.59,4.83-.88l.45,1.82c-2.7,1.64-5.29,3.74-8.14,4.79A6.07,6.07,0,0,0,74.23,381a36.6,36.6,0,0,0-.52,6c.12,1.78.89,3.47,1.55,5.85-2.73,4.65-3,8.66-.4,10.81l-3.12,3a83.21,83.21,0,0,0,15.51-3.86,3.07,3.07,0,0,0,1.71-1.93c.71-4.17,1.21-8.36,1.83-12.93Zm206.85-55.78c4-1.26,7.52-1.7,10.37-3.52,1.55-1,2-4.29,2.9-6.55a3.87,3.87,0,0,1,.47-.62c3.42-4.94,7-9.77,10.2-14.86s6.11-10.63,9.33-15.83c4.09-6.62,8.37-13.11,13.13-20.53-7.56,2.69-15.73,1.9-18.09,12.65l8.35-2c-.33,1-.82,1.45-1.32,1.51-7.46.85-12.12,5.72-15.06,13.1a3.23,3.23,0,0,1-.2.34Zm64.31-112.18.45.73,6.1-.46.35,1.12c-5.2,2.58-12.11,2.81-13.14,11.69l11.36-5.48-.23-.74-5.31.83-.21-1.44c1.64-.36,3.3-1.08,4.9-1,3.36.16,5.56-.66,7.4-4.54,3.94-8.33,8.44-16.37,13-24.34,2.33-4.09,5.26-7.79,7.91-11.66l-.66-1c-3.07,1.15-6.09,2.78-9.22,3.3a8.16,8.16,0,0,0-6.32,4.29c-3.83,6.86-7.62,13.75-11.23,20.75-.5,1,.16,2.62.27,3.82ZM32,123.75l.08.54a17.08,17.08,0,0,1-4,1.09c-3.42.06-4.5,1.88-4.2,5.43.26,3.11.15,6.27.24,9.4.05,1.93-1.44,4.74,1.48,5.22,3.92.65,7.56-2,7.67-5.21.36-10.63.87-21.27,1-31.89,0-1.9-.47-4.68-4-3.8-5.29,1.34-5.33,1-5.78,7.21-.1,1.34-.35,2.68-.46,4-.66,8.39-.65,8.39,7,7.87A5.84,5.84,0,0,1,32,123.75Zm-2.66,34.53c4-1.6,3.84-4.69,3.12-7.81-.82-3.52-3.46-1.87-5.45-1.7-1.72.14-3.3.47-3.14,3.34.29,5.26.19,10.57.37,15.85,0,.92.45,2.28,1.06,2.58,3.14,1.54,6.75-1.21,6.87-5,0-1.34,0-2.7.22-4C32.71,159.12,32.25,157.68,29.35,158.28ZM132.35,55,85.3,61.23l.08,1.44,42.29-5.53,0,1-41,6.19.11,1.29,60.37-7.72-.06-1.66-16.72,2.1Zm40.3,11.2v1l1.73-.07c11.91-.34,23.63-4.49,35.72-3.33a24.74,24.74,0,0,0,18.51-5.23Zm.37-3.17.28,1.69,38.15-5.68-.09-1.18Zm41.67,10.36-.14-1.51-34.76,5.45.11,1.36ZM81.31,65l.13-1.51a21.71,21.71,0,0,0-4.52-.36c-1.73.2-3.42,1.06-5.16,1.37-4.67.83-9.36,1.51-14,2.31-.28,0-.51.62-.81,1Zm11.5,27.93-.1-1.54L70.19,94.25l.09,1.31ZM186,47.46l-.09-1.2-23.83,3.62.05.79ZM64.08,79l.07,1.23,21.47-2.25-.07-1.36Zm-2.53-4.29.1,1.22c4.72-1.19,9.73.91,14.33-1.71l-.13-1.42Zm76.19-7.14.09,1.27,17.75-2.36-.1-1.38ZM83.2,56.43,83,55.27,60.91,57.79l.05,1ZM81.48,69.5l-.18-1.29L67,69.61,67,71ZM240.2,51.32l8.49,1.95C245.79,48.5,245.24,48.37,240.2,51.32Zm-44.83,4.35-.2-1.06-15.54,2.1.08,1.14ZM61.89,60.12,62,61.4l12.82-1.1,0-1.18Zm-4.58,3.55V64.8L70.15,63.1l-.05-.87Z"/><path d="M179.71,360.5c-1.8.78-3.57,1.72-5.41,2.33Q136,375.43,97.74,387.92a17.7,17.7,0,0,1-3.91.39l.1.11a10.55,10.55,0,0,1,2.16-1.47c10.63-3.82,21.23-7.77,31.93-11.29,13.37-4.4,26.82-8.41,40.22-12.67a20.16,20.16,0,0,0,3.71-2.14l-.36-1.06-10.46-.48-.1-1.37,15.08-4.49,3.61,7.18Z"/><path d="M290,200.52c1.32-1.46,2.12-3.06,3.17-3.38,4.19-1.24,8.45-2.13,12.71-3,.58-.12,1.25.53,1.85.81C306.21,201.48,296.66,202.43,290,200.52Z"/><path d="M349.79,141.2l22.32,29.57c-3.14.72-4.06-.82-5.34-3.18-2.71-5-6.43-9.29-9.66-13.93-2.72-3.91-5.34-7.9-8-11.86Z"/><path class="cls-1" d="M327.34,112.11c-2.53.12-4.34-.6-5.48-3.5-.79-2-2.75-3.43-4.12-5.18-1.14-1.45-1.38-2.78.88-3.42q3.54,3.8,7,7.61l1.55,4.61Z"/><path d="M78.39,24.07,43.76,28.59l-.07-1.15,34.66-4.18Z"/><path d="M129.63,18l31.21-2.63C150.52,18.46,140.1,18.38,129.63,18Z"/><path d="M104,22.79l-2.55-.06-11.35-.08v-.38c7-.7,13.5-1.39,20.25-2.09,0,.13,0,.26,0,.39Z"/><path d="M269,30.4l-8.56-11.6,1-.89C265.22,20.91,267.45,25.35,269,30.4Z"/><path d="M303.59,76.44l9.29,13.19-.34.36c-1.68-2-3.51-3.85-5-6s-2.85-4.77-4.26-7.17Z"/><path d="M126.84,239,138,236.21l.19,1.16L127,240Z"/><path d="M327.2,112.22l-1.55-4.61,7.52,9.85-.43.51Z"/><path class="cls-1" d="M89.22,185.75c-1-3.62-2.12-7.23-3.07-10.88a28,28,0,0,1-1.4-6.94c0-11.13.35-22.28.41-33.42,0-3.61,1.09-5.52,4.58-5.56a27,27,0,0,0,5-1l6-1.7a21.94,21.94,0,0,0,4.94.4c6.22-.86,12.44-1.93,18.65-3a10.83,10.83,0,0,0,2.36-1l-.24-1.46-14.38,2.37a13.72,13.72,0,0,1-2.4-.15c-.17,0-.17-.85-.25-1.3l3.7-1.64,3-.48c1.8-.15,3.61-.18,5.4-.48,11.68-2,23.35-3.92,35-6.05,2.14-.39,4.19-1.6,6.29-2.44l-.16,0c1.63.33,3.29,1.11,4.9.91,5.07-.62,10.13-1.5,15.16-2.53,1.25-.25,2.39-1.42,3.58-2.16l8.63-.87c2,0,4.07.1,6.09-.11,2.26-.23,4.52-.76,6.78-1.16a12,12,0,0,0,3.09.27q13.29-2.27,26.56-4.73a22.25,22.25,0,0,0,4-1.59l12.5-.74a87.78,87.78,0,0,1,9.86-1.9c1.14-.1,2.33,1.38,3.49,2.14l3-.67,14.77-2.12-.18.08,3.5.11c-1.14,5-2.08,9.72-3.32,14.37-7,26.1-14.34,52.11-20.87,78.32-1.41,5.64-3.58,7.19-8.1,8.11-16,3.28-31.91,6.92-47.84,10.5a26.16,26.16,0,0,0-8.61,3.49c.69,0,1.39-.12,2.08-.13,2.26,0,4.6-.35,6.76.11,1.16.24,3,2.45,2.87,2.74-1.2,2.32-2.13.66-3.27-.3-.49-.42-1.61-.1-2.41.11-20.75,5.28-41.48,10.64-62.24,15.87-10,2.52-20.07,4.85-30.13,7.1a3.4,3.4,0,0,1-3-1.21c-1.53-2.25-2.88-1.25-5.41.3l4,.24-2.42,3.86c5.64.11,5.69,5,6.48,9.22.15.82-.77,2.68-1.43,2.88-7.19,2.16-14.42,4.09-21.72,6.11L84,238.6c4.78-1,9.52-2.18,14.29-2.74,2.5-.29,2.69-1,1.77-3.11-1.78-4.14-3.56-8.29-5.15-12.53-.37-1,0-2.36.05-4.16l-2.83-1.4a18.61,18.61,0,0,0,.41,4c1.41,3.77,2.88,7.52,4.51,11.17,1.2,2.69.47,4-2.13,4.47L82.21,236.5l-4.47-20c4.72-1.09,9.45-4.14,15.1-2.67a8,8,0,0,0-.1-2.37c-5.64-15.67-11.65-31.17-16.93-47-5.74-17.21-10.77-34.74-16.2-52.1-1.22-3.9-2.8-7.64-4.21-11.45l-.09,0,5.4.08c3,9.75,5.8,19.62,9,29.33,3.55,10.85,7.43,21.55,11.11,32.33,1.85,5.4,3.51,10.9,5.41,16.27.83,2.36,2.07,4.52,3.12,6.77a14.77,14.77,0,0,0,.32,3c2.9,8.93,5.74,17.88,8.84,26.71,1.46,4.14,3.44,8,5.19,12a3.1,3.1,0,0,0,0-2.31c-2.41-6.73-4.8-13.47-7.26-20.18C94,198.55,91.62,192.16,89.22,185.75Zm12.41,46.55.09,1.5c31.81-4.26,62.41-17,94.13-22-3-.3-5.88.56-8.79.91-2.38.28-5.26,3-7.06.16-1.31.72-2.87,2-4.58,2.46-15.14,3.94-30.3,7.81-45.48,11.51-6.21,1.51-12.49,2.59-18.74,3.81C108,231.24,104.82,231.74,101.63,232.3Zm66.75-118.4-22.62,3.74C154,119.43,165.15,118,168.38,113.9Zm19.89-1.54L200,110.91C195,107.85,190.41,108.35,188.27,112.35ZM90.76,241.61l.23,1.6,14.43-3.29-.21-1.54Zm171.83-141,.05-1.54L251,99.83l0,1.4ZM190.91,201.32c3-2.11,2.21-5.37,2.64-9.15Zm7-18.47c4,.61,8.66-2.75,12,1.81C206.6,180.16,202.15,182.22,197.95,182.84Z"/><path class="cls-1" d="M42.87,36.61,40,36.23a437.37,437.37,0,0,1,72.38-12.65l.14,1-18,3.19.09,1.11,30.64-1.84,0-1-3.33-.58,0-.91c3.5-.52,7-1.16,10.51-1.55,12.81-1.42,25.62-2.75,38.43-4.13,14.64-1.57,29.29-3.09,43.93-4.77,9.32-1.07,18.62-2.38,27.92-3.65.75-.1,1.44-.82,2.19-1.17s1.61-.61,2.42-.91a15.07,15.07,0,0,1,.13,3,26.87,26.87,0,0,1-1,3.07c-3.37,12.29-2.61,9.06-13.19,11.05-3.81.72-7.75.28-11.56,1-3.62.7-7.13,2.24-10.92,3.49l1.18,2.44c-4.93,2-6.23,3.57-5.22,5.61l-25.49,5.42L163,45.78c-7.23.26-14.47.5-21.7.81a26.22,26.22,0,0,0-3.24.64c-5.87,1-6,.94-7.12-5.36l-3.07.09-.2-.68L131,39.55l0-.89L113.61,40l-.26,1.67,12.48,5.65,0,1.32c-6.16.76-12.32,1.54-18.48,2.27q-23.44,2.78-46.88,5.51c-2.9.34-5.83.32-8.72.78-1.19.19-2.31,1.19-4.39,2.34-1.94-6.05-4.15-12.67-6.08-19.4-.25-.88,1-2.36,1.53-3.55l13.55.24,0-1.75ZM189.77,24v.55c2.25-.21,4.62,0,6.72-.79,1.31-.49,2.22-2.5,3.32-3.83-1.4-.71-2.75-1.86-4.22-2a15.19,15.19,0,0,0-5.65.83A25,25,0,0,0,185.72,21c1,.94,2,1.92,3,2.81C189,24,189.42,24,189.77,24Zm1.59,13.46V36.15l-14.26,1.3,0,1.26Zm2-5.38.29-1.58-6.48.05-.07,1.75Z"/><path class="cls-1" d="M254,98.36l-12.5.74-8.41-.25,0,.11,6.89-2.7c-8.84-.1-17.29.17-25.73.88-8.92.75-17.84,1.75-26.74,2.95-13.49,1.81-27,3.72-40.44,5.9-12.26,2-24.5,4.3-36.72,6.72-1.79.35-3.43,2.05-5.14,3.13l-2.37,2.27c-3.42,1-6.87,1.9-10.26,3a24.9,24.9,0,0,0-3.93,2.14l.17,0-5.54-1.95c.78-1.44-1.29-4.8,2.44-5.68l5-1.43c12.86-3,25.89-4.59,38.61-8.8,5-1.65,10.33-1.69,15.5-2.56,3.31-.56,6.6-1.29,9.89-1.94l-.15,0a67.37,67.37,0,0,0,6.77-.29c3.74-.52,7.48-1.17,11.19-2,7.43-1.64,14.84-3.41,22.26-5.15a15,15,0,0,0,2.16-1.1l-8.62.47,0-.74,8.59-1.6c-.74-3.18.23-3.4,3-3.32,4.22.12,8.52-1,12.78-1.57,1.21,3.83,3.77,1.33,5.67,1,4.86-.87,9.67-2.41,14.54-3.12,6-.87,12.07-1,18.09-1.76,4.88-.6,9.74-1.6,14.61-2.43l5.79.75c5.52-.76,6.93,4.75,9.79,6.9l-39.86,6.49-.07,1.43c1.88.09,3.79.52,5.63.2,10.7-1.88,21.38-4,32.08-5.91a21.65,21.65,0,0,1,4,.08l-1.35,2.41-9.47,1.61L253.13,96Z"/><path class="cls-1" d="M101.13,299.66,88.4,303.35c-2.43.71-3.84.43-3-3,.53-2.2.33-4.57.88-6.76a32.46,32.46,0,0,1,2.41-5.35l-2.11,0c.71-7,1.42-13.91,2.13-20.83a9.58,9.58,0,0,1,7.1-8.17c5.62-1.72,11.56-1.95,17.53-2.82-.52,2.26-1.14,4.43-1.5,6.64-.71,4.35-1.19,8.74-1.92,13.09-1.53,9.14-3.07,18.28-4.87,27.36-.23,1.16-2,2.55-3.17,2.9-5,1.46-10,2.62-15,3.73-.73.16-1.58-.54-2.38-.84.51-.67.92-1.67,1.55-2,4.27-1.91,8.59-3.66,12.89-5.47.85-.36,1.69-.74,2.54-1.11Zm-1.67-20.12-.3-1.12L90,280.28l.2,1.22Z"/><path class="cls-1" d="M84.61,389.05,90.78,388c-.62,4.57-1.13,8.76-1.83,12.93a3.07,3.07,0,0,1-1.71,1.93,83.21,83.21,0,0,1-15.51,3.86l3.12-3c-2.58-2.16-2.33-6.16.4-10.81-.66-2.37-1.43-4.07-1.55-5.85a36.6,36.6,0,0,1,.52-6,6.07,6.07,0,0,1,4.43-5.71c2.85-1.05,5.44-3.15,8.14-4.79l-.45-1.82c-1.61.29-3.22.55-4.83.88s-3.31.74-5.1,1.14c-.21-.56-.5-.93-.45-1.27.63-4.86,1.43-9.71,1.93-14.58.26-2.48,1.55-3.18,3.38-3.52a32.44,32.44,0,0,1,3.61-.69c3.87-.27,8.23,1.08,10.28-4.72.11-.3,1.08-.26,2.56-.57-1.17,6.4-2.34,12.27-3.3,18.16-.89,5.49-1.83,11-2.2,16.52-.28,4.13-1.43,6.67-5.38,7.16a9.18,9.18,0,0,0-2.33,1Z"/><path class="cls-1" d="M291.46,333.27,311.53,297a3.23,3.23,0,0,0,.2-.34c2.94-7.38,7.61-12.25,15.06-13.1.5-.06,1-.51,1.32-1.51l-8.35,2c2.35-10.75,10.53-10,18.09-12.65-4.76,7.42-9,13.91-13.13,20.53-3.21,5.2-6.06,10.68-9.33,15.83s-6.79,9.91-10.2,14.86a3.87,3.87,0,0,0-.47.62c-.94,2.25-1.35,5.56-2.9,6.55C299,331.57,295.45,332,291.46,333.27Z"/><path class="cls-1" d="M163,45.78l18.25-2.32c14.32-1.92,28.66-3.86,43-5.74,2.63-.34,5.28-.35,7.91-.66.59-.07,1.14-.78,1.71-1.19l-.41-.9L221,36.57l0,.08,1.81-3.48-7.22-.47-.1-1.21c2.07-.38,4.13-.84,6.2-1.1,3.61-.46,7.5,0,10.76-1.43A20.4,20.4,0,0,1,240,27.22c2.44-.15,3,1,2.41,3.37-.65,2.69-1.25,5.4-1.92,8.32L237.71,38l2.05,8.71c-10.07-3.06-19.3-.25-28.59,1.44-7.25,1.32-14.56,2.07-21.83,3.08-1.31.1-2.63.13-3.95.29Q174,52.84,162.65,54.24l-6,.83-.06-1c25.64-5.85,51.8-6.12,77.79-11.88a30.18,30.18,0,0,0-2.93-2.46c-.82-.51-1.8-1.2-2.66-1.08-18.48,2.63-36.94,5.38-55.41,8.07-4.35.63-8.71,1.17-13.07,1.65a20.74,20.74,0,0,1-3.57-.2l0-1Z"/><path class="cls-1" d="M177.42,83.85,196,80.43l0-1-15.06,2-.07-1c8.16-1.32,16.32-2.71,24.5-4q18.61-2.83,37.23-5.47c5.64-.8,11.29-1.52,16.95-2,2.56-.23,5.4-.52,7,3.43l-8.35,1.47,1.93,2.62c-6.35.23-12.71.1-19,.78-7,.74-13.94,2.22-20.9,3.38l-.17-.22c-7.55,1.23-15.12,2.19-22.63,3.75a51.93,51.93,0,0,1-20.24-.19Z"/><path class="cls-1" d="M55.38,100.91C51,88.18,46.44,75.49,42.13,62.7c-1.74-5.17-3.05-10.53-4.59-15.79-.56-1.92-1.22-3.81-2-6.18l-2.32,4.75-.23.06c-1.57.09-3.15.26-4.71.26s-3.45.44-4.15-.4c-1.29-1.56-1.9-3.86-2.55-6-.18-.59.52-1.55.85-2.42l-1.94-1.75.2-1C24.15,34,27.75,33,31.2,32.72c0-.31.28-1.58.24-1.59l-4.25-1c-.05,0-.14.13-.14-.13,2.51-.46,4.94-.59,7.45-1,.09.31.14.78.22,1.09-.76.73-1.53,1.54-2.75,2.71,6.68.34,6.65,6.44,8.32,11q6.43,17.75,12.89,35.5,2.72,7.49,5.43,15c1.86,5.16,1.86,5.16-3.31,6.56Z"/><path class="cls-1" d="M355.76,221.09l5.41-4.07c-.11-1.2-.77-2.86-.27-3.82,3.6-7,7.4-13.89,11.23-20.75a8.16,8.16,0,0,1,6.32-4.29c3.13-.52,6.15-2.15,9.22-3.3l.66,1c-2.66,3.87-5.58,7.57-7.91,11.66-4.55,8-9,16-13,24.34-1.84,3.89-4,4.71-7.4,4.54-1.6-.08-3.26.64-4.9,1l.21,1.44,5.31-.83.23.74-11.36,5.48c1-8.89,7.94-9.12,13.14-11.69l-.35-1.12-6.1.46Zm12.95-20.56c1,2.79,3.2,2.86,8.25.11Z"/><path class="cls-1" d="M90.76,114.2l-5,1.43-8.26-2.8.38-2.7,23.11-3.19c-.93-1.39-1.47-2.21-2-3l.91-.12q13.86-2.55,27.71-5.09a69,69,0,0,1,7.55-1.22c7-.48,14.09-.77,21.14-1.16.72,0,1.84,0,2.09-.5,2.07-3.76,4.91-2.21,7.57-2,1.06.1,2.12.22,3.19.23,4.76,0,9.53,0,14.3-.06l0,.94-28.78,6,.15,0c-4.34-1-8.62-1.87-13.17-.07a33.39,33.39,0,0,1-9.25,2.33,57.64,57.64,0,0,0-12.12,2c-7,2.1-14.3,2-21.13,5.75-2.59,1.42-5.91,1-9,1.47Z"/><path class="cls-1" d="M302.68,289.53l-.6-4.09C288.39,290.1,275,295,261.45,299.18c-24.48,7.46-49.06,14.45-73.6,21.57-1.85.54-4.08,1.71-5.3-1.26l125.11-38.13c-.19,1.53-.13,3.46-3,3.86-.75.11-1.33,2.75-2,4.26Z"/><path class="cls-1" d="M33,45.55l.23-.06c3.27,1,.71,2.31-.12,3.46,2.16,1.64,1.85,15.18-.26,21,.71,1.36,1.77,2.43,1.79,3.58.1,6,0,12-.21,18,0,1.34-.86,2.69-1.32,4l.14,0-8.37-.9c-1-5.39,4.19-2.72,5.74-4.75-.12-.18-.23-.52-.35-.52-5.07.12-6.8-2-5-7.5.69-2.17.27-3.39-.14-5.17-.49-2.13-1.32-4.88,3.25-5.58C23.57,69.44,24.68,66,25,62.84a9.56,9.56,0,0,0,0-2.31C23.78,53.15,26.33,48.39,33,45.55Z"/><path class="cls-1" d="M32,123.75a5.84,5.84,0,0,0-1-.1c-7.63.52-7.63.52-7-7.87.11-1.34.36-2.68.46-4,.45-6.19.49-5.88,5.78-7.21,3.48-.88,4,1.9,4,3.8-.1,10.62-.61,21.26-1,31.89-.11,3.17-3.75,5.87-7.67,5.21-2.92-.49-1.43-3.3-1.48-5.22-.09-3.13,0-6.3-.24-9.4-.29-3.55.78-5.37,4.2-5.43a17.08,17.08,0,0,0,4-1.09Z"/><path class="cls-1" d="M87.27,97.18l32-6.23,0-.64-21,2.56-.09-.83c3.81-.73,7.61-1.59,11.44-2.17,10.6-1.6,21.2-3,31.8-4.67,1.1-.17,2.13-1.09,3.19-1.67l-.14.08a34.47,34.47,0,0,0,5.74.33c5.5-.56,11-1.4,16.49-2,.36,0,3-1.33,1.63,1.56l-1.82,0c-9,1.31-18,2.66-26.93,3.93-5.42.77-10.85,1.35-16.26,2.2-.79.12-1.5,1.21-2.25,1.85a6.89,6.89,0,0,0,2.45.58c8-1.17,16-2.47,24-3.61.7-.1,1.47.69,2.2,1.07l0-.11c-1.47.66-2.91,1.65-4.42,1.92-5,.89-10,1.52-15,2.25l.14-.05c-10,1.42-20,3-30,4.18-4.63.55-9.3.38-14.58.56L87.46,97Z"/><path class="cls-1" d="M144.56,83.55c-7.6.93-15.2,1.77-22.79,2.83-9.11,1.27-18.21,2.74-27.31,4.12l-.11-1.21c7.62-1.31,15.24-2.68,22.87-3.91s15.15-2.29,22.72-3.43l-.08-1.18c-6.68.88-13.37,1.7-20,2.65-5.31.76-10.6,1.74-15.91,2.45-.73.1-1.53-.85-2.31-1.32l8.58-1.42c.94-.85,1.79-2.17,2.82-2.45,3.83-1.06,7.73-1.77,11.73-2.64-.18.6-.76,1.31-1.13,2.52,5.46-1.89,10.65-.06,15.86-4.88l-.5,2.16c7.34-.67,15.38-1.15,22.85-1.75,0,.46.23.95.27,1.41-6.7,1-13.31,1.93-20,2.88,0,.47.07.94.09,1.41,3.71.31,7.43-1.24,11.14-1.61,3.91-.39,7.84-.66,11.75-1,0,.34,0,.69,0,1-5.75.8-11.51,1.58-17.26,2.43a27.49,27.49,0,0,0-3.44,1Z"/><path d="M220.15,80.59c7-1.16,13.92-2.63,20.9-3.38,6.32-.67,12.68-.55,19-.78l2.39-.78c-.29,2.71.86,3.85,3.22,3.67-4.87.83-9.73,1.83-14.61,2.43-6,.74-12.08.89-18.09,1.76-4.87.71-9.67,2.24-14.54,3.12-1.9.34-4.46,2.84-5.68-1l.26-1.27,28.46-4-.11-1.7c-2,.31-4,.73-5.94.89C230.36,80,225.26,80.25,220.15,80.59Z"/><path class="cls-1" d="M251,62.82,259.86,64v1.75L229.5,71l-.11-1c7.38-1.89,15.1-1.75,22.31-4.73l-.15-1.05c-4.65.83-9.3,1.74-14,2.48-15,2.38-29.92,4.76-44.9,7-2.24.33-4.55-.34-6.82-.54l0-1.3a44.82,44.82,0,0,1,4.75-1.09c10.44-1.26,20.9-2.31,31.34-3.71,9.3-1.26,18.57-2.89,27.86-4.36Z"/><path class="cls-1" d="M29.35,158.28c2.89-.6,3.36.84,3.06,3.19-.17,1.33-.17,2.68-.22,4-.12,3.83-3.73,6.58-6.87,5-.61-.3-1-1.66-1.06-2.58-.18-5.28-.08-10.59-.37-15.85-.16-2.86,1.41-3.19,3.14-3.34,2-.16,4.64-1.82,5.45,1.7C33.2,153.59,33.31,156.68,29.35,158.28Z"/><path class="cls-1" d="M99.82,103.79l-.91.12c-3.63,3.09-20.46,4.79-24.74,1.79,3.84-.5,6.87-.77,9.88-1.32,3.42-.63,7.3.22,9.75-3.89l0,0c4.61-.71,9.21-1.4,13.82-2.12,6.46-1,12.92-2,19.36-3.11a14.4,14.4,0,0,0,3.48-1.68l-.14.05c1.32.3,2.65.94,4,.82,3.37-.3,6.74-1,10.11-1.39.61-.07,1.25.38,2.87.92a24.6,24.6,0,0,1-2.49.79C136.82,96,128.87,97,120.95,98.27q-9.36,1.47-18.68,3.35C101.38,101.8,100.63,103,99.82,103.79Z"/><path class="cls-1" d="M132.35,55l-1.91,3.28,16.72-2.1.06,1.66L86.85,65.58l-.11-1.29,41-6.19,0-1L85.38,62.68l-.08-1.44Z"/><path class="cls-1" d="M137.51,70.85c-1.41.69-2.79,1.78-4.23,2-7.39,1.15-14.79,2.1-22.2,3.09-2.77.37-5.57.47-8.32,1s-5.35,1.53-8,2.2c-1.85.46-3.74.72-5.61,1.07l-.32-1.5c2.59-.9,5.16-2.21,7.79-2.62,11.68-1.79,23.37-3.35,35.07-4.92,2-.26,4-.18,5.93-.25Z"/><path class="cls-1" d="M172.65,66.22l56-7.67a24.74,24.74,0,0,1-18.51,5.23c-12.09-1.16-23.81,3-35.72,3.33l-1.73.07Z"/><path class="cls-1" d="M110.18,83.14l-8.58,1.42L88.85,87.48l.24,0-1.28-2.67,8-.3C93,82.29,90.25,82,87.82,85c-1.88,0-3.78,0-5.64-.13-1.52-.13-3-.53-4.52-.81l-.14.1,29.12-5.72.13,1.18-4.59,2.26Z"/><path class="cls-1" d="M133.59,62.53c-3.4.88-6.78,2-10.2,2.6-10.72,1.95-21.46,3.72-32.19,5.55-1.42.24-2.84.42-4.26.63l-.36-1.19c1.57-.78,3.11-2,4.72-2.25C103,66.12,114.72,64.54,126.45,63c2.39-.31,4.8-.25,7.2-.36Z"/><path class="cls-1" d="M105.14,72c5.74-1.11,11.47-2.35,17.23-3.27,3.69-.58,7.43-.7,11.14-1a2.11,2.11,0,0,1,2,1.17L92.27,75.09l-.22-.69,1.56-1.24Z"/><path d="M150.78,287.44l3.5.16-3.4,3.21,4,5-7.88,2.69c-1.68-5.13-1-6.86,4-11.34Z"/><path class="cls-1" d="M127.44,53.59c-2.72.61-5.43,1.42-8.17,1.8-10.13,1.4-20.27,2.66-30.41,4a9.4,9.4,0,0,1-4.61-.28A17.4,17.4,0,0,1,87,58.26Q104,56.07,121,54c2.15-.26,4.32-.2,6.48-.28Z"/><path class="cls-1" d="M173,63.05l38.34-5.17.09,1.18L173.3,64.74Z"/><path class="cls-1" d="M214.69,73.41,179.9,78.72l-.11-1.36,34.76-5.45Z"/><path class="cls-1" d="M113.12,120.48l-3.7,1.64L92,124.85l.18-.06-8.58.94-.11-1.13,5.36-1.35-.17,0,15.81-2.3Z"/><path class="cls-1" d="M162.65,54.24Q174,52.86,185.4,51.49c1.32-.16,2.64-.19,3.95-.29-.47.57-.9,1.59-1.39,1.66-7.8,1.06-15.6,2-23.41,2.88C163.93,55.8,163.28,54.77,162.65,54.24Z"/><path class="cls-1" d="M272.25,93.27l9.47-1.61c2.48-.83,4.65-.78,5.92,2.45l-2.75,1.77.18-.08c-2.25-2.2-4.93-1.39-7.51-.74-2,.5-3.91,1.3-5.86,2l.07.06Z"/><path class="cls-1" d="M33.24,95.64l-.14,0L34.45,102c-3.3.2-5.82.47-8.32.44a2.11,2.11,0,0,1-1.52-1.56,3,3,0,0,1,1.44-2C28.41,97.67,30.84,96.7,33.24,95.64Z"/><path class="cls-1" d="M105.14,72,93.61,73.16l-16,2.71-.13-1.39,28.79-5Z"/><path class="cls-1" d="M81.31,65,56.92,67.77c.3-.4.53-1,.81-1,4.67-.8,9.36-1.47,14-2.31,1.74-.31,3.43-1.17,5.16-1.37a21.71,21.71,0,0,1,4.52.36Z"/><path class="cls-1" d="M89.09,87.44l-.24,0,2.91.86L91.7,89.7,70.17,92.26,70,91c4.54-.68,9.09-1.29,13.62-2.07A52.62,52.62,0,0,0,89.09,87.44Z"/><path class="cls-1" d="M265.7,79.32c-2.37.18-3.52-1-3.22-3.67,2.53.15,5.09.14,7.58.5,2.11.31,3.78,1.22,1.44,3.92Z"/><path class="cls-1" d="M92.81,92.88,70.28,95.55l-.09-1.31,22.52-2.91Z"/><path class="cls-1" d="M87.27,97.18l.2-.14L70.86,99l-.1-1.58,16.55-2.08Z"/><path class="cls-1" d="M186,47.46l-23.86,3.21-.05-.79L186,46.26Z"/><path class="cls-1" d="M77.66,84l-12.55.8,0-.65,14.52-4.42-2.09,4.37Z"/><path class="cls-1" d="M93.8,100.48l-18.28,3.33-.14-2c6.12-.3,12.12-3,18.37-1.3Z"/><path class="cls-1" d="M64.08,79l21.47-2.38.07,1.36L64.15,80.19Z"/><path class="cls-1" d="M101.18,356.64l-3.26,1.22c-.05-3.72.35-6.61,3.48-8,1.31-.6,2.88-1.83,3.8.74.17.47,1.69.28,2.59.39-1.89.49-3.8.89-5.66,1.5-2.62.87-3.33,2.3-.93,4.31Z"/><path class="cls-1" d="M137.57,70.93l19.71-3.36.1,2.22-19.87,1.07Z"/><path d="M101.2,356.76c-2.4-2-1.69-3.44.93-4.31,1.86-.62,3.77-1,5.66-1.5a1,1,0,0,0-.21.3l1.68.09.21.77Z"/><path class="cls-1" d="M61.55,74.68l14.3-1.91L76,74.18c-4.6,2.62-9.6.52-14.33,1.71Z"/><path class="cls-1" d="M137.74,67.53l17.74-2.47.1,1.38L137.84,68.8Z"/><path class="cls-1" d="M83.2,56.43,61,58.81l-.05-1L83,55.27Z"/><path class="cls-1" d="M133.64,62.64l16.42-2.94.11,1.36c-5.51.75-10.93,2.88-16.58,1.48Z"/><path class="cls-1" d="M127.5,53.7l16.4-2.85.1,1.81-16.55.95Z"/><path class="cls-1" d="M100.75,126.26l-6,1.7-4.38-.21-.2-1,2-1.92-.18.06L100.7,126Z"/><path class="cls-1" d="M81.48,69.5,67,71,67,69.61l14.35-1.4Z"/><path class="cls-1" d="M251,62.82l-1.22-.16L247,61.35c3.57-1,6.23-4,9.48-.54Z"/><path class="cls-1" d="M240.2,51.32c5-2.95,5.59-2.82,8.49,1.95Z"/><path class="cls-1" d="M195.37,55.67l-15.66,2.17-.08-1.14,15.54-2.1Z"/><path class="cls-1" d="M166.47,83.58l1.82,0c2.72-.39,5.45-.84,8.19-1.11.3,0,.63.91.95,1.41l-.3.08c-3.45.11-6.91.23-10.36.31C166.65,84.24,166.57,83.81,166.47,83.58Z"/><path d="M87.82,85c2.43-2.94,5.14-2.67,8-.49l-8,.3Z"/><path class="cls-1" d="M61.89,60.12l12.94-1,0,1.18L62,61.4Z"/><path class="cls-1" d="M57.31,63.67l12.78-1.44.05.87L57.3,64.8Z"/><path class="cls-1" d="M221,36.57c-1.81.27-3.62.65-5.43.74-.62,0-1.24-.68-1.85-1,.54-.44,1.17-1.32,1.6-1.23,1.93.38,3.81,1,5.72,1.61Z"/><path class="cls-1" d="M113.12,120.48l-8.67.5-1.64-.51-.05-1,34.6-7.26c-11.7-.21-23.07,3.44-34.54,5.92l2.37-2.27a31.74,31.74,0,0,1,3.16-1c9.21-1.85,18.41-3.83,27.65-5.44,6.28-1.09,12.61-1.65,18.91-2.44l0,.95L152.91,110l16.22-.73,0-.12-6.43,1.93.16,0c-14.54,2.36-29.08,4.69-43.61,7.14-1.07.18-2.06,1.2-3.09,1.83Z"/><path class="cls-1" d="M194.92,106.43l-8.63.87a46.82,46.82,0,0,0-7.17-.16c-3.36.41-6.69,1.31-10,2l0,.12c1.3-1.06,2.51-2.68,3.93-3.08a83.19,83.19,0,0,1,14.6-3.14c2.65-.24,6.16-3.84,7.84.73,1.69-.64,3.07-1.48,4.47-1.62,7-.69,13.93-1.15,20.9-1.79,4.08-.37,8.14-.93,12.22-1.41l0-.11a21,21,0,0,1-4,1.65c-5.76,1.11-11.55,2-17.31,3.09a20.81,20.81,0,0,0-4,1.68Z"/><path d="M101.63,232.3c3.2-.56,6.4-1.06,9.58-1.68,6.25-1.22,12.53-2.29,18.74-3.81,15.18-3.7,30.33-7.57,45.48-11.51,1.71-.44,3.27-1.74,4.58-2.46,1.8,2.87,4.68.12,7.06-.16,2.9-.35,5.78-1.21,8.79-.91-31.71,5-62.32,17.77-94.13,22Z"/><path d="M116.12,120c1-.63,2-1.65,3.09-1.83,14.53-2.45,29.07-4.78,43.61-7.14-2.09.83-4.15,2-6.29,2.44-11.66,2.14-23.34,4.09-35,6.05C119.73,119.82,117.92,119.85,116.12,120Z"/><path d="M207.77,105.27a20.81,20.81,0,0,1,4-1.68c5.76-1.11,11.55-2,17.31-3.09a21,21,0,0,0,4-1.65l8.41.25a22.24,22.24,0,0,1-4,1.59q-13.27,2.48-26.56,4.73a12,12,0,0,1-3.09-.27Z"/><path d="M168.38,113.9c-3.24,4.09-14.39,5.53-22.62,3.74Z"/><path d="M169.09,109.15c3.34-.69,6.68-1.59,10-2a46.82,46.82,0,0,1,7.17.16c-1.19.75-2.33,1.91-3.58,2.16-5,1-10.09,1.91-15.16,2.53-1.61.2-3.26-.58-4.9-.91Z"/><path d="M89.22,185.75c2.4,6.41,4.83,12.8,7.19,19.23,2.46,6.71,4.86,13.45,7.26,20.18a3.1,3.1,0,0,1,0,2.31c-1.75-4-3.73-7.9-5.19-12-3.1-8.83-5.95-17.78-8.84-26.71a14.77,14.77,0,0,1-.32-3Z"/><path class="cls-1" d="M112.07,123.57l14.38-2.37.24,1.46a10.83,10.83,0,0,1-2.36,1c-6.21,1.06-12.42,2.12-18.65,3a21.94,21.94,0,0,1-4.94-.4l0-.22Z"/><path d="M272.25,93.27q-.23,1.91-.47,3.81l-4.46,1.52c-1.17-.76-2.35-2.25-3.5-2.14a87.78,87.78,0,0,0-9.86,1.9L253.13,96Z"/><path d="M112.07,123.57,100.7,126,92,124.85l17.45-2.73c.08.45.08,1.26.25,1.3A13.72,13.72,0,0,0,112.07,123.57Z"/><path d="M188.27,112.35c2.14-4,6.71-4.51,11.71-1.44Z"/><path d="M90.76,241.61l14.45-3.23.21,1.54L91,243.21Z"/><path d="M271.71,97c2-.66,3.88-1.46,5.86-2,2.58-.65,5.25-1.46,7.51.74l-14.74,2.11Z"/><path d="M262.59,100.57l-11.54.66,0-1.4L262.64,99Z"/><path d="M207.77,105.27l0-.12c-2.26.4-4.51.93-6.78,1.16-2,.21-4.06.09-6.09.11Z"/><path d="M190.91,201.32l2.64-9.15C193.12,195.94,193.94,199.2,190.91,201.32Z"/><path d="M197.95,182.84c4.2-.62,8.65-2.68,12,1.81C206.61,180.09,201.94,183.46,197.95,182.84Z"/><path class="cls-1" d="M271.71,97l-1.38.89-3,.68,4.47-1.51Z"/><path d="M230.59,301.09l-126,36.86-.26-1.3c41.63-14.14,84-24.51,125.86-37.49Z"/><path d="M232.41,282.15l19-3.42.33,1.39-7.27,3.74c1,5.2-4.59,3.87-6.53,6.92l3.15,1.47-9,2.29c-2.11-3.78-1.54-5,3.33-6.88,2.78-1.06,2.78-1.06,2.51-4.06l-8.73,2.25-.31-.76,3.58-3Z"/><path d="M175,298.47c1.16-3.65-5.08-6.57.28-9l-.08,1.19c2.38,0,5,.88,7.09,0,4-1.76,7.72-3.88,11.79-1.07Z"/><path d="M282.1,258.37l26.85-7.08.45,1.24a15,15,0,0,1-2.41,1.58c-5.5,2.25-11,4.36-16.53,6.65C286.15,262.55,284.84,262.27,282.1,258.37Z"/><path d="M142,300.25c-2.28,1-4.57,1.89-6.83,2.91-3.39,1.53-6.82,3-10.11,4.75-2.88,1.56-5.26,1.38-7.59-2.13l24.17-6.8Z"/><path d="M289.55,262.79c.85-.32,2.19-1.18,2.48-.86,2.45,2.65,4.21-.09,6.33-.95,3.88-1.57,7.87-2.81,11.84-4,.61-.19,1.39.44,3,1-8.12,4.59-15.6,6.48-23.41,6.32Z"/><path d="M175.41,307.68l-32,9.07-.21-1,31.82-10Z"/><path d="M265.68,270.46c-4.61,4.39-12.95,6.41-16.18,3.91C254.77,272.22,259.51,270.12,265.68,270.46Z"/><path d="M166.06,302.34l12.42-4.47.48,1.82-12.36,4.69Z"/><path d="M123.34,315a9.41,9.41,0,0,1-10.6,3l10.15-4.33Z"/><path d="M232.53,282.06c-1.79,0-3.58,0-5.37.13a21.86,21.86,0,0,0-3.38.85l-.25-1.5,12.45-4,.3,1-3.86,3.68Z"/><path d="M289.55,266.71l-9.52,5.1c.48-4,4.27-6.21,9.06-6.19Z"/><path d="M239.61,277.74l1.54-1.41-2.4-1.33,5-3.14c.13,2.27.78,4.23.16,5.48-.5,1-2.53,1.11-3.87,1.62Z"/><path class="cls-1" d="M150.78,287.44c1.94-.78,3.85-1.71,5.83-2.31,10.86-3.33,21.68-6.9,32.61-9.78,17.21-4.53,34.51-8.57,51.77-12.79a7.62,7.62,0,0,1,2,0l-4.26,9.28,10.68-2.72-.05-1.34-5.36-.7c5.34-2.77,7.61-8.41,13.48-9.84,16.72-4.07,33.31-9,49.94-13.65,6.25-1.74,12.47-3.63,18.72-5.32.92-.25,2,.24,3,.39a13.18,13.18,0,0,1-.74,3.28c-2.91,5.58-5.94,11.09-8.91,16.62-.84,1.56-1.78,2-3.58,2.49a51.38,51.38,0,0,0-12.49,5.59c-1.38.8-2,3.29-3,5,2.93,2,6.33,1,9-2.26a17.63,17.63,0,0,1,5.75-4.4c-1.14,3.87-1.91,7.54-6.37,8.77-10.92,3-21.74,6.54-32.6,9.86a4.16,4.16,0,0,1-1.78.4c-8.5-1.68-16.17,3.28-24.21,5.16-.28.07-.22-.73-1,1.14l3.39.78c.1,0,.08.51.12.79l-20,6.57c0,.33,0,.65,0,1a11.16,11.16,0,0,0,3.26-.1c7.89-2.58,15.75-5.29,23.62-7.94a57.45,57.45,0,0,1,6.72-2.14c1.09-.22,2.29.44,3.44.71l-.08,1.24c-1.47.55-2.93,1.2-4.42,1.64-26.8,7.78-53.62,15.48-80.4,23.37-3.59,1.06-6.91,3.43-10.5,4.5-4.92,1.46-10,2.06-15,3.39-6.87,1.84-13.7,3.9-20.51,6.06-9.53,3-19,6.33-28.54,9.32a83.08,83.08,0,0,1-9,1.82c.28-2.47-.09-5.15.79-7.32.67-1.66,0-6,3.72-4.47l-.45,1.95c5.46-1.45,12.35-2.62,18.78-4-2.73-6.11,3.5-3.9,4.54-6.48-4.92-1.74-9.51-.39-13.1,3.69a3.8,3.8,0,0,1-2.17,1.27c-3,.34-6,.49-9.41.75.78-5,1.53-9.71,2.24-14.45.37-2.49-.36-3.89-2.55-3.5a56.07,56.07,0,0,1-.29,7.71c-1.33,7.71-3,15.36-4.36,23.06-.47,2.68-1.67,4-4,4.56-3.81,1-7.59,2.2-11.36,3.41-1.79.58-3.53,1.39-6,2.36,1.4-6.11,2.76-12.05,4.14-18,.08-.35.6-.82.53-.93-2.93-4.77.69-9.47.83-14.2,0-1.19,1.09-3.19,2-3.49A132.84,132.84,0,0,1,106,307.79a9.12,9.12,0,0,0,1-2.48c.47-5.21,3.39-7.23,7.67-8.33,12.14-3.11,24.22-6.51,36.33-9.8-5,4.48-5.67,6.2-4,11.34l7.88-2.69-4-5,3.4-3.21Zm81.64-5.3,3.86-3.68-.3-1-12.45,4,.25,1.5a21.86,21.86,0,0,1,3.38-.85c1.79-.17,3.58-.1,5.37-.13l-3.58,3,.31.76L238,283.6c.26,3,.26,3-2.51,4.06-4.88,1.85-5.44,3.09-3.33,6.88l9-2.29L238,290.77c1.95-3,7.5-1.72,6.53-6.92l7.27-3.74-.33-1.39Zm-1.83,19-.38-1.93c-41.86,13-84.23,23.34-125.86,37.49l.26,1.3ZM175,298.47l19.09-8.93c-4.08-2.81-7.79-.69-11.79,1.07-2.08.91-4.71.08-7.09,0l.08-1.19C169.93,291.89,176.17,294.82,175,298.47Zm107.09-40.1c2.74,3.91,4,4.18,8.36,2.39,5.49-2.29,11-4.4,16.53-6.65a15,15,0,0,0,2.41-1.58l-.45-1.24ZM142,300.25l-.36-1.27-24.17,6.8c2.34,3.51,4.71,3.69,7.59,2.13,3.29-1.78,6.72-3.22,10.11-4.75C137.42,302.14,139.71,301.22,142,300.25Zm147.56-37.46.25,1.48c7.81.16,15.29-1.73,23.41-6.32-1.62-.57-2.4-1.2-3-1-4,1.23-8,2.47-11.84,4-2.11.86-3.88,3.6-6.33.95C291.74,261.61,290.4,262.47,289.55,262.79ZM175.41,307.68l-.39-1.9-31.82,10,.21,1Zm90.26-37.22c-6.16-.34-10.91,1.76-16.18,3.91C252.73,276.87,261.07,274.85,265.68,270.46Zm-99.61,31.88.54,2L179,299.69l-.48-1.82ZM123.34,315l-.45-1.31-10.15,4.33A9.41,9.41,0,0,0,123.34,315Zm166.21-48.33-.46-1.1c-4.79,0-8.58,2.19-9.06,6.19Zm-49.94,11L240,279c1.35-.51,3.38-.62,3.87-1.62.62-1.24,0-3.21-.16-5.48l-5,3.14,2.4,1.33ZM214,294.23l.27,1.1a8.76,8.76,0,0,0,8.81-4.2Z"/><path class="cls-1" d="M136.17,278.07l-19.86,3.27-4.72.78c.31-4.38.13-8.47,1.1-12.27.41-1.6,3.24-2.58,5.25-4l-5.22.63c1.74-5,3.15-9.41,4.93-13.69.36-.86,2.14-1.21,3.31-1.5q23.46-5.86,46.93-11.64c8-2,15.92-4,23.9-6,3.56-.87,7-2.36,10.79-.77,3.4,1.43,7.21,1.74,10.79,2.75.84.24,1.46,1.28,2.73,2.46l-9.39,4,.29,1.51c3.54-.84,7.14-1.46,10.6-2.63,1-.35,1.69-2.24,2.56-3.38,1-1.35,2.12-2.66,3.25-4.08l-1.26-1.83,5.5-2.15-.13-.8-9.4,1.36-.33-1.24c2.24-1.12,4.41-2.68,6.74-3.28,20.27-5.19,40.56-10.19,60.85-15.26,9.67-2.42,19.31-5,29-7.25,1.86-.43,3.9.34,6.51.63l-10.76,7.07,2.65,1.18-6.08,5c6.52,2.07,14.41-3.56,14.3-9.44l11.68-2.4-.19-1.56-6.74,1.37-1.48-4.47c6.44,3.63,12.28-1.62,18.43-1.79.83,0,1.78-1.16,2.52-2a8.79,8.79,0,0,1,10.18-1.53c-4.27,8-8.48,16-12.81,24-.35.64-1.41.95-2.18,1.18q-17.93,5.33-35.88,10.59c-7.34,2.16-14.67,4.38-22,6.44-2.92.81-5.94,1.11-8.87,1.87q-35.51,9.21-71,18.53c-2.73.72-5.39,1.78-8.09,2.68l.2,1.18a6.91,6.91,0,0,0,1.8,0c16.43-4.36,32.86-8.72,49.28-13.17,4.59-1.24,3.17,2.65,3.64,5.76,28.54-8.84,57-17.57,85.92-24.65-.57,5.88-2.91,7.6-7.22,6.2a5.15,5.15,0,0,0-2.79.28c-28.36,8.15-56.69,16.46-85.09,24.42-12,3.36-24.11,6-36.19,8.87-1.36.32-2.87-.32-4.3-.52l0-1.18,46.71-12.88-.19-1.06-84.8,22.08c9.56-.79,18.85-5.26,28.51-4.35l.15,1.05L109,297c.31-3.73.07-6.84,1-9.53a7.38,7.38,0,0,1,4.42-3.95c5.82-1.6,11.74-2.58,17.61-3.91a28.47,28.47,0,0,0,4.07-1.61c3.28-1,6.53-2.11,9.83-3,14.65-3.86,29.31-7.65,44-11.5a10.65,10.65,0,0,0,2.16-1.29l-10.77-1.35.11-.89,6.1-2.62-.29-1.58c-1.38.21-3,0-4.11.73-2.13,1.37-3.81,3.79-6,4.88-5.79,2.9-11.71,5.49-17.67,7.89C151.73,272.37,143.93,275.15,136.17,278.07Zm53.9-30.59-.28-1.36c-2.57.83-5.16,1.59-7.71,2.54-.85.31-1.51,1.3-2.35,1.64-3.59,1.47-8-2.11-11.1,2.93-.19.31-1.35-.17-2.06-.11-2.66.24-5.32.55-8,.83l-.09,1.43c1,.83,2,2.3,3.07,2.39a97.7,97.7,0,0,0,12.57.21c2.14-.1,4.35-.93,3.39-3.9,2.29-1.07,5.87-2,5.9-2.88.09-2.82,1.74-2.21,2.92-2.66S188.83,247.83,190.07,247.48Zm46.88-13,.18,1.06,36.73-9.17a10.7,10.7,0,0,0-4.13-.72c-1.27-.08-2.76.18-3.76-.44-2.92-1.81-10-.18-12.06,3a5,5,0,0,1-2.26,2C246.76,231.76,241.85,233.11,236.95,234.52Zm26.42,2.93.1,1.55c1.48-.1,3-.24,4.45-.3,5-.2,8.21-3.65,10.71-8.09a2.75,2.75,0,0,0-.52-2.32c-1.51-1.64-5.43-.52-5.66,1.81-.33,3.33-2.41,4.12-4.49,5.2C266.45,236.09,264.9,236.74,263.37,237.45ZM155.48,278.34l-.18-.93-34.59,9.73.24,1.24Zm133.58-63.19-.12-1.58-12.68,3.24.15.95Z"/><path class="cls-1" d="M179.74,360.62l-3.61-7.18L161,357.93l.1,1.37,10.46.48.36,1.06a20.16,20.16,0,0,1-3.71,2.14c-13.4,4.26-26.86,8.27-40.22,12.67-10.7,3.52-21.3,7.48-31.93,11.29a10.55,10.55,0,0,0-2.16,1.47c.42-4.86.35-9.84,1.49-14.52.51-2.11,3.44-3.62,5.26-5.4l.74,1-5.74,1.15-.45-1.38,7.13-4,3.16-4.42c-4.25-1.8-5.66,3.5-8.81,4.67.8-2.56.2-5.78,3.63-6.71.39-.1.55-1.47.81-2.24l0,.12,8.27-4.66-.21-.77-1.68-.09c6.52-2.81,13-6,19.59-8.33,12.74-4.49,25.59-8.52,38.41-12.69,1.16-.38,2.45-.2,3.59-.63.73-.27,1.3-1.17,1.94-1.79-.7-.23-1.45-.77-2.1-.62-2.75.63-5.49,1.4-8.2,2.23-10,3.07-20.1,6.12-30.12,9.31-10.21,3.25-20.38,6.65-30.86,10.09-.29-4.95,2.4-5.45,4.66-6.06,3.68-1,7.48-1.38,11.13-2.53,16.39-5.14,32.73-10.54,49.13-15.65,3.08-1,6.34-1,9.52-1.47l.29,1.15c-.4.54-1,1-1.15,1.63a4.39,4.39,0,0,0,.28,2.44c.17.38,1.23.72,1.5.49,3.91-3.31,8.84-1.51,12.95-3.91a5.32,5.32,0,0,1,3.24-.36c9.45,1.26,17.94-3.59,25.94-8,4.26-2.34,8.57-3.38,12.8-5.17.69-.29,1.62.23,2.16.32,7.8-2.42,15.6-4.86,23.41-7.25,2.36-.72,4.74-1.33,7.12-1.92,2-.5,4.15-.5,5.92-1.47,1.43-.78,4.22.36,4.26-3.14,0-.4,1.35-1,2.13-1.25,4.24-1.39,8.46-2.89,12.75-4,3.12-.8,6.35-1,9.51-1.59a54.89,54.89,0,0,0,5.3-1.58v0c-2.8,5.14-5.62,10.27-8.38,15.44s-5.17,10.63-8.37,15.47c-1.5,2.28-4.34,3.94-6.83,4.91-4.26,1.65-8.72,2.54-14,4,3.44-5,8.38-5.31,12-8l-.17-1.21c-1.85.35-3.7.62-5.54,1.06a28.82,28.82,0,0,0-5.95,1.71c-2.4,1.15-5,2.37-6.86,4.31A46.77,46.77,0,0,1,239.92,339c-7.59,2.66-15.09,5.67-22.69,8.31-1.43.5-3.12-.28-4.67-.07a17.71,17.71,0,0,0-4.76,1.42c-3.8,1.69-7.5,3.67-11.32,5.29C190.93,356.26,185.32,358.39,179.74,360.62Zm-10.4-18.77c4,1.17,7.88-.25,13.94-4.6l-1.31-.88c1.27-1.37,1.57-2.9-.51-2.82-1.68.07-4.68,1.16-4.81,2.09-.39,2.66-1.87,3.13-3.53,3.92C172,340.11,170.92,340.88,169.34,341.85Zm76.4-16.39c-3.52-1.07-11.42,1.7-13.24,4.64C238.13,331.17,243.33,329.35,245.75,325.46ZM147,355l.32,1.11L171,348.71l-.35-1.51Zm108.91-45.7-.21-1.3c-4.94,1.33-10.25.4-14.85,3.83l.16,1.08Zm4.56,3.11-.38-1.76-8.25,2.65.36,1.73Z"/><path d="M214,294.23l9.08-3.1a8.76,8.76,0,0,1-8.81,4.2Z"/><path d="M136.17,278.07c7.76-2.92,15.56-5.7,23.26-8.79,6-2.39,11.88-5,17.67-7.89,2.19-1.1,3.87-3.51,6-4.88,1.13-.73,2.72-.52,4.11-.73l.29,1.58L181.4,260l-.11.89,10.77,1.35a10.65,10.65,0,0,1-2.16,1.29c-14.65,3.85-29.31,7.64-44,11.5-3.3.87-6.55,2-9.83,3Z"/><path d="M190.07,247.48c-1.24.34-2.5.6-3.71,1.06s-2.82-.16-2.92,2.66c0,.88-3.61,1.81-5.9,2.88,1,3-1.25,3.8-3.39,3.9a97.7,97.7,0,0,1-12.57-.21c-1.1-.09-2.05-1.56-3.07-2.39l.09-1.43c2.66-.28,5.31-.59,8-.83.71-.06,1.87.42,2.06.11,3.06-5,7.51-1.45,11.1-2.93.84-.35,1.51-1.33,2.35-1.64,2.54-.95,5.13-1.71,7.71-2.54Z"/><path d="M236.95,234.52c4.9-1.41,9.82-2.76,14.69-4.29a5,5,0,0,0,2.26-2c2.08-3.13,9.14-4.76,12.06-3,1,.62,2.49.37,3.76.44a10.7,10.7,0,0,1,4.13.72l-36.73,9.17Z"/><path d="M263.37,237.45c1.53-.71,3.09-1.37,4.59-2.15,2.08-1.07,4.16-1.86,4.49-5.2.23-2.33,4.15-3.45,5.66-1.81a2.75,2.75,0,0,1,.52,2.32c-2.5,4.44-5.67,7.88-10.71,8.09-1.48.06-3,.2-4.45.3Z"/><path d="M155.48,278.34l-34.53,10-.24-1.24,34.59-9.73Z"/><path d="M289.06,215.15l-12.65,2.61-.15-.95,12.68-3.24Z"/><path d="M169.34,341.85c1.58-1,2.64-1.74,3.78-2.29,1.66-.79,3.14-1.26,3.53-3.92.13-.92,3.14-2,4.81-2.09,2.09-.08,1.78,1.45.51,2.82l1.31.88C177.23,341.6,173.33,343,169.34,341.85Z"/><path d="M245.75,325.46c-2.42,3.89-7.62,5.71-13.24,4.64C234.33,327.16,242.22,324.39,245.75,325.46Z"/><path d="M147,355l23.66-7.78.35,1.51-23.69,7.39Z"/><path d="M255.9,309.28,241,312.89l-.16-1.08c4.6-3.43,9.91-2.5,14.85-3.83Z"/><path d="M260.46,312.4,252.19,315l-.36-1.73,8.25-2.65Z"/><path d="M189.77,24c-.35-.08-.79,0-1-.26-1-.89-2-1.87-3-2.81a25,25,0,0,1,4.22-2.17,15.19,15.19,0,0,1,5.65-.83c1.47.15,2.82,1.3,4.22,2-1.09,1.33-2,3.33-3.32,3.83-2.1.79-4.47.58-6.72.79Z"/><path d="M191.36,37.51l-14.22,1.2,0-1.26,14.26-1.3Z"/><path d="M42.87,36.61l13.52-1.55,0,1.75-13.55-.24Z"/><path d="M193.38,32.13l-6.27.22.07-1.75,6.48-.05Z"/><path d="M166.47,83.58c.09.23.18.66.28.66,3.45-.08,6.91-.2,10.36-.31a51.93,51.93,0,0,0,20.24.19c7.5-1.56,15.08-2.53,22.62-3.75l-8.62,3.38,1.68.63-.26,1.27c-4.26.58-8.56,1.68-12.78,1.56-2.78-.08-3.74.13-3,3.32l-8.59,1.6,0,.74,8.62-.47a15,15,0,0,1-2.16,1.1C187.41,95.23,180,97,172.56,98.64c-3.71.82-7.45,1.47-11.19,2a67.37,67.37,0,0,1-6.77.29l28.78-6,0-.94c-4.77,0-9.53.06-14.3.06-1.07,0-2.13-.13-3.19-.23-2.66-.25-5.5-1.79-7.57,2-.25.46-1.37.46-2.09.5-7,.4-14.09.68-21.14,1.16a69,69,0,0,0-7.55,1.22q-13.86,2.52-27.71,5.09c.81-.75,1.57-2,2.45-2.16q9.32-1.87,18.68-3.35c7.93-1.24,15.87-2.31,23.81-3.47a24.6,24.6,0,0,0,2.49-.79c-1.62-.54-2.26-1-2.87-.92-3.37.41-6.73,1.09-10.11,1.39-1.31.12-2.64-.52-4-.82,5-.73,10-1.36,15-2.25,1.51-.27,2.95-1.26,4.42-1.91,1.13.77,2.28,2.29,3.37,2.18,5.56-.57,11.1-1.51,16.64-2.44a9.47,9.47,0,0,0,2.59-1.4L172,86.41a61.7,61.7,0,0,0-22.28,3.19c-.74-.38-1.5-1.17-2.2-1.07-8,1.14-16,2.44-24,3.61a6.89,6.89,0,0,1-2.45-.58c.75-.64,1.46-1.73,2.25-1.85,5.41-.84,10.84-1.43,16.26-2.2C148.52,86.24,157.49,84.9,166.47,83.58Z"/><path d="M233.08,99c-4.07.48-8.14,1-12.22,1.41-7,.64-13.94,1.1-20.9,1.79-1.4.14-2.77,1-4.47,1.62-1.67-4.57-5.19-1-7.84-.73a83.19,83.19,0,0,0-14.6,3.14c-1.43.4-2.63,2-3.93,3.08l-16.22.73,2.05-2.08,0-.95c-6.31.79-12.63,1.35-18.91,2.44-9.24,1.61-18.44,3.59-27.65,5.44a31.73,31.73,0,0,0-3.16,1c1.71-1.08,3.34-2.77,5.13-3.13,12.22-2.41,24.46-4.73,36.72-6.72,13.46-2.18,27-4.09,40.44-5.9,8.9-1.2,17.82-2.2,26.74-2.95,8.44-.71,16.89-1,25.73-.88Z"/><path d="M90.76,114.2l-.63-1.84c3-.44,6.37-.05,9-1.47,6.83-3.74,14.16-3.64,21.13-5.75a57.64,57.64,0,0,1,12.12-2,33.39,33.39,0,0,0,9.25-2.33c4.56-1.8,8.83-.92,13.17.07-3.3.65-6.59,1.38-9.89,1.94-5.17.87-10.52.91-15.5,2.56C116.65,109.61,103.62,111.21,90.76,114.2Z"/><path d="M102.83,118.1c11.47-2.48,22.84-6.12,34.54-5.92l-34.6,7.26.05,1,1.64.51-15.81,2.3a24.9,24.9,0,0,1,3.93-2.14C96,120,99.41,119.1,102.83,118.1Z"/><path d="M99.46,279.54l-9.29,2-.2-1.22,9.19-1.87Z"/><path class="cls-1" d="M213,84.38l-1.68-.63L220,80.37l.17.23c5.1-.34,10.21-.62,15.31-1,2-.16,4-.59,5.94-.89l.11,1.7Z"/><path d="M368.71,200.53l8.25.11C371.91,203.38,369.68,203.32,368.71,200.53Z"/><path class="cls-1" d="M149.72,89.6A61.7,61.7,0,0,1,172,86.41l.29,1.42a9.47,9.47,0,0,1-2.59,1.4c-5.54.93-11.08,1.88-16.64,2.44-1.09.11-2.25-1.41-3.37-2.18Z"/></svg>